<svg width="24" height="24" viewBox="0 0 24 24" fill="none" xmlns="http://www.w3.org/2000/svg">
<path d="M17.7208 6.27916C17.542 6.10042 17.2996 6 17.0467 6C16.7939 6 16.5514 6.10042 16.3726 6.27916L12 10.6518L7.62737 6.27916C7.44857 6.10042 7.2061 6 6.95327 6C6.70044 6 6.45797 6.10042 6.27916 6.27916C6.10042 6.45797 6 6.70044 6 6.95327C6 7.2061 6.10042 7.44857 6.27916 7.62737L10.6518 12L6.27916 16.3726C6.10042 16.5514 6 16.7939 6 17.0467C6 17.2996 6.10042 17.542 6.27916 17.7208C6.45797 17.8996 6.70044 18 6.95327 18C7.2061 18 7.44857 17.8996 7.62737 17.7208L12 13.3482L16.3726 17.7208C16.5514 17.8996 16.7939 18 17.0467 18C17.2996 18 17.542 17.8996 17.7208 17.7208C17.8996 17.542 18 17.2996 18 17.0467C18 16.7939 17.8996 16.5514 17.7208 16.3726L13.3482 12L17.7208 7.62737C17.8996 7.44857 18 7.2061 18 6.95327C18 6.70044 17.8996 6.45797 17.7208 6.27916Z" fill="#141414"/>
</svg>
