<svg width="24" height="24" viewBox="0 0 24 24" fill="none" xmlns="http://www.w3.org/2000/svg">
<path d="M12.6092 13.2986C12.5163 13.3923 12.4057 13.4667 12.2838 13.5175C12.1619 13.5682 12.0312 13.5944 11.8992 13.5944C11.7672 13.5944 11.6365 13.5682 11.5147 13.5175C11.3928 13.4667 11.2822 13.3923 11.1892 13.2986L6.60923 8.70858C6.51627 8.61485 6.40567 8.54045 6.28381 8.48968C6.16195 8.43892 6.03124 8.41278 5.89923 8.41278C5.76722 8.41278 5.63651 8.43892 5.51465 8.48969C5.39279 8.54045 5.28219 8.61485 5.18923 8.70858C5.00298 8.89594 4.89844 9.14939 4.89844 9.41358C4.89844 9.67776 5.00298 9.93121 5.18923 10.1186L9.77923 14.7086C10.3417 15.2704 11.1042 15.5859 11.8992 15.5859C12.6942 15.5859 13.4567 15.2704 14.0192 14.7086L18.6092 10.1186C18.794 9.93232 18.8981 9.68092 18.8992 9.41858C18.9 9.28697 18.8748 9.15651 18.825 9.03467C18.7752 8.91283 18.7019 8.80202 18.6092 8.70858C18.5163 8.61485 18.4057 8.54045 18.2838 8.48968C18.1619 8.43892 18.0312 8.41278 17.8992 8.41278C17.7672 8.41278 17.6365 8.43892 17.5147 8.48968C17.3928 8.54045 17.2822 8.61485 17.1892 8.70858L12.6092 13.2986Z" fill="#141414"/>
</svg>
