<svg width="24" height="24" viewBox="0 0 24 24" fill="none" xmlns="http://www.w3.org/2000/svg">
<path d="M10.5999 12.7108C10.5061 12.6178 10.4317 12.5072 10.381 12.3854C10.3302 12.2635 10.3041 12.1328 10.3041 12.0008C10.3041 11.8688 10.3302 11.7381 10.381 11.6162C10.4317 11.4944 10.5061 11.3838 10.5999 11.2908L15.1899 6.71079C15.2836 6.61783 15.358 6.50723 15.4088 6.38537C15.4595 6.26351 15.4857 6.1328 15.4857 6.00079C15.4857 5.86878 15.4595 5.73808 15.4088 5.61622C15.358 5.49436 15.2836 5.38376 15.1899 5.29079C15.0025 5.10454 14.749 5 14.4849 5C14.2207 5 13.9672 5.10454 13.7799 5.29079L9.18986 9.88079C8.62806 10.4433 8.3125 11.2058 8.3125 12.0008C8.3125 12.7958 8.62806 13.5583 9.18986 14.1208L13.7799 18.7108C13.9661 18.8955 14.2175 18.9997 14.4799 19.0008C14.6115 19.0016 14.7419 18.9763 14.8638 18.9266C14.9856 18.8768 15.0964 18.8035 15.1899 18.7108C15.2836 18.6178 15.358 18.5072 15.4088 18.3854C15.4595 18.2635 15.4857 18.1328 15.4857 18.0008C15.4857 17.8688 15.4595 17.7381 15.4088 17.6162C15.358 17.4944 15.2836 17.3838 15.1899 17.2908L10.5999 12.7108Z" fill="#141414"/>
</svg>
