<svg width="24" height="24" viewBox="0 0 24 24" fill="none" xmlns="http://www.w3.org/2000/svg">
<path d="M20.0905 12.0009C20.0904 11.7481 19.99 11.5056 19.8112 11.3268C19.6324 11.1481 19.39 11.0476 19.1372 11.0476L12.9533 11.0476L12.9533 4.86375C12.9533 4.61092 12.8528 4.36846 12.6741 4.18969C12.4953 4.01091 12.2528 3.91046 12 3.91042C11.7472 3.91046 11.5047 4.01091 11.3259 4.18969C11.1472 4.36846 11.0467 4.61092 11.0467 4.86375L11.0467 11.0476L4.86284 11.0476C4.61002 11.0476 4.36756 11.1481 4.18878 11.3268C4.01001 11.5056 3.90955 11.7481 3.90952 12.0009C3.90955 12.2537 4.01001 12.4962 4.18878 12.675C4.36756 12.8537 4.61002 12.9542 4.86284 12.9542L11.0467 12.9542L11.0467 19.1381C11.0467 19.3909 11.1472 19.6333 11.3259 19.8121C11.5047 19.9909 11.7472 20.0914 12 20.0914C12.2528 20.0914 12.4953 19.9909 12.6741 19.8121C12.8528 19.6333 12.9533 19.3909 12.9533 19.1381L12.9533 12.9542L19.1372 12.9542C19.39 12.9542 19.6324 12.8537 19.8112 12.675C19.99 12.4962 20.0904 12.2537 20.0905 12.0009Z" fill="#141414"/>
</svg>
