<svg width="24" height="24" viewBox="0 0 24 24" fill="none" xmlns="http://www.w3.org/2000/svg">
<path d="M13.197 11.2892C13.2907 11.3822 13.3651 11.4928 13.4159 11.6146C13.4667 11.7365 13.4928 11.8672 13.4928 11.9992C13.4928 12.1312 13.4667 12.2619 13.4159 12.3838C13.3651 12.5056 13.2907 12.6162 13.197 12.7092L8.60701 17.2892C8.51329 17.3822 8.43889 17.4928 8.38812 17.6146C8.33735 17.7365 8.31122 17.8672 8.31122 17.9992C8.31122 18.1312 8.33735 18.2619 8.38812 18.3838C8.43889 18.5056 8.51329 18.6162 8.60701 18.7092C8.79438 18.8955 9.04783 19 9.31201 19C9.5762 19 9.82965 18.8955 10.017 18.7092L14.607 14.1192C15.1688 13.5567 15.4844 12.7942 15.4844 11.9992C15.4844 11.2042 15.1688 10.4417 14.607 9.87921L10.017 5.28921C9.83076 5.10446 9.57936 5.00031 9.31702 4.99921C9.18541 4.99844 9.05495 5.02367 8.93311 5.07343C8.81127 5.1232 8.70046 5.19652 8.60702 5.28921C8.51329 5.38217 8.43889 5.49277 8.38812 5.61463C8.33736 5.73649 8.31122 5.86719 8.31122 5.9992C8.31122 6.13122 8.33736 6.26192 8.38812 6.38378C8.43889 6.50564 8.51329 6.61624 8.60702 6.7092L13.197 11.2892Z" fill="#141414"/>
</svg>
