<svg width="24" height="24" viewBox="0 0 24 24" fill="none" xmlns="http://www.w3.org/2000/svg">
<path d="M11.1876 10.7014C11.2806 10.6077 11.3912 10.5333 11.5131 10.4825C11.6349 10.4318 11.7656 10.4056 11.8976 10.4056C12.0297 10.4056 12.1604 10.4318 12.2822 10.4825C12.4041 10.5333 12.5147 10.6077 12.6076 10.7014L17.1876 15.2914C17.2806 15.3852 17.3912 15.4595 17.5131 15.5103C17.6349 15.5611 17.7656 15.5872 17.8976 15.5872C18.0297 15.5872 18.1604 15.5611 18.2822 15.5103C18.4041 15.4595 18.5147 15.3852 18.6076 15.2914C18.7939 15.1041 18.8984 14.8506 18.8984 14.5864C18.8984 14.3222 18.7939 14.0688 18.6076 13.8814L14.0176 9.29142C13.4551 8.72962 12.6926 8.41406 11.8976 8.41406C11.1026 8.41406 10.3401 8.72962 9.77764 9.29142L5.18764 13.8814C5.0029 14.0677 4.89875 14.3191 4.89764 14.5814C4.89688 14.713 4.92211 14.8435 4.97187 14.9653C5.02164 15.0872 5.09496 15.198 5.18764 15.2914C5.28061 15.3852 5.39121 15.4595 5.51307 15.5103C5.63493 15.5611 5.76563 15.5872 5.89764 15.5872C6.02966 15.5872 6.16036 15.5611 6.28222 15.5103C6.40408 15.4595 6.51468 15.3852 6.60764 15.2914L11.1876 10.7014Z" fill="#141414"/>
</svg>
