<?xml version="1.0" encoding="UTF-8"?>
<svg id="Layer_1" xmlns="http://www.w3.org/2000/svg" version="1.1" viewBox="0 0 5000 5000">
  <!-- Generator: Adobe Illustrator 30.0.0, SVG Export Plug-In . SVG Version: 2.1.1 Build 123)  -->
  <defs>
    <style>
      .st0 {
        fill: #ebb426;
      }

      .st0, .st1, .st2, .st3 {
        fill-rule: evenodd;
      }

      .st1 {
        fill: #fff;
      }

      .st2 {
        fill: #1a1a1a;
      }

      .st3 {
        fill: #901002;
      }
    </style>
  </defs>
  <path class="st0" d="M338.07,2061.82c-88.88-63.11-135.37-274.38-211.84-397.19-69.64-111.87-65.88-465.08-118.14-615.45-42.53-122.38,92.73-436.09,168.76-518,57.28-61.7,494.44-366.03,573.81-383.43,3.31-.73,81.37-41.8,160.94-57.82,304.43-61.28,513.14-178.29,810.67,22.77,284.94,192.56,151.68,124.38,299.41,364.95,75.98,123.73,145.16,493.1,145.16,645.32,0,190.87-3.6,268.88,33.55,454.85,50.74,254.02-141.84,510.69-338.37,619.88-310.13,172.31-164.24,184.99-571.82,184.99-597.32,0-467.12,23.47-952.13-320.88Z"/>
  <path class="st3" d="M2754.34,664.55c-106.71,75.76-162.53,329.39-254.32,476.83-83.61,134.3-79.1,558.35-141.83,738.86-51.06,146.92,111.33,523.54,202.6,621.87,68.76,74.08,593.59,439.43,688.88,460.32,3.98.88,97.68,50.18,193.21,69.42,365.47,73.57,616.04,214.04,973.23-27.34,342.08-231.18,182.1-149.31,359.45-438.14,91.23-148.54,174.26-591.97,174.26-774.72,0-229.14-4.31-322.79,40.29-546.07,60.92-304.95-170.29-613.09-406.23-744.18-372.31-206.87-197.18-222.08-686.48-222.08-717.11,0-560.8-28.19-1143.06,385.23Z"/>
  <path class="st2" d="M995.48,2858.06c-92.33,65.56-140.64,285.03-220.07,412.61-72.35,116.22-68.44,483.15-122.73,639.37-44.18,127.13,96.34,453.04,175.32,538.12,59.5,64.1,513.65,380.26,596.1,398.34,3.45.75,84.53,43.43,167.2,60.07,316.26,63.66,533.08,185.22,842.17-23.67,296.01-200.03,157.58-129.2,311.05-379.13,78.94-128.53,150.81-512.25,150.81-670.39,0-198.28-3.73-279.33,34.85-472.53,52.71-263.89-147.35-530.53-351.51-643.97-322.19-179.01-170.63-192.17-594.05-192.17-620.54,0-485.28-24.39-989.13,333.35Z"/>
  <path class="st1" d="M847.39,2221.54c-93.03-26.16-336.55-159.73-388.02-240.22-53.08-83.01-160.56-349.65-196.08-453.18-30.93-90.15-157.85-493.46-152.18-567.87,6.4-84.02,127.97-307.01,180.61-368.95,136.55-160.67,432.54-297.87,625.79-373.11,408.04-158.85,928.43,11.64,1043.79,488.31,68.93,284.82,103.13,386.65,106.71,689.18,1.25,106.23,26.62,313.83-20.9,396.18-41.93,72.68-314.56,350.67-386.63,392.59-355.65,206.89-751.08-75.96-1036.87-285.13-184.86-135.3-200.54-317.77-240.85-537.58-14.81-80.76-22.36-141.85-29.55-223.39-8.22-93.29-27.24-37.09.15-162.51,77.07-352.83,247.19-370.17,490.09-563.24,71.71-56.99,56.31-48.8,153.44-64.35,85.95-13.76,310.38-38.98,381.46,17.83,58.37,46.66,44.45,49.83,111.99,82.86,118.09,57.76,299.15,438.79,341.48,566.52,91.62,276.43,74.81,527.37-42.16,792.88-91.92,208.68-434.4,395.3-648.22,308.99-123.45-49.83-374.48-165.39-455.99-268.77-86.77-110.04-183.24-493.39-189.72-635.31-4.77-104.38,2.57-328.59,85.51-400.33,106.35-91.99,52.8-127.11,238.17-191.51,155.46-54.01,421.92-146.11,554.41-8.03,38.85,40.49,31.57,43.37,82.71,82.58,209.9,160.9,172.98,193.54,240.36,444.18,36.18,134.59,85.59,354.72,8.12,480.07-23.68,38.32-49.43,67.64-73.11,109.44-54.44,96.07-44.86,93.29-152.95,146.97-193.87,96.26-442.64,185.86-608.65-11.26-126.49-150.2-194.88-484.5-206.48-682.56-9.21-157.23,31.05-248.73,131.76-360.51,63.08-70.01,130.84-79.34,220.15-90.71,84.61-10.77,215.02-17.67,292.14,20.07,109.9,53.77,213.63,147.42,235.08,276.75,18.67,112.61,12.06,339.32-19.96,445.58-53.87,178.75-167.38,280.3-340.23,324.91-273.84,70.68-341.88-236.22-358.81-454-22.82-293.48,101.3-488.99,403.44-450.17,142.9,18.36,165.86,349.91,150.05,458.18-16.01,109.71-72.47,199.74-169.2,251.58-270.85,145.16-313.72-603.27-29.49-526.64,188.76,50.89,140,409.37-48.03,347.39-78.23-25.78-47.26-146.85,4.59-136.65,8.71,1.72,12.93,4.34,21.19,8.2,6.71,7.95,3.27,4.05,10.47,11.85-25.52-37.83-65.22-31.15-79.79,12.86-50.82,153.48,175.22,160.33,213.66,1.27,60.3-249.49-237.52-379.37-314.56-120.46-73.02,245.44,81.56,640.26,342.86,321.32,131.08-160,75.85-627.39-99.76-650.77-316.21-42.07-452.24,166.39-429.47,474.04,17.52,236.7,95.85,553.42,389.27,478.86,182.17-46.29,303.51-154.97,360.82-342.95,33.57-110.09,41.41-342.23,22.3-459.25-22.76-139.39-130.43-240.94-249.11-299.82-107.89-53.53-369.94-37.65-479.4,16.16-66.24,32.57-146.43,143.6-177.1,211.59-69.14,153.29-25.67,375.86,8.8,535.45,113.91,527.34,356.11,653.35,819.47,424.74,113.27-55.88,110.71-58.71,169.49-161.85,23.17-40.65,49.09-70.09,72.38-107.63,86.23-138.97,37.74-363.89-2.04-513.23-69.17-259.68-34.48-297.93-254.58-467.34-86.83-66.83-88.13-125.5-214.02-155.46-131.54-31.31-373.65,36.94-498.98,88.1-160.97,65.73-122.63,106.97-208.78,180.85-103.65,88.89-112.16,309.82-106.47,439.78,6.7,153.25,105.27,544.65,198.51,663.4,87.82,111.84,339.33,229.04,472.34,283.09,239.48,97.31,607.18-99.15,710.96-333.66,182.78-413.02,116.64-785.11-109.93-1164.02-50.49-84.44-124.55-219.33-213.61-263.26-57.26-28.26-45.34-31.06-96.87-72.84-93.02-75.42-313.22-50.05-424.26-32.49-101.65,16.08-99.63,13.07-177.1,74.42-145.64,115.32-322.1,190.56-422.88,357.44-42.19,69.88-125.31,291.82-97.33,373.15,10.51,30.56,21.2,174.89,29.79,226.12,32.32,192.73,62.75,430.51,206.16,567.19,326.35,311.06,521.07,393.56,963.8,423.09,50.16,3.35,196.05-76.67,236.15-105.92,61.26-44.69,331.56-322.41,368.71-386.85,59.54-103.28,31.6-303.2,30.3-428.81-3.17-307.74-37.61-413.19-107.15-702.41C1890.83,157.18,1307.74-20.62,854.23,175.37c-205,88.59-460.55,197.62-609.59,372.48-62.03,72.77-189.17,307.72-196.91,407.2-7.21,92.79,119.02,490.63,154.86,595.56,37.55,109.93,142.6,371.56,199.03,462.01,67.27,107.83,325.66,251.63,447.96,277.34,18.16-.63,32.4-16.45,31.8-35.35-.61-18.89-15.82-33.7-33.99-33.06Z"/>
  <path class="st1" d="M3365.79,472.81c-111.69,31.4-404.05,191.76-465.84,288.39-63.72,99.66-192.75,419.78-235.4,544.06-37.14,108.23-189.5,592.41-182.69,681.74,7.69,100.87,153.63,368.58,216.83,442.94,163.93,192.9,519.29,357.6,751.28,447.93,489.85,190.71,1114.59-13.98,1253.08-586.23,82.76-341.94,123.81-464.19,128.11-827.38,1.51-127.54,31.95-376.76-25.09-475.63-50.35-87.24-377.64-420.99-464.16-471.31-426.97-248.37-901.7,91.19-1244.79,342.31-221.93,162.43-240.76,381.49-289.14,645.38-17.78,96.95-26.84,170.29-35.48,268.19-9.87,111.99-32.7,44.52.18,195.09,92.52,423.59,296.76,444.4,588.37,676.19,86.08,68.43,67.6,58.6,184.21,77.26,103.19,16.52,372.63,46.8,457.96-21.41,70.08-56.01,53.38-59.82,134.44-99.47,141.77-69.33,359.14-526.78,409.97-680.12,109.99-331.86,89.8-633.12-50.62-951.87-110.36-250.52-521.51-474.57-778.21-370.95-148.2,59.82-449.57,198.55-547.44,322.67-104.17,132.11-219.98,592.32-227.76,762.72-5.73,125.3,3.08,394.47,102.66,480.61,127.66,110.44,63.38,152.59,285.93,229.91,186.64,64.84,506.53,175.41,665.59,9.64,46.65-48.61,37.9-52.06,99.3-99.13,251.98-193.17,207.67-232.34,288.56-533.25,43.43-161.58,102.75-425.86,9.74-576.35-28.42-45.99-59.34-81.2-87.77-131.37-65.35-115.34-53.85-112.01-183.63-176.44-232.74-115.56-531.4-223.14-730.69,13.52-151.86,180.31-233.96,581.66-247.9,819.44-11.05,188.75,37.28,298.6,158.19,432.8,75.72,84.05,157.08,95.26,264.29,108.91,101.59,12.93,258.13,21.21,350.73-24.1,131.94-64.55,256.47-176.99,282.21-332.24,22.42-135.19,14.48-407.37-23.96-534.94-64.67-214.6-200.95-336.51-408.45-390.07-328.76-84.85-410.44,283.6-430.77,545.05-27.41,352.32,121.61,587.04,484.34,540.44,171.56-22.05,199.12-420.08,180.14-550.07-19.21-131.71-87-239.79-203.12-302.03-325.17-174.26-376.63,724.25-35.41,632.25,226.6-61.09,168.08-491.45-57.67-417.05-93.9,30.95-56.74,176.3,5.52,164.05,10.45-2.06,15.52-5.21,25.43-9.84,8.06-9.55,3.93-4.87,12.58-14.22-30.65,45.42-78.31,37.39-95.8-15.44-61.02-184.26,210.35-192.49,256.5-1.53,72.39,299.52-285.14,455.45-377.63,144.61-87.66-294.64,97.91-768.64,411.61-385.75,157.37,192.08,91.06,753.21-119.76,781.26-379.62,50.51-542.93-199.76-515.59-569.1,21.03-284.16,115.07-664.4,467.32-574.89,218.71,55.58,364.37,186.05,433.18,411.74,40.29,132.17,49.7,410.85,26.78,551.34-27.32,167.35-156.58,289.25-299.07,359.94-129.53,64.27-444.12,45.21-575.53-19.4-79.53-39.1-175.8-172.39-212.62-254.03-83.01-184.03-30.82-451.23,10.57-642.83,136.74-633.09,427.5-784.37,983.78-509.92,135.98,67.09,132.91,70.48,203.49,194.31,27.81,48.8,58.94,84.14,86.89,129.21,103.51,166.83,45.31,436.86-2.45,616.14-83.04,311.76-41.39,357.67-305.63,561.05-104.24,80.23-105.8,150.66-256.94,186.64-157.91,37.59-448.58-44.34-599.04-105.77-193.25-78.9-147.22-128.41-250.65-217.12-124.44-106.71-134.66-371.93-127.83-527.97,8.05-183.99,126.38-653.86,238.33-796.43,105.44-134.28,407.37-274.97,567.07-339.86,287.49-116.81,728.93,119.03,853.52,400.57,219.44,495.85,140.03,942.55-131.98,1397.44-60.62,101.37-149.53,263.3-256.43,316.04-68.75,33.93-54.44,37.29-116.31,87.45-111.68,90.55-376.04,60.09-509.33,39-122.03-19.31-119.6-15.69-212.62-89.36-174.84-138.44-386.69-228.76-507.68-429.11-50.66-83.89-150.44-350.35-116.85-447.98,12.63-36.69,25.46-209.96,35.77-271.47,38.81-231.37,75.34-516.83,247.5-680.93,391.8-373.44,625.56-472.48,1157.08-507.93,60.21-4.02,235.37,92.05,283.5,127.16,73.55,53.65,398.05,387.06,442.65,464.43,71.48,123.98,37.93,364,36.39,514.8-3.81,369.44-45.16,496.04-128.65,843.27-154.53,642.75-854.56,856.19-1399.01,620.91-246.1-106.35-552.9-237.23-731.83-447.17-74.47-87.36-227.11-369.44-236.39-488.85-8.67-111.4,142.89-589.03,185.91-715,45.08-131.98,171.19-446.07,238.94-554.66,80.76-129.46,390.96-302.09,537.79-332.95,21.8.75,38.89,19.75,38.16,42.44-.73,22.67-19,40.45-40.8,39.69Z"/>
  <path class="st1" d="M1524.59,2692.14c-96.65,27.18-349.63,165.93-403.1,249.55-55.15,86.24-166.8,363.24-203.7,470.78-32.14,93.67-163.98,512.64-158.1,589.94,6.65,87.28,132.95,318.95,187.64,383.29,141.86,166.92,449.35,309.44,650.1,387.6,423.89,165.04,964.5-12.08,1084.35-507.27,71.6-295.9,107.13-401.68,110.84-715.96,1.31-110.36,27.66-326.03-21.71-411.57-43.56-75.5-326.79-364.31-401.65-407.85-369.47-214.92-780.27,78.91-1077.15,296.21-192.04,140.56-208.33,330.11-250.21,558.47-15.38,83.89-23.23,147.36-30.7,232.08-8.54,96.91-28.3,38.52.16,168.82,80.06,366.55,256.8,384.55,509.13,585.13,74.49,59.2,58.5,50.69,159.41,66.84,89.29,14.3,322.44,40.5,396.29-18.51,60.64-48.47,46.18-51.76,116.34-86.08,122.67-60.01,310.77-455.84,354.75-588.54,95.18-287.17,77.7-547.86-43.8-823.68-95.5-216.78-451.29-410.67-673.41-321-128.24,51.76-389.03,171.81-473.72,279.22-90.14,114.32-190.36,512.55-197.09,659.99-4.95,108.44,2.67,341.36,88.84,415.9,110.47,95.56,54.85,132.04,247.43,198.95,161.5,56.1,438.32,151.79,575.96,8.35,40.36-42.07,32.79-45.06,85.93-85.79,218.05-167.16,179.7-201.06,249.69-461.45,37.59-139.82,88.91-368.51,8.44-498.74-24.6-39.79-51.35-70.26-75.95-113.68-56.56-99.8-46.61-96.92-158.9-152.68-201.41-100-459.84-193.09-632.31,11.7-131.41,156.04-202.45,503.33-214.5,709.07-9.57,163.34,32.25,258.4,136.89,374.52,65.52,72.73,135.92,82.43,228.69,94.25,87.9,11.19,223.37,18.35,303.49-20.85,114.17-55.86,221.93-153.16,244.21-287.5,19.39-117,12.53-352.52-20.74-462.9-55.96-185.7-173.88-291.19-353.44-337.54-284.48-73.43-355.16,245.4-372.76,471.64-23.71,304.88,105.23,507.99,419.12,467.67,148.46-19.08,172.31-363.51,155.88-475.99-16.63-113.98-75.28-207.51-175.77-261.35-281.38-150.8-325.91,626.71-30.63,547.11,196.09-52.87,145.44-425.28-49.9-360.89-81.26,26.78-49.1,152.55,4.77,141.96,9.05-1.78,13.43-4.51,22.01-8.52,6.97-8.26,3.4-4.21,10.88-12.3-26.52,39.3-67.76,32.36-82.89-13.35-52.8-159.46,182.02-166.57,221.96-1.33,62.64,259.19-246.75,394.12-326.78,125.14-75.86-254.96,84.73-665.13,356.19-333.8,136.17,166.22,78.8,651.77-103.63,676.06-328.5,43.7-469.82-172.87-446.16-492.47,18.2-245.89,99.57-574.92,404.4-497.47,189.25,48.09,315.3,161,374.84,356.29,34.87,114.37,43.01,355.52,23.17,477.1-23.64,144.81-135.5,250.29-258.79,311.47-112.08,55.61-384.32,39.12-498.03-16.79-68.82-33.84-152.13-149.17-183.99-219.81-71.83-159.26-26.67-390.47,9.15-556.27,118.34-547.82,369.94-678.73,851.3-441.25,117.67,58.06,115.01,60.99,176.08,168.14,24.07,42.23,51,72.81,75.2,111.8,89.57,144.37,39.2,378.04-2.12,533.18-71.86,269.76-35.83,309.51-264.48,485.49-90.2,69.42-91.55,130.38-222.33,161.5-136.65,32.53-388.17-38.37-518.37-91.53-167.22-68.28-127.39-111.12-216.89-187.87-107.68-92.35-116.52-321.85-110.61-456.87,6.96-159.22,109.36-565.81,206.23-689.18,91.23-116.19,352.51-237.94,490.7-294.09,248.78-101.08,630.77,102.99,738.59,346.63,189.88,429.07,121.17,815.61-114.21,1209.25-52.45,87.72-129.39,227.85-221.9,273.48-59.49,29.36-47.11,32.27-100.64,75.67-96.64,78.36-325.4,52-440.74,33.75-105.61-16.7-103.5-13.57-183.99-77.31-151.29-119.81-334.61-197.95-439.3-371.32-43.83-72.6-130.19-303.17-101.11-387.65,10.93-31.75,22.03-181.69,30.96-234.91,33.58-200.22,65.18-447.23,214.16-589.23,339.04-323.16,541.31-408.86,1001.25-439.54,52.11-3.48,203.67,79.65,245.33,110.03,63.64,46.43,344.44,334.95,383.04,401.89,61.85,107.29,32.82,314.99,31.48,445.47-3.29,319.7-39.08,429.24-111.31,729.71-133.72,556.18-739.48,740.89-1210.61,537.29-212.96-92.03-478.45-205.29-633.27-386.95-64.44-75.61-196.52-319.69-204.56-423.02-7.5-96.39,123.65-509.7,160.88-618.7,39-114.2,148.14-386,206.76-479.97,69.89-112.02,338.31-261.4,465.37-288.11,18.87.67,33.66,17.11,33.03,36.73-.63,19.62-16.44,35.01-35.31,34.35Z"/>
</svg>