<svg width="344" height="160" viewBox="0 0 344 160" fill="none" xmlns="http://www.w3.org/2000/svg">
<path d="M58.2089 35.6049C58.9443 34.1248 61.0557 34.1248 61.7911 35.6049L67.7971 47.6929C68.0883 48.279 68.6479 48.6856 69.2953 48.7814L82.6477 50.7581C84.2826 51.0001 84.935 53.0081 83.7546 54.1649L74.1142 63.6124C73.6467 64.0705 73.433 64.7283 73.5419 65.3736L75.7881 78.6833C76.0632 80.313 74.355 81.554 72.8901 80.7888L60.926 74.5397C60.3458 74.2366 59.6542 74.2366 59.074 74.5397L47.11 80.7888C45.645 81.554 43.9368 80.313 44.2119 78.6833L46.4581 65.3736C46.567 64.7283 46.3533 64.0705 45.8858 63.6124L36.2454 54.1649C35.065 53.0081 35.7174 51.0001 37.3524 50.7581L50.7047 48.7814C51.3521 48.6856 51.9117 48.279 52.2029 47.6929L58.2089 35.6049Z" fill="#1A0F5E"/>
<path d="M114.209 35.6049C114.944 34.1248 117.056 34.1248 117.791 35.6049L123.797 47.6929C124.088 48.279 124.648 48.6856 125.295 48.7814L138.648 50.7581C140.283 51.0001 140.935 53.0081 139.755 54.1649L130.114 63.6124C129.647 64.0705 129.433 64.7283 129.542 65.3736L131.788 78.6833C132.063 80.313 130.355 81.554 128.89 80.7888L116.926 74.5397C116.346 74.2366 115.654 74.2366 115.074 74.5397L103.11 80.7888C101.645 81.554 99.9368 80.313 100.212 78.6833L102.458 65.3736C102.567 64.7283 102.353 64.0705 101.886 63.6124L92.2454 54.1649C91.065 53.0081 91.7174 51.0001 93.3524 50.7581L106.705 48.7814C107.352 48.6856 107.912 48.279 108.203 47.6929L114.209 35.6049Z" fill="#1A0F5E"/>
<path d="M170.209 35.6049C170.944 34.1248 173.056 34.1248 173.791 35.6049L179.797 47.6929C180.088 48.279 180.648 48.6856 181.295 48.7814L194.648 50.7581C196.283 51.0001 196.935 53.0081 195.755 54.1649L186.114 63.6124C185.647 64.0705 185.433 64.7283 185.542 65.3736L187.788 78.6833C188.063 80.313 186.355 81.554 184.89 80.7888L172.926 74.5397C172.346 74.2366 171.654 74.2366 171.074 74.5397L159.11 80.7888C157.645 81.554 155.937 80.313 156.212 78.6833L158.458 65.3736C158.567 64.7283 158.353 64.0705 157.886 63.6124L148.245 54.1649C147.065 53.0081 147.717 51.0001 149.352 50.7581L162.705 48.7814C163.352 48.6856 163.912 48.279 164.203 47.6929L170.209 35.6049Z" fill="#1A0F5E"/>
<path d="M226.209 35.6049C226.944 34.1248 229.056 34.1248 229.791 35.6049L235.797 47.6929C236.088 48.279 236.648 48.6856 237.295 48.7814L250.648 50.7581C252.283 51.0001 252.935 53.0081 251.755 54.1649L242.114 63.6124C241.647 64.0705 241.433 64.7283 241.542 65.3736L243.788 78.6833C244.063 80.313 242.355 81.554 240.89 80.7888L228.926 74.5397C228.346 74.2366 227.654 74.2366 227.074 74.5397L215.11 80.7888C213.645 81.554 211.937 80.313 212.212 78.6833L214.458 65.3736C214.567 64.7283 214.353 64.0705 213.886 63.6124L204.245 54.1649C203.065 53.0081 203.717 51.0001 205.352 50.7581L218.705 48.7814C219.352 48.6856 219.912 48.279 220.203 47.6929L226.209 35.6049Z" fill="#1A0F5E"/>
<path d="M282.209 35.6049C282.944 34.1248 285.056 34.1248 285.791 35.6049L291.797 47.6929C292.088 48.279 292.648 48.6856 293.295 48.7814L306.648 50.7581C308.283 51.0001 308.935 53.0081 307.755 54.1649L298.114 63.6124C297.647 64.0705 297.433 64.7283 297.542 65.3736L299.788 78.6833C300.063 80.313 298.355 81.554 296.89 80.7888L284.926 74.5397C284.346 74.2366 283.654 74.2366 283.074 74.5397L271.11 80.7888C269.645 81.554 267.937 80.313 268.212 78.6833L270.458 65.3736C270.567 64.7283 270.353 64.0705 269.886 63.6124L260.245 54.1649C259.065 53.0081 259.717 51.0001 261.352 50.7581L274.705 48.7814C275.352 48.6856 275.912 48.279 276.203 47.6929L282.209 35.6049Z" fill="#1A0F5E"/>
<path d="M46.0375 125.384C44.3308 125.384 42.7522 125.075 41.3015 124.456C39.8508 123.837 38.5815 122.973 37.4935 121.864C36.4055 120.755 35.5522 119.453 34.9335 117.96C34.3362 116.467 34.0375 114.835 34.0375 113.064C34.0375 111.293 34.3255 109.661 34.9015 108.168C35.4988 106.653 36.3308 105.352 37.3975 104.264C38.4855 103.155 39.7548 102.301 41.2055 101.704C42.6562 101.085 44.2348 100.776 45.9415 100.776C47.6482 100.776 49.1735 101.064 50.5175 101.64C51.8828 102.216 53.0348 102.984 53.9735 103.944C54.9122 104.883 55.5842 105.917 55.9895 107.048L52.1175 108.904C51.6695 107.667 50.9122 106.664 49.8455 105.896C48.7788 105.128 47.4775 104.744 45.9415 104.744C44.4482 104.744 43.1255 105.096 41.9735 105.8C40.8428 106.504 39.9575 107.475 39.3175 108.712C38.6988 109.949 38.3895 111.4 38.3895 113.064C38.3895 114.728 38.7095 116.189 39.3495 117.448C40.0108 118.685 40.9175 119.656 42.0695 120.36C43.2215 121.064 44.5442 121.416 46.0375 121.416C47.2535 121.416 48.3735 121.181 49.3975 120.712C50.4215 120.221 51.2428 119.539 51.8615 118.664C52.4802 117.768 52.7895 116.712 52.7895 115.496V113.672L54.7735 115.4H45.9415V111.72H57.1415V114.12C57.1415 115.955 56.8322 117.576 56.2135 118.984C55.5948 120.392 54.7522 121.576 53.6855 122.536C52.6402 123.475 51.4562 124.189 50.1335 124.68C48.8108 125.149 47.4455 125.384 46.0375 125.384ZM68.7453 125.384C67.0386 125.384 65.4813 124.989 64.0733 124.2C62.6866 123.411 61.5773 122.333 60.7453 120.968C59.9346 119.603 59.5293 118.045 59.5293 116.296C59.5293 114.547 59.9346 112.989 60.7453 111.624C61.5773 110.259 62.6866 109.181 64.0733 108.392C65.4599 107.603 67.0173 107.208 68.7453 107.208C70.4519 107.208 71.9986 107.603 73.3853 108.392C74.7719 109.181 75.8706 110.259 76.6813 111.624C77.5133 112.968 77.9293 114.525 77.9293 116.296C77.9293 118.045 77.5133 119.603 76.6813 120.968C75.8493 122.333 74.7399 123.411 73.3533 124.2C71.9666 124.989 70.4306 125.384 68.7453 125.384ZM68.7453 121.544C69.6839 121.544 70.5053 121.32 71.2093 120.872C71.9346 120.424 72.4999 119.805 72.9053 119.016C73.3319 118.205 73.5453 117.299 73.5453 116.296C73.5453 115.272 73.3319 114.376 72.9053 113.608C72.4999 112.819 71.9346 112.2 71.2093 111.752C70.5053 111.283 69.6839 111.048 68.7453 111.048C67.7853 111.048 66.9426 111.283 66.2173 111.752C65.4919 112.2 64.9159 112.819 64.4893 113.608C64.0839 114.376 63.8813 115.272 63.8813 116.296C63.8813 117.299 64.0839 118.205 64.4893 119.016C64.9159 119.805 65.4919 120.424 66.2173 120.872C66.9426 121.32 67.7853 121.544 68.7453 121.544ZM89.6203 125.384C87.9136 125.384 86.3563 124.989 84.9483 124.2C83.5616 123.411 82.4523 122.333 81.6203 120.968C80.8096 119.603 80.4043 118.045 80.4043 116.296C80.4043 114.547 80.8096 112.989 81.6203 111.624C82.4523 110.259 83.5616 109.181 84.9483 108.392C86.3349 107.603 87.8923 107.208 89.6203 107.208C91.3269 107.208 92.8736 107.603 94.2603 108.392C95.6469 109.181 96.7456 110.259 97.5563 111.624C98.3883 112.968 98.8043 114.525 98.8043 116.296C98.8043 118.045 98.3883 119.603 97.5563 120.968C96.7243 122.333 95.6149 123.411 94.2283 124.2C92.8416 124.989 91.3056 125.384 89.6203 125.384ZM89.6203 121.544C90.5589 121.544 91.3803 121.32 92.0843 120.872C92.8096 120.424 93.3749 119.805 93.7803 119.016C94.2069 118.205 94.4203 117.299 94.4203 116.296C94.4203 115.272 94.2069 114.376 93.7803 113.608C93.3749 112.819 92.8096 112.2 92.0843 111.752C91.3803 111.283 90.5589 111.048 89.6203 111.048C88.6603 111.048 87.8176 111.283 87.0923 111.752C86.3669 112.2 85.7909 112.819 85.3643 113.608C84.9589 114.376 84.7563 115.272 84.7563 116.296C84.7563 117.299 84.9589 118.205 85.3643 119.016C85.7909 119.805 86.3669 120.424 87.0923 120.872C87.8176 121.32 88.6603 121.544 89.6203 121.544ZM110.431 132.04C109.13 132.04 107.925 131.827 106.815 131.4C105.706 130.973 104.746 130.376 103.935 129.608C103.146 128.861 102.57 127.976 102.207 126.952L106.111 125.48C106.367 126.291 106.869 126.941 107.615 127.432C108.383 127.944 109.322 128.2 110.431 128.2C111.285 128.2 112.031 128.04 112.671 127.72C113.333 127.4 113.845 126.931 114.207 126.312C114.57 125.715 114.751 124.989 114.751 124.136V120.168L115.551 121.128C114.954 122.173 114.154 122.963 113.151 123.496C112.149 124.029 111.007 124.296 109.727 124.296C108.106 124.296 106.655 123.923 105.375 123.176C104.095 122.429 103.093 121.405 102.367 120.104C101.642 118.803 101.279 117.341 101.279 115.72C101.279 114.077 101.642 112.616 102.367 111.336C103.093 110.056 104.085 109.053 105.343 108.328C106.602 107.581 108.031 107.208 109.631 107.208C110.933 107.208 112.074 107.485 113.055 108.04C114.058 108.573 114.89 109.352 115.551 110.376L114.975 111.432V107.592H118.943V124.136C118.943 125.651 118.57 127.005 117.823 128.2C117.098 129.395 116.095 130.333 114.815 131.016C113.557 131.699 112.095 132.04 110.431 132.04ZM110.239 120.424C111.135 120.424 111.914 120.232 112.575 119.848C113.258 119.443 113.791 118.888 114.175 118.184C114.559 117.48 114.751 116.669 114.751 115.752C114.751 114.856 114.549 114.056 114.143 113.352C113.759 112.627 113.226 112.061 112.543 111.656C111.882 111.251 111.114 111.048 110.239 111.048C109.365 111.048 108.575 111.251 107.871 111.656C107.167 112.061 106.613 112.627 106.207 113.352C105.823 114.056 105.631 114.856 105.631 115.752C105.631 116.648 105.823 117.448 106.207 118.152C106.613 118.856 107.157 119.411 107.839 119.816C108.543 120.221 109.343 120.424 110.239 120.424ZM122.858 125V100.776H127.05V125H122.858ZM139.177 125.384C137.385 125.384 135.817 124.979 134.473 124.168C133.129 123.357 132.083 122.259 131.337 120.872C130.59 119.485 130.217 117.949 130.217 116.264C130.217 114.515 130.59 112.968 131.337 111.624C132.105 110.259 133.139 109.181 134.441 108.392C135.763 107.603 137.235 107.208 138.857 107.208C140.222 107.208 141.417 107.432 142.441 107.88C143.486 108.328 144.371 108.947 145.097 109.736C145.822 110.525 146.377 111.432 146.761 112.456C147.145 113.459 147.337 114.547 147.337 115.72C147.337 116.019 147.315 116.328 147.273 116.648C147.251 116.968 147.198 117.245 147.113 117.48H133.673V114.28H144.745L142.761 115.784C142.953 114.803 142.899 113.928 142.601 113.16C142.323 112.392 141.854 111.784 141.193 111.336C140.553 110.888 139.774 110.664 138.857 110.664C137.982 110.664 137.203 110.888 136.521 111.336C135.838 111.763 135.315 112.403 134.953 113.256C134.611 114.088 134.483 115.101 134.569 116.296C134.483 117.363 134.622 118.312 134.985 119.144C135.369 119.955 135.923 120.584 136.649 121.032C137.395 121.48 138.249 121.704 139.209 121.704C140.169 121.704 140.979 121.501 141.641 121.096C142.323 120.691 142.857 120.147 143.241 119.464L146.633 121.128C146.291 121.96 145.758 122.696 145.033 123.336C144.307 123.976 143.443 124.477 142.441 124.84C141.459 125.203 140.371 125.384 139.177 125.384Z" fill="#1A0F5E"/>
</svg>
