<svg xmlns="http://www.w3.org/2000/svg" viewBox="0 0 83 48"><path fill="#1E1852" d="M78.815 6.737l-4.777.013 3.933 2.341v.83l-3.834 2.332h4.673v1.728h-7.96v-1.525l4.948-2.981-4.948-2.937V5.023L78.81 5v1.728l.005.009zM39.291 42.43h-8.715l-6.405-13.347c-1.96 1.064-3.447 2.915-5 4.848-1.219 1.516-2.477 3.082-4.035 4.358-1.81 1.48-3.92 2.802-6.554 3.695-1.191.401-3.221.93-3.983 1.001-.32.032-.542.018-.591-.094-.036-.09.05-.158.392-.32.068-.033.174-.08.306-.14.625-.28 1.86-.831 2.685-1.408 1.254-.87 1.966-1.818 2.025-2.544-.063-.225-.2-.5-.363-.832-.719-1.457-1.969-3.99.074-8.014.358-.705.696-1.332 1.01-1.912.474-.878.89-1.647 1.223-2.418.64-1.47 1.092-3.55 1.25-5.088.009-.09.027-.086.076-.036 1.223 1.236 5.955 6.103 5.269 10.947 1.574-.604 4.303-2.44 5.562-3.419.301-.234.578-.47.843-.695.905-.772 1.668-1.421 2.756-1.439.712-.012 1.056.176 1.403.365.266.145.533.291.97.348.248.032.618-.018.808-.108.076-.036.058-.122-.06-.149-.569-.135-.958-.408-1.346-.68-.544-.38-1.086-.759-2.117-.759-1.192 0-2.2.823-3.015 1.487a9.83 9.83 0 0 1-.747.575l-4.475-9.324c-1.872-3.902-1.3-6.735 2.806-12.31L39.29 42.43zm14.083.005H47.96c-2.283 0-3.433-.5-4.267-1.593-.894-1.163-.894-2.936-.894-4.619V5.031h6.96v32.194c0 2.548.285 4.37 3.614 5.097v.113zm8.611 0h5.413v-.113c-3.33-.726-3.613-2.549-3.613-5.097V5.03h-6.96v31.192c0 1.683 0 3.456.893 4.62.834 1.091 1.984 1.592 4.267 1.592zm16.442-12.296a3.936 3.936 0 0 1-1.466 1.547c-.627.374-1.33.564-2.12.564s-1.498-.19-2.12-.564a3.968 3.968 0 0 1-1.466-1.547c-.352-.654-.528-1.394-.528-2.21 0-.69.122-1.313.365-1.873a3.732 3.732 0 0 1 1.047-1.403l1.091 1.182c-.622.537-.933 1.205-.933 2.003 0 .492.108.934.324 1.322.217.388.52.69.903.902.388.216.825.325 1.321.325s.934-.109 1.322-.325c.388-.217.69-.519.902-.902.212-.384.325-.826.325-1.322 0-.794-.316-1.461-.943-2.003l1.092-1.182c.464.38.816.849 1.06 1.412.243.56.365 1.187.365 1.877a4.59 4.59 0 0 1-.532 2.201l-.01-.004zm-1.484-6.618a3.996 3.996 0 0 0 1.475-1.56c.356-.664.532-1.412.532-2.238 0-.825-.176-1.57-.532-2.228a3.997 3.997 0 0 0-1.475-1.561 4.002 4.002 0 0 0-2.111-.568c-.78 0-1.484.189-2.111.568a4.058 4.058 0 0 0-1.475 1.56c-.357.66-.533 1.399-.533 2.229 0 .83.176 1.574.533 2.237a3.965 3.965 0 0 0 1.475 1.561 4.04 4.04 0 0 0 2.11.564c.781 0 1.485-.19 2.112-.564zm-.785-5.963c.383.216.686.514.902.893a2.5 2.5 0 0 1 .325 1.272c0 .47-.113.893-.325 1.272a2.29 2.29 0 0 1-.902.893 2.657 2.657 0 0 1-1.322.325 2.65 2.65 0 0 1-1.321-.325 2.382 2.382 0 0 1-.903-.893 2.505 2.505 0 0 1-.324-1.272c0-.47.108-.893.325-1.272.212-.379.514-.677.902-.893a2.657 2.657 0 0 1 1.321-.325c.496 0 .934.108 1.322.325zm-3.442 17.669a1.827 1.827 0 1 1-3.654 0 1.827 1.827 0 0 1 3.654 0z"/></svg>