<svg width="753" height="159" viewBox="0 0 753 159" fill="none" xmlns="http://www.w3.org/2000/svg">
<g style="mix-blend-mode:multiply">
<g style="mix-blend-mode:overlay">
<path fill-rule="evenodd" clip-rule="evenodd" d="M1.68045 59.4856C1.41788 51.1359 0.892741 43.2587 0 36.0118C4.77879 36.852 8.61232 37.2721 11.5006 37.2721C12.866 37.2721 14.3364 37.1671 15.9643 36.9045C17.5923 36.6419 19.4828 36.3269 21.7409 36.0118C21.2157 42.7861 21.0057 49.5604 21.0057 56.3348H21.5308C30.5107 41.1056 43.2192 33.4911 59.4986 33.4911C63.7522 33.4911 67.9008 34.1213 71.9969 35.3816C76.093 36.6419 79.7691 38.3749 83.0774 40.5805C86.3858 42.7861 89.2216 45.4118 91.6373 48.5627C94.0004 51.7135 95.6283 55.0219 96.4686 58.5929H96.9937C101.09 50.4532 106.709 44.2565 113.798 39.9503C120.888 35.6442 129.027 33.4911 138.27 33.4911C143.889 33.4911 149.14 34.2263 153.919 35.7492C158.698 37.2721 162.846 39.6352 166.365 42.8386C169.883 46.042 172.614 50.1906 174.557 55.2845C176.5 60.3784 177.498 66.47 177.498 73.5594C177.498 76.4477 177.393 79.546 177.235 82.9595C177.078 86.3729 176.868 90.2589 176.71 94.7752C176.553 99.2389 176.343 104.333 176.185 110.004C176.028 115.676 175.923 122.24 175.923 129.645C175.923 134.213 175.923 138.624 176.028 142.878C176.133 147.079 176.343 151.648 176.658 156.584C174.767 156.217 172.929 156.059 171.039 156.059H160.063C158.173 156.059 156.335 156.217 154.444 156.584C154.969 152.331 155.495 143.823 156.125 130.957C156.702 118.144 157.017 100.184 157.017 77.1829C157.017 72.9818 156.545 68.9907 155.6 65.2622C154.654 61.5337 153.131 58.3303 151.083 55.5996C149.035 52.9213 146.305 50.7683 142.891 49.1403C139.478 47.5649 135.172 46.7247 130.025 46.7247C123.881 46.7247 118.63 47.9325 114.376 50.2956C110.07 52.6588 106.761 55.442 104.346 58.6454C102.98 60.4834 101.878 62.3739 101.142 64.2119C100.355 66.1024 99.777 68.9382 99.3568 72.7192C98.9367 76.5002 98.6216 81.8567 98.4641 88.6835C98.3065 95.5629 98.2015 104.963 98.2015 116.936C98.2015 124.183 98.3066 130.852 98.5691 136.839C98.8317 142.826 99.1468 149.39 99.4619 156.479C95.5758 156.112 91.8998 155.954 88.3289 155.954C84.7579 155.954 81.0819 156.112 77.1959 156.479C77.9836 147.184 78.5087 137.732 78.7713 128.069C79.0864 118.459 79.2439 108.954 79.2439 99.659C79.2439 91.7293 79.2439 85.4801 79.1389 81.0689C79.0339 76.5527 78.8238 73.0343 78.5087 70.4086C78.1936 67.7829 77.721 65.6298 77.0908 63.9493C76.5132 62.2689 75.673 60.3784 74.6752 58.3828C72.8372 55.1795 69.8964 52.4487 65.9053 50.1381C61.9142 47.88 57.8181 46.7247 53.5645 46.7247C42.379 46.7247 34.1342 50.3481 28.8828 57.6476C23.6314 64.8946 21.0057 75.1348 21.0057 88.3159V109.847C21.0057 117.461 21.1107 125.443 21.3733 133.793C21.6358 142.143 22.161 149.705 23.0537 156.479C19.1152 156.112 15.2816 155.954 11.5531 155.954C7.82462 155.954 3.99107 156.112 0.0525054 156.479C0.892732 149.705 1.47039 142.143 1.73296 133.793C1.99553 125.443 2.10056 117.409 2.10056 109.847V83.4846C2.10056 75.87 1.99553 67.8879 1.73296 59.5381" fill="black"/>
<path fill-rule="evenodd" clip-rule="evenodd" d="M228.54 117.146C229.801 123.763 232.006 129.592 235.052 134.738C238.098 139.885 242.194 144.033 247.34 147.027C252.434 150.073 258.736 151.596 266.245 151.596C273.755 151.596 280.057 150.073 285.15 147.027C290.244 143.981 294.34 139.885 297.439 134.738C300.537 129.592 302.69 123.71 303.951 117.146C305.211 110.582 305.841 103.703 305.841 96.6131C305.841 89.5237 305.211 82.6969 303.951 76.0801C302.69 69.4633 300.485 63.6342 297.439 58.4353C294.393 53.2889 290.297 49.1928 285.15 46.147C280.057 43.1012 273.702 41.5783 266.245 41.5783C258.788 41.5783 252.434 43.1012 247.34 46.147C242.246 49.1928 238.15 53.2889 235.052 58.4353C231.954 63.5817 229.801 69.4633 228.54 76.0801C227.28 82.6969 226.65 89.5237 226.65 96.6131C226.65 103.703 227.28 110.582 228.54 117.146ZM209.635 67.3102C213.311 59.2756 218.09 52.7638 224.076 47.7749C230.063 42.7861 236.732 39.1626 244.137 36.9045C251.541 34.5939 258.946 33.4911 266.245 33.4911C273.545 33.4911 281.159 34.5939 288.511 36.9045C295.863 39.1626 302.48 42.7861 308.467 47.7749C314.401 52.7638 319.232 59.2756 322.908 67.3102C326.584 75.3449 328.422 85.1125 328.422 96.5606C328.422 108.009 326.584 117.829 322.908 125.864C319.232 133.898 314.401 140.41 308.467 145.399C302.48 150.388 295.863 153.906 288.511 155.902C281.159 157.95 273.755 158.947 266.245 158.947C258.736 158.947 251.541 157.95 244.137 155.902C236.732 153.854 230.011 150.388 224.076 145.399C218.09 140.41 213.311 133.898 209.635 125.864C205.959 117.829 204.121 108.061 204.121 96.5606C204.121 85.06 205.959 75.2924 209.635 67.3102Z" fill="black"/>
<path fill-rule="evenodd" clip-rule="evenodd" d="M359.513 138.414C361.298 140.463 363.451 142.353 365.92 144.139C368.388 145.924 371.224 147.394 374.374 148.55C377.525 149.758 380.886 150.335 384.457 150.335C387.713 150.335 390.811 149.863 393.805 148.812C396.798 147.814 399.424 146.397 401.734 144.506C404.045 142.668 405.883 140.305 407.248 137.417C408.614 134.528 409.296 131.22 409.296 127.492C409.296 122.24 407.826 118.249 404.833 115.466C401.839 112.683 398.163 110.424 393.7 108.639C389.236 106.853 384.405 105.278 379.101 103.965C373.797 102.6 368.965 100.709 364.502 98.2411C360.091 95.7729 356.362 92.5171 353.369 88.4735C350.375 84.4299 348.905 78.8634 348.905 71.7214C348.905 66.1024 349.85 61.0086 351.741 56.3873C353.631 51.7135 356.362 47.7225 359.933 44.309C363.504 40.9481 367.968 38.2699 373.219 36.3269C378.523 34.3839 384.562 33.4386 391.389 33.4386C397.691 33.4386 402.995 34.2788 407.353 35.9593C411.712 37.6397 415.808 39.1626 419.747 40.528C418.381 43.0487 417.121 46.1995 415.913 49.8755C414.705 53.6041 413.97 56.4923 413.603 58.4879H410.557C409.191 54.4443 406.566 50.7683 402.627 47.6174C398.689 44.4141 393.857 42.7861 388.028 42.7861C385.455 42.7861 382.934 43.2062 380.361 44.0465C377.788 44.8867 375.477 46.147 373.429 47.8275C371.381 49.5079 369.701 51.7135 368.335 54.4443C366.97 57.1225 366.287 60.3259 366.287 64.0544C366.287 69.4633 367.758 73.6645 370.751 76.6053C373.744 79.5986 377.42 81.9092 381.884 83.5896C386.295 85.2701 391.179 86.793 396.483 88.0534C401.787 89.3137 406.618 91.0992 411.082 93.3573C415.493 95.6154 419.222 98.8188 422.215 102.862C425.208 106.906 426.679 112.525 426.679 119.614C426.679 124.498 425.628 129.33 423.475 134.056C421.322 138.782 418.276 143.036 414.285 146.869C410.294 150.65 405.463 153.644 399.844 155.744C394.225 157.845 387.818 158.948 380.676 158.948C372.852 158.948 366.287 158.16 360.983 156.689C355.679 155.166 351.268 153.381 347.697 151.385C348.695 149.18 349.798 146.187 350.901 142.353C352.003 138.572 352.581 135.369 352.581 132.848H355.627C356.467 134.528 357.78 136.419 359.618 138.414" fill="black"/>
<path fill-rule="evenodd" clip-rule="evenodd" d="M511.698 95.8254C507.864 96.5081 504.031 97.2433 500.092 97.9785C496.206 98.7662 492.32 99.7115 488.539 100.919C484.705 102.127 481.345 103.703 478.351 105.751C475.41 107.746 472.995 110.267 471.209 113.365C469.424 116.411 468.531 120.297 468.531 125.023C468.531 132.953 470.842 138.94 475.41 143.036C479.979 147.079 485.073 149.127 490.692 149.127C497.151 149.127 503.033 147.342 508.389 143.823C513.746 140.252 517.842 136.156 520.73 131.378L521.728 93.3573C518.84 94.355 515.479 95.1953 511.698 95.8779M479.822 36.5369C486.281 34.4889 492.95 33.4911 499.777 33.4911C505.921 33.4911 511.54 34.3838 516.687 36.1168C521.833 37.9023 526.192 40.423 529.815 43.7314C533.439 47.0398 536.274 51.0308 538.375 55.6521C540.423 60.3258 541.473 65.4197 541.473 71.0387C541.473 80.6488 541.316 90.2589 540.948 99.8165C540.633 109.374 540.423 119.509 540.423 130.117C540.423 132.165 540.423 134.318 540.528 136.576C540.633 138.887 541.001 140.935 541.683 142.668C542.366 144.454 543.364 145.924 544.624 147.079C545.884 148.287 547.827 148.865 550.401 148.865C551.241 148.865 552.134 148.865 553.079 148.76C554.024 148.655 554.917 148.392 555.757 147.867V153.434C553.867 154.274 551.503 154.956 548.72 155.429C545.884 155.902 542.786 156.217 539.373 156.217C533.859 156.217 529.605 154.799 526.664 152.016C523.723 149.232 521.991 145.661 521.465 141.25C515.374 147.342 509.335 151.806 503.348 154.694C497.414 157.582 490.114 159 481.45 159C477.196 159 473.047 158.422 468.951 157.215C464.908 156.007 461.284 154.064 458.133 151.385C454.982 148.655 452.409 145.399 450.466 141.618C448.523 137.837 447.525 133.478 447.525 128.594C447.525 118.459 450.729 110.582 457.083 104.963C463.437 99.3964 472.26 95.6679 483.445 93.8299C492.583 92.307 499.777 90.9941 504.976 89.8913C510.175 88.7885 513.956 87.6332 516.424 86.4779C518.892 85.2701 520.363 83.9047 520.888 82.2768C521.413 80.7013 521.675 78.6008 521.675 76.0801C521.675 71.879 521.15 67.7829 520.153 63.8968C519.102 60.0108 517.527 56.6498 515.269 53.7616C513.063 50.8733 510.122 48.5627 506.551 46.7772C502.98 44.9917 498.622 44.1515 493.528 44.1515C486.701 44.1515 480.347 45.6744 474.465 48.7202C468.584 51.766 464.172 56.0197 461.284 61.4286H458.448V48.2476C466.115 42.5235 473.205 38.585 479.664 36.5894" fill="black"/>
<path fill-rule="evenodd" clip-rule="evenodd" d="M590.417 59.485C590.154 51.1353 589.577 43.2581 588.737 36.0112C593.515 36.8514 597.349 37.2715 600.237 37.2715C603.125 37.2715 606.959 36.8514 611.738 36.0112C610.897 43.2581 610.32 51.1353 610.057 59.485C609.795 67.8348 609.69 75.8694 609.69 83.4315V109.794C609.69 117.408 609.847 125.39 610.057 133.74C610.32 142.09 610.845 149.652 611.738 156.426C607.799 156.059 603.966 155.901 600.237 155.901C596.509 155.901 592.623 156.059 588.737 156.426C589.577 149.652 590.154 142.09 590.417 133.74C590.679 125.39 590.785 117.356 590.785 109.794V83.4315C590.785 75.8169 590.627 67.8348 590.417 59.485Z" fill="black"/>
<path fill-rule="evenodd" clip-rule="evenodd" d="M652.172 68.203C655.901 60.2733 660.837 53.7091 666.876 48.5627C672.915 43.4163 679.899 39.5827 687.724 37.1671C695.549 34.6989 703.583 33.4911 711.776 33.4911C721.123 33.4911 729.525 34.5939 736.982 36.9045C744.387 39.1626 749.691 41.7358 752.947 44.6241C751.739 47.1448 750.689 49.823 749.743 52.6063C748.798 55.3895 748.01 58.3303 747.328 61.3761H745.28C744.072 59.1705 742.444 56.9649 740.396 54.6543C738.348 52.3962 735.932 50.2431 733.096 48.3001C730.261 46.3571 727.162 44.7291 723.749 43.4688C720.335 42.2084 716.607 41.5258 712.511 41.5258C704.844 41.5258 698.227 42.9436 692.713 45.7269C687.146 48.5101 682.63 52.3437 679.164 57.2275C675.646 62.1113 673.125 67.9404 671.497 74.6097C669.869 81.279 669.082 88.526 669.082 96.2981C669.082 113.68 672.81 126.861 680.32 135.736C687.829 144.611 698.805 149.022 713.299 149.022C716.712 149.022 720.178 148.55 723.801 147.657C727.372 146.712 730.891 145.451 734.304 143.876C737.718 142.248 740.921 140.357 743.914 138.152C746.908 135.946 749.481 133.583 751.739 131.062L752.999 131.85C752.159 135.894 751.634 140.042 751.476 144.296C746.382 148.34 740.028 151.806 732.414 154.694C724.799 157.582 716.922 159 708.73 159C701.43 159 694.026 157.95 686.621 155.797C679.217 153.696 672.495 150.125 666.561 145.136C660.574 140.147 655.795 133.688 652.119 125.759C648.443 117.829 646.605 108.114 646.605 96.6131C646.605 85.1125 648.496 76.1851 652.225 68.203" fill="black"/>
<path fill-rule="evenodd" clip-rule="evenodd" d="M612.787 13.588C612.787 20.5724 607.063 26.1914 600.026 26.1914C592.99 26.1914 587.266 20.5198 587.266 13.588C587.266 6.65609 592.99 0.984558 600.026 0.984558C607.063 0.984558 612.787 6.65609 612.787 13.588Z" fill="black"/>
</g>
</g>
</svg>
