<svg width="172" height="40" viewBox="0 0 172 40" fill="none" xmlns="http://www.w3.org/2000/svg">
<path fill-rule="evenodd" clip-rule="evenodd" d="M42.3796 10.0792C42.3344 8.64058 42.2439 7.28342 42.0901 6.03483C42.9134 6.17959 43.5739 6.25198 44.0715 6.25198C44.3068 6.25198 44.5601 6.23388 44.8406 6.18864C45.1211 6.1434 45.4468 6.08912 45.8358 6.03483C45.7454 7.20199 45.7092 8.36914 45.7092 9.5363H45.7997C47.3468 6.91246 49.5364 5.60054 52.3412 5.60054C53.074 5.60054 53.7888 5.70911 54.4945 5.92626C55.2002 6.1434 55.8336 6.44198 56.4036 6.82198C56.9736 7.20199 57.4622 7.65437 57.8784 8.19724C58.2855 8.7401 58.566 9.31011 58.7108 9.92535H58.8012C59.507 8.52296 60.4751 7.45532 61.6965 6.71341C62.918 5.9715 64.3204 5.60054 65.9128 5.60054C66.8809 5.60054 67.7856 5.72721 68.609 5.98959C69.4323 6.25198 70.1471 6.65912 70.7533 7.21104C71.3595 7.76295 71.83 8.47772 72.1647 9.35535C72.4995 10.233 72.6714 11.2825 72.6714 12.504C72.6714 13.0016 72.6533 13.5354 72.6262 14.1235C72.599 14.7116 72.5628 15.3811 72.5357 16.1592C72.5085 16.9283 72.4724 17.8059 72.4452 18.7831C72.4181 19.7602 72.4 20.8912 72.4 22.1669C72.4 22.9541 72.4 23.7141 72.4181 24.447C72.4362 25.1708 72.4724 25.9579 72.5266 26.8084C72.2009 26.7451 71.8842 26.7179 71.5585 26.7179H69.6676C69.3418 26.7179 69.0252 26.7451 68.6995 26.8084C68.7899 26.0755 68.8804 24.6098 68.989 22.3931C69.0885 20.1855 69.1428 17.0912 69.1428 13.1282C69.1428 12.4044 69.0614 11.7168 68.8985 11.0744C68.7356 10.432 68.4733 9.88011 68.1204 9.40963C67.7675 8.9482 67.2971 8.57724 66.709 8.29676C66.1209 8.02533 65.3789 7.88057 64.4923 7.88057C63.4337 7.88057 62.5289 8.08867 61.796 8.49581C61.0541 8.90296 60.4841 9.38249 60.0679 9.9344C59.8327 10.2511 59.6427 10.5768 59.516 10.8935C59.3803 11.2192 59.2808 11.7078 59.2084 12.3592C59.136 13.0106 59.0817 13.9335 59.0546 15.1097C59.0274 16.295 59.0093 17.9145 59.0093 19.9774C59.0093 21.226 59.0274 22.375 59.0727 23.4065C59.1179 24.4379 59.1722 25.5689 59.2265 26.7903C58.5569 26.727 57.9236 26.6998 57.3084 26.6998C56.6931 26.6998 56.0598 26.727 55.3902 26.7903C55.526 25.1889 55.6164 23.5603 55.6617 21.8955C55.716 20.2398 55.7431 18.6021 55.7431 17.0007C55.7431 15.6345 55.7431 14.5578 55.725 13.7978C55.7069 13.0197 55.6707 12.4135 55.6164 11.9611C55.5622 11.5087 55.4807 11.1377 55.3722 10.8482C55.2726 10.5587 55.1279 10.233 54.956 9.88916C54.6393 9.33725 54.1326 8.86677 53.445 8.46867C52.7574 8.07962 52.0516 7.88057 51.3188 7.88057C49.3916 7.88057 47.9711 8.50486 47.0663 9.76249C46.1616 11.0111 45.7092 12.7754 45.7092 15.0464V18.7559C45.7092 20.0679 45.7273 21.4431 45.7725 22.8817C45.8178 24.3203 45.9082 25.6232 46.062 26.7903C45.3835 26.727 44.723 26.6998 44.0806 26.6998C43.4382 26.6998 42.7777 26.727 42.0991 26.7903C42.2439 25.6232 42.3434 24.3203 42.3887 22.8817C42.4339 21.4431 42.452 20.0588 42.452 18.7559V14.214C42.452 12.9021 42.4339 11.5268 42.3887 10.0882" fill="white"/>
<path fill-rule="evenodd" clip-rule="evenodd" d="M81.4657 20.0136C81.6829 21.1536 82.0629 22.1579 82.5877 23.0446C83.1124 23.9312 83.8182 24.646 84.7048 25.1617C85.5825 25.6865 86.6682 25.9489 87.962 25.9489C89.2558 25.9489 90.3416 25.6865 91.2192 25.1617C92.0968 24.637 92.8025 23.9312 93.3364 23.0446C93.8702 22.1579 94.2411 21.1445 94.4583 20.0136C94.6754 18.8826 94.784 17.6973 94.784 16.4759C94.784 15.2545 94.6754 14.0783 94.4583 12.9382C94.2411 11.7982 93.8611 10.7939 93.3364 9.89821C92.8116 9.01153 92.1059 8.30581 91.2192 7.78104C90.3416 7.25627 89.2468 6.99389 87.962 6.99389C86.6772 6.99389 85.5825 7.25627 84.7048 7.78104C83.8272 8.30581 83.1215 9.01153 82.5877 9.89821C82.0538 10.7849 81.6829 11.7982 81.4657 12.9382C81.2486 14.0783 81.14 15.2545 81.14 16.4759C81.14 17.6973 81.2486 18.8826 81.4657 20.0136ZM78.2086 11.4273C78.8419 10.043 79.6652 8.92106 80.6967 8.06152C81.7281 7.20199 82.8772 6.57769 84.1529 6.18864C85.4286 5.79054 86.7044 5.60054 87.962 5.60054C89.2196 5.60054 90.5316 5.79054 91.7982 6.18864C93.0649 6.57769 94.2049 7.20199 95.2364 8.06152C96.2588 8.92106 97.0912 10.043 97.7245 11.4273C98.3578 12.8116 98.6745 14.4945 98.6745 16.4669C98.6745 18.4393 98.3578 20.1312 97.7245 21.5155C97.0912 22.8998 96.2588 24.0217 95.2364 24.8812C94.2049 25.7408 93.0649 26.347 91.7982 26.6908C90.5316 27.0437 89.2558 27.2156 87.962 27.2156C86.6682 27.2156 85.4286 27.0437 84.1529 26.6908C82.8772 26.3379 81.7191 25.7408 80.6967 24.8812C79.6652 24.0217 78.8419 22.8998 78.2086 21.5155C77.5752 20.1312 77.2585 18.4483 77.2585 16.4669C77.2585 14.4854 77.5752 12.8025 78.2086 11.4273Z" fill="white"/>
<path fill-rule="evenodd" clip-rule="evenodd" d="M104.031 23.6779C104.338 24.0308 104.709 24.3565 105.135 24.6641C105.56 24.9717 106.048 25.2251 106.591 25.4241C107.134 25.6322 107.713 25.7317 108.329 25.7317C108.889 25.7317 109.423 25.6503 109.939 25.4694C110.455 25.2974 110.907 25.0532 111.305 24.7274C111.703 24.4108 112.02 24.0036 112.255 23.506C112.49 23.0084 112.608 22.4384 112.608 21.796C112.608 20.8912 112.355 20.2036 111.839 19.724C111.323 19.2445 110.69 18.8555 109.921 18.5478C109.152 18.2402 108.319 17.9688 107.406 17.7426C106.492 17.5074 105.659 17.1816 104.89 16.7564C104.13 16.3311 103.488 15.7702 102.972 15.0735C102.457 14.3768 102.203 13.4178 102.203 12.1873C102.203 11.2192 102.366 10.3416 102.692 9.54535C103.018 8.7401 103.488 8.05248 104.103 7.46438C104.718 6.88532 105.488 6.42389 106.392 6.08912C107.306 5.75435 108.347 5.5915 109.523 5.5915C110.609 5.5915 111.522 5.73626 112.273 6.02579C113.024 6.31531 113.73 6.5777 114.409 6.81294C114.173 7.24723 113.956 7.79009 113.748 8.42343C113.54 9.06582 113.413 9.56345 113.35 9.90726H112.825C112.59 9.21059 112.138 8.57725 111.459 8.03438C110.78 7.48247 109.948 7.20199 108.944 7.20199C108.5 7.20199 108.066 7.27437 107.623 7.41914C107.179 7.5639 106.781 7.78105 106.428 8.07057C106.076 8.3601 105.786 8.7401 105.551 9.21059C105.316 9.67202 105.198 10.2239 105.198 10.8663C105.198 11.7982 105.451 12.5221 105.967 13.0287C106.483 13.5444 107.116 13.9425 107.885 14.2321C108.645 14.5216 109.487 14.784 110.4 15.0011C111.314 15.2183 112.147 15.5259 112.916 15.915C113.676 16.304 114.318 16.8559 114.834 17.5526C115.35 18.2493 115.603 19.2174 115.603 20.4388C115.603 21.2803 115.422 22.1126 115.051 22.9269C114.68 23.7412 114.155 24.4741 113.468 25.1346C112.78 25.786 111.948 26.3017 110.98 26.6637C110.011 27.0256 108.908 27.2156 107.677 27.2156C106.329 27.2156 105.198 27.0798 104.284 26.8265C103.37 26.5641 102.61 26.2565 101.995 25.9127C102.167 25.5327 102.357 25.017 102.547 24.3565C102.737 23.705 102.837 23.1531 102.837 22.7188H103.361C103.506 23.0084 103.732 23.3341 104.049 23.6779" fill="white"/>
<path fill-rule="evenodd" clip-rule="evenodd" d="M130.251 16.3402C129.591 16.4578 128.93 16.5845 128.252 16.7111C127.582 16.8469 126.913 17.0097 126.261 17.2178C125.601 17.4259 125.022 17.6974 124.506 18.0502C123.999 18.394 123.583 18.8283 123.275 19.3621C122.968 19.8869 122.814 20.5564 122.814 21.3707C122.814 22.7369 123.212 23.7684 123.999 24.4741C124.786 25.1708 125.664 25.5236 126.632 25.5236C127.745 25.5236 128.758 25.216 129.681 24.6098C130.604 23.9946 131.31 23.2888 131.807 22.4655L131.979 15.9149C131.482 16.0869 130.903 16.2316 130.251 16.3492M124.759 6.12531C125.872 5.77245 127.021 5.60054 128.197 5.60054C129.256 5.60054 130.224 5.75435 131.111 6.05293C131.997 6.36055 132.748 6.79484 133.373 7.36485C133.997 7.93485 134.485 8.62248 134.847 9.41868C135.2 10.2239 135.381 11.1016 135.381 12.0697C135.381 13.7254 135.354 15.3811 135.291 17.0278C135.236 18.6745 135.2 20.4207 135.2 22.2484C135.2 22.6012 135.2 22.9722 135.218 23.3612C135.236 23.7593 135.3 24.1122 135.417 24.4108C135.535 24.7184 135.707 24.9717 135.924 25.1708C136.141 25.3789 136.476 25.4784 136.919 25.4784C137.064 25.4784 137.218 25.4784 137.381 25.4603C137.544 25.4422 137.697 25.397 137.842 25.3065V26.2655C137.516 26.4103 137.109 26.5279 136.63 26.6094C136.141 26.6908 135.607 26.7451 135.019 26.7451C134.069 26.7451 133.336 26.5008 132.83 26.0213C132.323 25.5417 132.025 24.9265 131.934 24.1665C130.884 25.216 129.844 25.9851 128.813 26.4827C127.79 26.9803 126.533 27.2246 125.04 27.2246C124.307 27.2246 123.592 27.1251 122.886 26.917C122.19 26.7089 121.565 26.3741 121.022 25.9127C120.48 25.4422 120.036 24.8812 119.701 24.2298C119.367 23.5784 119.195 22.8274 119.195 21.986C119.195 20.2398 119.747 18.8826 120.842 17.9145C121.936 16.9554 123.456 16.313 125.383 15.9964C126.958 15.734 128.197 15.5078 129.093 15.3178C129.989 15.1278 130.64 14.9287 131.065 14.7297C131.491 14.5216 131.744 14.2864 131.835 14.0059C131.925 13.7344 131.97 13.3725 131.97 12.9382C131.97 12.2144 131.88 11.5087 131.708 10.8392C131.527 10.1696 131.255 9.59059 130.866 9.09296C130.486 8.59534 129.98 8.19724 129.364 7.88962C128.749 7.58199 127.998 7.43723 127.121 7.43723C125.944 7.43723 124.85 7.69961 123.836 8.22438C122.823 8.74915 122.063 9.48202 121.565 10.4139H121.077V8.14295C122.398 7.15675 123.619 6.47817 124.732 6.13436" fill="white"/>
<path fill-rule="evenodd" clip-rule="evenodd" d="M143.814 10.0792C143.768 8.64058 143.669 7.28342 143.524 6.03483C144.348 6.1796 145.008 6.25198 145.506 6.25198C146.003 6.25198 146.664 6.1796 147.487 6.03483C147.342 7.28342 147.243 8.64058 147.198 10.0792C147.152 11.5178 147.134 12.9021 147.134 14.2049V18.7469C147.134 20.0588 147.161 21.4341 147.198 22.8727C147.243 24.3112 147.333 25.6141 147.487 26.7813C146.808 26.7179 146.148 26.6908 145.506 26.6908C144.863 26.6908 144.194 26.7179 143.524 26.7813C143.669 25.6141 143.768 24.3112 143.814 22.8727C143.859 21.4341 143.877 20.0498 143.877 18.7469V14.2049C143.877 12.893 143.85 11.5178 143.814 10.0792Z" fill="white"/>
<path fill-rule="evenodd" clip-rule="evenodd" d="M154.454 11.5811C155.096 10.2149 155.947 9.08392 156.987 8.19724C158.028 7.31056 159.231 6.65008 160.579 6.23388C161.927 5.80864 163.311 5.60054 164.723 5.60054C166.333 5.60054 167.781 5.79054 169.066 6.18864C170.342 6.57769 171.255 7.02103 171.816 7.51866C171.608 7.95295 171.427 8.41438 171.264 8.89391C171.102 9.37344 170.966 9.88012 170.848 10.4049H170.495C170.287 10.0249 170.007 9.64487 169.654 9.24677C169.301 8.85772 168.885 8.48677 168.396 8.152C167.908 7.81723 167.374 7.53675 166.786 7.31961C166.198 7.10246 165.555 6.98484 164.85 6.98484C163.529 6.98484 162.389 7.22913 161.439 7.70866C160.479 8.18819 159.701 8.84867 159.104 9.69011C158.498 10.5316 158.064 11.5358 157.783 12.6849C157.503 13.834 157.367 15.0826 157.367 16.4216C157.367 19.4164 158.009 21.6874 159.303 23.2165C160.597 24.7455 162.488 25.5055 164.985 25.5055C165.573 25.5055 166.171 25.4241 166.795 25.2703C167.41 25.1074 168.016 24.8903 168.604 24.6189C169.192 24.3384 169.744 24.0127 170.26 23.6327C170.776 23.2527 171.219 22.8455 171.608 22.4112L171.825 22.5469C171.681 23.2436 171.59 23.9584 171.563 24.6912C170.685 25.3879 169.591 25.9851 168.279 26.4827C166.967 26.9803 165.61 27.2246 164.198 27.2246C162.94 27.2246 161.665 27.0437 160.389 26.6727C159.113 26.3108 157.955 25.6955 156.933 24.836C155.901 23.9765 155.078 22.8636 154.445 21.4974C153.811 20.1312 153.495 18.4574 153.495 16.4759C153.495 14.4945 153.82 12.9563 154.463 11.5811" fill="white"/>
<path fill-rule="evenodd" clip-rule="evenodd" d="M147.668 2.17145C147.668 3.3748 146.681 4.34291 145.469 4.34291C144.257 4.34291 143.271 3.36575 143.271 2.17145C143.271 0.977155 144.257 0 145.469 0C146.681 0 147.668 0.977155 147.668 2.17145Z" fill="white"/>
<path fill-rule="evenodd" clip-rule="evenodd" d="M44.0534 38.0366C44.0534 39.2762 44.0715 39.4209 44.7681 39.5114L45.0577 39.5476C45.121 39.6019 45.1029 39.81 45.0396 39.8462C44.4243 39.819 44.0715 39.81 43.6372 39.81C43.1848 39.81 42.7957 39.819 42.3253 39.8462C42.2619 39.81 42.2348 39.62 42.3072 39.5476L42.5334 39.5114C43.1577 39.4209 43.1848 39.2762 43.1848 38.0366V33.6937C43.1848 32.6894 43.1667 32.4904 42.6781 32.4361L42.2891 32.3909C42.2167 32.3185 42.2257 32.1466 42.3072 32.0923C42.8772 32.0109 43.5467 32.0018 44.4424 32.0018C45.3382 32.0018 46.0077 32.1285 46.5144 32.4723C47.012 32.8161 47.3739 33.4223 47.3739 34.2366C47.3739 35.3223 46.7586 35.8561 46.2972 36.1095C45.8267 36.3538 45.2477 36.4623 44.8043 36.4623C44.732 36.4261 44.732 36.2542 44.7953 36.2271C45.9624 35.9919 46.3786 35.2771 46.3786 34.2547C46.3786 33.1147 45.7634 32.3728 44.6415 32.3728C44.0715 32.3728 44.0624 32.418 44.0624 32.798V38.0457L44.0534 38.0366Z" fill="white"/>
<path fill-rule="evenodd" clip-rule="evenodd" d="M52.8569 35.4942C52.8569 35.7023 52.8569 35.838 52.8931 35.8833C52.9293 35.9195 53.0831 35.9376 53.635 35.9376C54.024 35.9376 54.4312 35.8923 54.7479 35.6299C55.0374 35.3857 55.2907 34.9695 55.2907 34.1733C55.2907 33.2413 54.766 32.3637 53.5626 32.3637C52.8931 32.3637 52.8569 32.409 52.8569 32.7437V35.4942ZM51.9702 33.8113C51.9702 32.6894 51.934 32.4904 51.4997 32.4361L51.1559 32.3909C51.0835 32.3275 51.0835 32.1466 51.165 32.0923C51.7712 32.038 52.5131 32.0018 53.5717 32.0018C54.2412 32.0018 54.8745 32.0561 55.3722 32.3547C55.8879 32.6532 56.2679 33.178 56.2679 34.0014C56.2679 35.1233 55.4626 35.7295 54.9198 35.9647C54.8655 36.0371 54.9198 36.1547 54.9741 36.2452C55.8336 37.7652 56.4126 38.7062 57.1455 39.3757C57.3265 39.5476 57.5979 39.6833 57.8874 39.7014C57.9417 39.7286 57.9508 39.819 57.8965 39.8643C57.797 39.9005 57.625 39.9276 57.426 39.9276C56.5122 39.9276 55.9603 39.629 55.1912 38.4438C54.9107 38.0095 54.4674 37.1952 54.1326 36.6704C53.9698 36.408 53.7979 36.2904 53.3636 36.2904C52.875 36.2904 52.8569 36.2995 52.8569 36.5528V38.0366C52.8569 39.2762 52.875 39.4119 53.5083 39.5114L53.7345 39.5476C53.7979 39.6019 53.7798 39.81 53.7164 39.8462C53.2278 39.819 52.8659 39.81 52.4317 39.81C51.9793 39.81 51.5902 39.819 51.0835 39.8462C51.0202 39.81 50.9931 39.6381 51.0654 39.5476L51.3369 39.5114C51.9612 39.43 51.9883 39.2762 51.9883 38.0366V33.8113H51.9702Z" fill="white"/>
<path fill-rule="evenodd" clip-rule="evenodd" d="M67.0436 36.2542C67.0436 34.309 66.2565 32.219 64.1936 32.219C63.0717 32.219 61.615 33.0513 61.615 35.6299C61.615 37.3671 62.3931 39.629 64.5193 39.629C65.8131 39.629 67.0436 38.5705 67.0436 36.2542ZM60.5383 36.0009C60.5383 33.6485 62.1579 31.848 64.3746 31.848C66.8627 31.848 68.1203 33.8114 68.1203 35.8833C68.1203 38.2628 66.4555 39.9909 64.3746 39.9909C61.9769 39.9909 60.5383 38.1181 60.5383 36.0009Z" fill="white"/>
<path fill-rule="evenodd" clip-rule="evenodd" d="M73.757 38.0366C73.757 39.2762 73.7751 39.4209 74.4718 39.5114L74.7613 39.5476C74.8246 39.6019 74.8065 39.81 74.7432 39.8462C74.1279 39.819 73.7751 39.81 73.3408 39.81C72.8884 39.81 72.4994 39.819 72.0289 39.8462C71.9655 39.81 71.9474 39.62 72.0108 39.5476L72.237 39.5114C72.8613 39.4209 72.8884 39.2762 72.8884 38.0366V33.6937C72.8884 32.6894 72.8703 32.4904 72.3817 32.4361L71.9927 32.3909C71.9203 32.3185 71.9293 32.1466 72.0108 32.0923C72.5808 32.0109 73.2503 32.0018 74.146 32.0018C75.0418 32.0018 75.7113 32.1285 76.218 32.4723C76.7156 32.8161 77.0775 33.4223 77.0775 34.2366C77.0775 35.3223 76.4623 35.8561 76.0008 36.1095C75.5303 36.3538 74.9513 36.4623 74.508 36.4623C74.4356 36.4261 74.4356 36.2542 74.4989 36.2271C75.6661 35.9919 76.0823 35.2771 76.0823 34.2547C76.0823 33.1147 75.467 32.3728 74.3451 32.3728C73.7751 32.3728 73.766 32.418 73.766 32.798V38.0457L73.757 38.0366Z" fill="white"/>
<path fill-rule="evenodd" clip-rule="evenodd" d="M81.5471 33.8023C81.5471 32.5809 81.529 32.3999 80.8866 32.3185L80.7147 32.2913C80.6514 32.2461 80.6695 32.0289 80.7328 32.0018C81.1942 32.0289 81.5652 32.038 82.0085 32.038H84.0352C84.7228 32.038 85.3652 32.038 85.4919 32.0018C85.5552 32.2009 85.6186 33.0513 85.6638 33.5671C85.6186 33.6394 85.4466 33.6575 85.3924 33.5942C85.2295 33.0423 85.13 32.6261 84.569 32.4723C84.3428 32.418 83.999 32.3999 83.5195 32.3999H82.7414C82.4157 32.3999 82.4157 32.4271 82.4157 32.8704V35.2228C82.4157 35.5485 82.4519 35.5485 82.7685 35.5485H83.3928C83.8452 35.5485 84.18 35.5214 84.3066 35.4761C84.4333 35.4309 84.5147 35.3585 84.569 35.0599L84.6595 34.5804C84.7138 34.508 84.8947 34.508 84.94 34.5895C84.94 34.8699 84.8947 35.3314 84.8947 35.7747C84.8947 36.2 84.94 36.6433 84.94 36.9057C84.8947 36.9871 84.7138 36.9871 84.6595 36.9147L84.56 36.4533C84.5147 36.2452 84.4423 36.0642 84.2252 36.0099C84.0714 35.9647 83.8181 35.9557 83.3928 35.9557H82.7685C82.4428 35.9557 82.4157 35.9647 82.4157 36.2723V37.9281C82.4157 38.5524 82.4519 38.9505 82.6238 39.1495C82.7504 39.2943 82.9766 39.4209 83.9266 39.4209C84.759 39.4209 85.0666 39.3757 85.3109 39.249C85.5009 39.1314 85.7995 38.7152 86.08 38.109C86.1524 38.0457 86.3062 38.0819 86.3514 38.1904C86.279 38.6066 86.0076 39.5114 85.8628 39.8281C84.8947 39.8009 83.9357 39.7919 82.9676 39.7919H81.9995C81.538 39.7919 81.1671 39.8009 80.5337 39.8281C80.4704 39.7919 80.4433 39.6019 80.5156 39.5295L80.8685 39.4933C81.4837 39.439 81.538 39.2581 81.538 38.0185V33.7842L81.5471 33.8023Z" fill="white"/>
<path fill-rule="evenodd" clip-rule="evenodd" d="M91.6083 35.4942C91.6083 35.7023 91.6083 35.838 91.6445 35.8833C91.6807 35.9195 91.8345 35.9376 92.3864 35.9376C92.7755 35.9376 93.1826 35.8923 93.4993 35.6299C93.7888 35.3857 94.0422 34.9695 94.0422 34.1733C94.0422 33.2413 93.5174 32.3637 92.3141 32.3637C91.6445 32.3637 91.6083 32.409 91.6083 32.7437V35.4942ZM90.7307 33.8113C90.7307 32.6894 90.6945 32.4904 90.2602 32.4361L89.9164 32.3909C89.844 32.3275 89.844 32.1466 89.9255 32.0923C90.5317 32.038 91.2736 32.0018 92.3322 32.0018C93.0017 32.0018 93.635 32.0561 94.1327 32.3547C94.6484 32.6532 95.0284 33.178 95.0284 34.0014C95.0284 35.1233 94.2231 35.7295 93.6803 35.9647C93.626 36.0371 93.6803 36.1547 93.7346 36.2452C94.5941 37.7652 95.1731 38.7062 95.906 39.3757C96.087 39.5476 96.3584 39.6833 96.6479 39.7014C96.7022 39.7286 96.7113 39.819 96.657 39.8643C96.5574 39.9005 96.3855 39.9276 96.1865 39.9276C95.2727 39.9276 94.7208 39.629 93.9517 38.4438C93.6712 38.0095 93.2279 37.1952 92.8931 36.6704C92.7303 36.408 92.5584 36.2904 92.1241 36.2904C91.6355 36.2904 91.6174 36.2995 91.6174 36.5528V38.0366C91.6174 39.2762 91.6355 39.4119 92.2688 39.5114L92.495 39.5476C92.5584 39.6019 92.5403 39.81 92.4769 39.8462C91.9883 39.819 91.6264 39.81 91.1921 39.81C90.7398 39.81 90.3507 39.819 89.844 39.8462C89.7807 39.81 89.7536 39.6381 89.8259 39.5476L90.0974 39.5114C90.7217 39.43 90.7488 39.2762 90.7488 38.0366V33.8113H90.7307Z" fill="white"/>
<path fill-rule="evenodd" clip-rule="evenodd" d="M102.664 38.0366C102.664 39.2762 102.683 39.4481 103.316 39.5114L103.66 39.5476C103.723 39.5928 103.705 39.81 103.642 39.8462C103.026 39.819 102.655 39.81 102.23 39.81C101.805 39.81 101.425 39.819 100.728 39.8462C100.665 39.81 100.638 39.6109 100.728 39.5476L101.117 39.5114C101.733 39.4571 101.787 39.2762 101.787 38.0366V32.7799C101.787 32.418 101.787 32.3999 101.461 32.3999H100.864C100.403 32.3999 99.8054 32.4271 99.5339 32.6985C99.2716 32.9609 99.163 33.2142 99.0454 33.5128C98.9549 33.5852 98.8101 33.5218 98.7649 33.4313C98.9368 32.9066 99.0997 32.1466 99.172 31.6761C99.2082 31.6489 99.3439 31.6399 99.3801 31.6761C99.4435 32.0561 99.7963 32.038 100.294 32.038H104.664C105.243 32.038 105.343 32.0109 105.505 31.7123C105.56 31.6851 105.677 31.7032 105.695 31.7485C105.578 32.228 105.505 33.1871 105.533 33.5399C105.487 33.6304 105.306 33.6304 105.252 33.5671C105.216 33.2685 105.144 32.8342 104.981 32.7075C104.736 32.5085 104.32 32.409 103.732 32.409H102.963C102.637 32.409 102.646 32.418 102.646 32.8071V38.0457L102.664 38.0366Z" fill="white"/>
<path fill-rule="evenodd" clip-rule="evenodd" d="M112.454 38.0185C112.454 39.2762 112.517 39.4662 113.105 39.5114L113.513 39.5476C113.576 39.62 113.558 39.81 113.494 39.8462C112.825 39.819 112.463 39.81 112.029 39.81C111.576 39.81 111.187 39.819 110.617 39.8462C110.554 39.81 110.527 39.62 110.599 39.5476L110.934 39.5114C111.558 39.439 111.585 39.2762 111.585 38.0185V37.4214C111.585 36.77 111.549 36.6252 111.242 35.9647L109.966 33.2594C109.595 32.4813 109.441 32.427 109.115 32.3637L108.817 32.3004C108.753 32.219 108.762 32.0561 108.835 32.0109C109.179 32.038 109.568 32.047 110.083 32.047C110.599 32.047 110.97 32.038 111.242 32.0109C111.341 32.047 111.341 32.237 111.278 32.3004L111.142 32.3275C110.762 32.3818 110.69 32.4451 110.69 32.5356C110.69 32.6532 110.97 33.3228 111.024 33.4404C111.423 34.309 111.821 35.2409 112.246 36.0552C112.581 35.4309 112.933 34.7523 113.259 34.0647C113.558 33.4494 113.965 32.6532 113.965 32.5085C113.965 32.4361 113.775 32.3547 113.513 32.3185L113.323 32.2913C113.25 32.2099 113.259 32.047 113.341 32.0018C113.73 32.0289 114.046 32.038 114.372 32.038C114.698 32.038 115.005 32.0289 115.376 32.0018C115.467 32.0561 115.476 32.228 115.394 32.2913L115.096 32.3547C114.535 32.4632 114.209 33.2052 113.675 34.2095L112.997 35.4942C112.526 36.39 112.49 36.4985 112.49 37.4033V38.0185H112.454Z" fill="white"/>
<path fill-rule="evenodd" clip-rule="evenodd" d="M130.468 38.6067C130.468 39.0771 130.532 39.3576 130.731 39.439C130.767 39.4752 130.767 39.5476 130.722 39.5838C130.595 39.5838 130.396 39.629 130.197 39.6924C129.627 39.8552 128.849 40 128.27 40C126.985 40 125.809 39.6109 124.976 38.6971C124.325 37.9914 123.981 37.0595 123.981 36.028C123.981 34.9966 124.28 34.0195 124.949 33.2414C125.673 32.418 126.741 31.8661 128.369 31.8661C128.984 31.8661 129.554 31.9928 129.735 32.038C129.943 32.0832 130.278 32.1647 130.405 32.1466C130.405 32.5356 130.468 33.1509 130.568 33.8566C130.532 33.9471 130.342 33.9652 130.278 33.8928C129.98 32.6261 129.165 32.219 128.071 32.219C125.981 32.219 125.058 33.8385 125.058 35.6028C125.058 37.8647 126.125 39.6381 128.297 39.6381C128.966 39.6381 129.364 39.4843 129.482 39.2852C129.536 39.2038 129.591 38.9867 129.591 38.6157V38.1452C129.591 37.159 129.554 37.0866 128.885 37.0052L128.414 36.9509C128.324 36.9057 128.342 36.6885 128.414 36.6523C128.731 36.6795 129.319 36.6885 129.952 36.6885C130.378 36.6885 130.74 36.6795 131.092 36.6523C131.165 36.6976 131.183 36.8785 131.102 36.9509L130.93 36.9781C130.477 37.0414 130.468 37.3671 130.468 37.9643V38.6247V38.6067Z" fill="white"/>
<path fill-rule="evenodd" clip-rule="evenodd" d="M136.675 35.4942C136.675 35.7023 136.675 35.838 136.711 35.8833C136.747 35.9195 136.901 35.9376 137.453 35.9376C137.842 35.9376 138.249 35.8923 138.566 35.6299C138.855 35.3857 139.109 34.9695 139.109 34.1733C139.109 33.2413 138.584 32.3637 137.381 32.3637C136.711 32.3637 136.684 32.409 136.684 32.7437V35.4942H136.675ZM135.788 33.8113C135.788 32.6894 135.752 32.4904 135.318 32.4361L134.974 32.3909C134.902 32.3275 134.902 32.1466 134.983 32.0923C135.589 32.038 136.331 32.0018 137.39 32.0018C138.059 32.0018 138.693 32.0561 139.19 32.3547C139.706 32.6532 140.086 33.178 140.086 34.0014C140.086 35.1233 139.281 35.7295 138.738 35.9647C138.684 36.0371 138.738 36.1547 138.792 36.2452C139.652 37.7652 140.231 38.7062 140.964 39.3757C141.145 39.5476 141.416 39.6833 141.706 39.7014C141.76 39.7286 141.769 39.819 141.715 39.8643C141.615 39.9005 141.443 39.9276 141.244 39.9276C140.33 39.9276 139.778 39.629 139.009 38.4438C138.729 38.0095 138.286 37.1952 137.951 36.6704C137.788 36.408 137.616 36.2904 137.182 36.2904C136.693 36.2904 136.675 36.2995 136.675 36.5528V38.0366C136.675 39.2762 136.693 39.4119 137.326 39.5114L137.553 39.5476C137.616 39.6019 137.598 39.81 137.535 39.8462C137.046 39.819 136.684 39.81 136.25 39.81C135.797 39.81 135.408 39.819 134.902 39.8462C134.838 39.81 134.811 39.6381 134.884 39.5476L135.155 39.5114C135.779 39.43 135.806 39.2762 135.806 38.0366V33.8113H135.788Z" fill="white"/>
<path fill-rule="evenodd" clip-rule="evenodd" d="M150.862 36.2542C150.862 34.309 150.075 32.219 148.012 32.219C146.89 32.219 145.433 33.0513 145.433 35.6299C145.433 37.3671 146.211 39.629 148.337 39.629C149.631 39.629 150.862 38.5705 150.862 36.2542ZM144.356 36.0009C144.356 33.6485 145.976 31.848 148.193 31.848C150.681 31.848 151.938 33.8114 151.938 35.8833C151.938 38.2628 150.274 39.9909 148.193 39.9909C145.795 39.9909 144.356 38.1181 144.356 36.0009Z" fill="white"/>
<path fill-rule="evenodd" clip-rule="evenodd" d="M161.846 34.9876C161.846 34.2547 161.828 32.9066 161.638 32.5537C161.565 32.409 161.366 32.3275 161.095 32.3094L160.823 32.2823C160.76 32.2009 160.778 32.047 160.841 32.0018C161.249 32.029 161.647 32.038 162.072 32.038C162.524 32.038 162.814 32.029 163.203 32.0018C163.293 32.0561 163.275 32.2099 163.221 32.2823L162.959 32.3094C162.687 32.3366 162.488 32.4361 162.416 32.5899C162.262 32.979 162.262 34.3271 162.262 34.9876V36.3176C162.262 37.34 162.108 38.4257 161.511 39.1314C161.05 39.6833 160.244 39.991 159.448 39.991C158.706 39.991 157.955 39.8371 157.43 39.3395C156.86 38.8238 156.589 37.9643 156.589 36.5619V33.7842C156.589 32.5628 156.571 32.3637 155.938 32.3004L155.666 32.2732C155.603 32.228 155.621 32.029 155.684 31.9928C156.227 32.0199 156.589 32.029 157.023 32.029C157.458 32.029 157.819 32.0199 158.353 31.9928C158.417 32.029 158.444 32.228 158.371 32.2732L158.109 32.3004C157.485 32.3547 157.467 32.5628 157.467 33.7842V36.3266C157.467 38.2176 158.009 39.4662 159.656 39.4662C161.221 39.4662 161.819 38.1271 161.819 36.3357V34.9785L161.846 34.9876Z" fill="white"/>
<path fill-rule="evenodd" clip-rule="evenodd" d="M168.505 38.0366C168.505 39.2762 168.523 39.4209 169.22 39.5114L169.509 39.5476C169.572 39.6019 169.554 39.81 169.491 39.8462C168.876 39.819 168.523 39.81 168.089 39.81C167.636 39.81 167.247 39.819 166.777 39.8462C166.713 39.81 166.695 39.62 166.759 39.5476L166.985 39.5114C167.609 39.4209 167.636 39.2762 167.636 38.0366V33.6937C167.636 32.6894 167.618 32.4904 167.13 32.4361L166.74 32.3909C166.668 32.3185 166.677 32.1466 166.759 32.0923C167.329 32.0109 167.998 32.0018 168.894 32.0018C169.79 32.0018 170.459 32.1285 170.966 32.4723C171.463 32.8161 171.825 33.4223 171.825 34.2366C171.825 35.3223 171.21 35.8561 170.749 36.1095C170.278 36.3538 169.699 36.4623 169.256 36.4623C169.183 36.4261 169.183 36.2542 169.247 36.2271C170.414 35.9919 170.83 35.2771 170.83 34.2547C170.83 33.1147 170.215 32.3728 169.093 32.3728C168.523 32.3728 168.514 32.418 168.514 32.798V38.0457L168.505 38.0366Z" fill="white"/>
<path fill-rule="evenodd" clip-rule="evenodd" d="M0 39.5386H13.0921V25.3879H0V39.5386Z" fill="#1A3668"/>
<path fill-rule="evenodd" clip-rule="evenodd" d="M4.27051 25.6594H25.777V5.77245H4.27051V25.6594Z" fill="white"/>
<path fill-rule="evenodd" clip-rule="evenodd" d="M25.7769 20.3845H29.9207V16.2859H25.7769V20.3845Z" fill="#646464"/>
<path fill-rule="evenodd" clip-rule="evenodd" d="M13.092 39.81H34.3271V20.3302H13.092V39.81Z" fill="#C4C3C3"/>
</svg>
