<svg xmlns="http://www.w3.org/2000/svg" width="133" height="66" viewBox="0 0 133 66" fill="none"><path d="M127.29 33.3159C127.29 27.6867 125.911 23.1488 123.097 19.5875C120.282 16.0836 116.721 14.3029 112.355 14.3029C107.99 14.3029 107.875 14.7624 106.209 15.6815C104.256 16.7728 102.762 18.1514 101.728 19.8747V9.01828C101.728 7.75457 101.269 6.66319 100.35 5.74413C99.4308 4.82507 98.282 4.36554 97.0183 4.36554H92.2506V15.1071H85.3003L73.4099 28.4334V9.01828C73.4099 7.86946 72.9504 6.77807 72.0313 5.91645C71.1123 4.99739 69.9634 4.53786 68.6997 4.53786H63.6449V18.9556C65.2533 20.9661 66.1723 23.3786 66.2872 26.1932V26.5953H63.6449V31.9373C64.047 32.2245 64.6214 32.6266 64.9661 32.8564C66.8042 34.5796 67.6083 36.9347 67.6083 39.7494C67.6083 42.564 66.2298 46.4125 63.6449 48.5953V51.2376H73.4099V37.5091C73.4099 36.7624 73.9269 36.2454 74.9608 35.9008C75.9948 35.5561 77.201 36.5901 78.5796 39.0026L85.4151 51.2376H97.1332L83.6919 29.0078L92.1932 20.1619V35.5561C92.1932 41.9896 94.0888 46.3551 97.9373 48.5953C101.786 50.8355 105.922 51.9843 110.402 51.9843C114.882 51.9843 115.112 51.5822 117.467 50.8355C119.822 50.0888 121.718 48.8251 123.154 47.1018C125.969 43.5979 127.347 39.0026 127.347 33.3734L127.29 33.3159ZM117.64 32.9138C117.64 36.5326 116.95 39.2898 115.514 41.1854C114.136 43.0809 112.125 44.0574 109.483 44.0574C106.841 44.0574 105.003 43.0809 103.624 41.1854C102.303 39.4621 101.671 36.705 101.671 32.9138C101.671 29.1227 102.36 27.0548 103.796 25.1593C105.175 23.3786 107.185 22.4595 109.828 22.4595C112.47 22.4595 114.136 23.436 115.572 25.3316C116.95 27.1697 117.697 29.6971 117.697 32.9138H117.64ZM65.8277 26.2507C65.6553 22.6893 64.2193 19.7598 61.5196 17.5196C58.6475 15.4517 54.8564 14.4178 50.0313 14.4178C45.2063 14.4178 41.9896 15.4517 39.2324 17.5196C37.7963 18.7259 36.705 20.1044 36.0731 21.6554C35.3838 20.1044 34.2924 18.6684 32.8564 17.5196C29.9843 15.4517 26.1932 14.4178 21.3681 14.4178C16.5431 14.4178 13.3264 15.4517 10.5692 17.5196C7.86945 19.7598 6.5483 22.5744 6.5483 25.9635C6.5483 29.3525 7.46736 30.7885 9.30548 32.3969C10.9713 34.0052 14.2454 35.3838 19.1279 36.5326C19.9321 36.8198 21.1958 37.0496 22.8616 37.3368C26.7102 38.141 28.6632 39.3473 28.6632 40.9556C28.6632 42.564 28.0888 42.8512 26.9974 43.483C25.7911 44.1149 24.3551 44.4021 22.6893 44.4021C21.0235 44.4021 18.5535 43.9426 17.1749 43.0809C15.9112 42.1619 15.1645 40.8407 15.107 39.0601H5.85901V39.4621C5.85901 43.4256 7.18016 46.4125 9.8799 48.423C12.4648 50.4909 16.3708 51.5248 21.5979 51.5248C26.8251 51.5248 31.248 50.5483 34.0052 48.5953C34.9243 47.906 35.7285 47.1593 36.3603 46.2977C36.9347 47.1018 37.624 47.8486 38.4282 48.4804C41.0131 50.5483 44.9191 51.5823 50.1462 51.5823C55.3734 51.5823 59.7963 50.6057 62.5535 48.6527C65.483 46.5274 66.9765 43.483 66.9765 39.5196C66.9765 35.5561 66.1149 34.6945 64.3342 33.0862C62.4961 31.5927 59.2219 30.0992 54.5117 29.0653C54.1097 28.9504 53.6501 28.893 53.248 28.7781C52.8459 28.6632 52.5587 28.6632 51.9269 28.4909C47.1593 27.5144 44.7467 26.3081 44.7467 24.8721C44.7467 23.436 45.1488 22.9765 46.0104 22.4595C46.9295 21.9426 48.3081 21.6554 50.1462 21.6554C51.9843 21.6554 53.5927 22.0574 54.6841 22.8616C55.0287 23.2063 55.4308 23.5509 55.7755 23.953C56.6945 25.5039 58.0157 26.2507 59.7963 26.2507H65.7128H65.8277ZM47.8486 36.5901C48.6527 36.8773 49.9164 37.1071 51.5822 37.3943C55.4308 38.1984 57.3838 39.4047 57.3838 41.0131C57.3838 42.6214 56.8094 42.9086 55.718 43.5405C54.5117 44.1723 53.0757 44.4595 51.4099 44.4595C49.7441 44.4595 47.2742 44 45.8956 43.1384C44.6319 42.2193 43.8851 40.8982 43.8277 39.1175H38.4282C38.3708 36.6475 37.4517 34.6371 35.8433 33.0862C34.0052 31.5927 30.7311 30.0992 26.0209 29.0653C25.6188 28.9504 25.1593 28.893 24.7572 28.7781C24.3551 28.6632 24.0679 28.6632 23.436 28.4909C18.6684 27.5144 16.2559 26.3081 16.2559 24.8721C16.2559 23.436 16.658 22.9765 17.5196 22.4595C18.4386 21.9426 19.8172 21.6554 21.6554 21.6554C23.4935 21.6554 25.1018 22.0574 26.1932 22.8616C26.5379 23.2063 26.9399 23.5509 27.2846 23.953C28.2037 25.5039 29.5248 26.2507 31.3055 26.2507H35.3264C35.3838 28.8355 36.3029 30.846 38.0835 32.3969C39.7493 34.0052 43.0235 35.3838 47.906 36.5326L47.8486 36.5901Z" fill="#E63E2F"></path><path d="M127.922 58.1306H128.439C128.439 57.7285 128.266 57.3838 127.979 57.1541C127.692 56.9243 127.347 56.8094 126.888 56.8094C126.428 56.8094 126.141 56.9243 125.911 57.0966C125.624 57.3264 125.452 57.6136 125.452 57.9582C125.452 58.3029 125.681 58.705 126.141 58.8773C126.543 58.9922 127.003 59.1071 127.405 59.2219C127.864 59.3368 128.094 59.5666 128.094 59.8538C128.094 60.141 127.979 60.3133 127.692 60.4282C127.52 60.5431 127.232 60.6005 126.945 60.6005C126.658 60.6005 126.371 60.4856 126.198 60.3133C125.969 60.141 125.854 59.9112 125.854 59.624H125.337C125.337 60.0836 125.509 60.4282 125.796 60.658C126.084 60.8877 126.486 61.0026 126.945 61.0026C127.405 61.0026 127.692 60.8877 128.037 60.7154C128.381 60.4856 128.554 60.1984 128.554 59.7964C128.554 59.3943 128.324 59.0496 127.864 58.8199C127.462 58.705 127.003 58.5901 126.601 58.4752C126.141 58.3603 125.911 58.1306 125.911 57.7859C125.911 57.4413 126.026 57.3838 126.198 57.2689C126.371 57.1541 126.601 57.0966 126.83 57.0966C127.06 57.0966 127.405 57.1541 127.577 57.3264C127.807 57.4987 127.922 57.7285 127.922 58.0157V58.1306ZM124.36 61.1175C124.533 61.1175 124.705 61.1175 124.935 61.0601V60.658C124.705 60.658 124.533 60.7154 124.475 60.7154C124.36 60.7154 124.245 60.7154 124.188 60.6005C124.188 60.6005 124.188 60.4282 124.188 60.3133V57.3838H124.935V56.9817H124.188V55.8329H123.728V56.9817H123.154V57.3838H123.728V60.3133C123.728 60.6005 123.728 60.7729 123.843 60.8877C123.958 61.0601 124.131 61.1175 124.418 61.1175H124.36ZM122.407 57.3264V56.8668C121.775 56.8668 121.316 57.1541 121.086 57.671V56.9817H120.627V61.0026H121.086V58.7624C121.086 57.8433 121.546 57.3264 122.407 57.3264ZM116.836 59.0496H119.937C119.937 57.5561 119.363 56.8094 118.157 56.8094C116.95 56.8094 117.065 57.0392 116.778 57.4413C116.491 57.8433 116.376 58.3029 116.376 58.9347C116.376 59.5666 116.491 60.0261 116.778 60.4282C117.123 60.8303 117.582 61.0601 118.157 61.0601C118.731 61.0601 119.018 60.9452 119.306 60.7154C119.65 60.4856 119.822 60.141 119.88 59.6815H119.42C119.42 59.9687 119.248 60.1984 119.018 60.3708C118.789 60.5431 118.501 60.6005 118.214 60.6005C117.927 60.6005 117.41 60.4282 117.18 60.0836C116.95 59.7964 116.836 59.3943 116.836 58.9922V59.0496ZM116.836 58.705C116.836 58.3029 116.95 57.9582 117.18 57.7285C117.41 57.4413 117.755 57.3264 118.157 57.3264C118.559 57.3264 118.903 57.4413 119.133 57.7285C119.363 57.9582 119.42 58.3029 119.478 58.705H116.893H116.836ZM115.514 60.4856C115.802 60.0836 115.974 59.624 115.974 58.9922C115.974 58.3603 115.802 57.9008 115.514 57.4987C115.17 57.0966 114.71 56.8668 114.136 56.8668C113.561 56.8668 112.987 57.1541 112.7 57.671V56.9243H112.24V62.611H112.7V60.2559C113.044 60.7729 113.504 61.0601 114.136 61.0601C114.768 61.0601 115.227 60.8303 115.572 60.4282L115.514 60.4856ZM115.457 58.9922C115.457 59.5091 115.342 59.9112 115.17 60.1984C114.94 60.5431 114.538 60.7154 114.078 60.7154C113.619 60.7154 113.217 60.5431 112.987 60.1984C112.757 59.9112 112.7 59.5091 112.7 58.9922C112.7 58.4752 112.815 58.0731 112.987 57.7859C113.217 57.4413 113.619 57.2689 114.078 57.2689C114.538 57.2689 114.94 57.4413 115.17 57.7859C115.399 58.0731 115.514 58.4752 115.514 58.9922H115.457ZM111.781 61.0026L110.287 58.9347L111.666 56.9817H111.091L110 58.5901L108.909 56.9817H108.334L109.713 58.9347L108.277 61.0026H108.851L110.057 59.2794L111.264 61.0026H111.838H111.781ZM105.06 59.0496H108.162C108.162 57.5561 107.587 56.8094 106.381 56.8094C105.175 56.8094 105.29 57.0392 105.003 57.4413C104.715 57.8433 104.601 58.3029 104.601 58.9347C104.601 59.5666 104.715 60.0261 105.003 60.4282C105.347 60.8303 105.807 61.0601 106.381 61.0601C106.956 61.0601 107.243 60.9452 107.53 60.7154C107.875 60.4856 108.047 60.141 108.104 59.6815H107.645C107.645 59.9687 107.473 60.1984 107.243 60.3708C107.013 60.5431 106.726 60.6005 106.439 60.6005C106.151 60.6005 105.634 60.4282 105.405 60.0836C105.175 59.7964 105.06 59.3943 105.06 58.9922V59.0496ZM105.06 58.705C105.06 58.3029 105.175 57.9582 105.405 57.7285C105.634 57.4413 105.979 57.3264 106.381 57.3264C106.783 57.3264 107.071 57.4413 107.358 57.7285C107.587 57.9582 107.645 58.3029 107.702 58.705H105.118H105.06ZM100.58 61.8068L102.418 56.9817H101.901L100.58 60.4282L99.2585 56.9817H98.7415L100.35 61.0601C100.235 61.2898 100.178 61.577 100.063 61.8068C99.8904 62.094 99.718 62.2663 99.4308 62.2663H99.0862V62.6684C99.2011 62.6684 99.316 62.6684 99.4308 62.6684C99.718 62.6684 99.9478 62.611 100.12 62.4386C100.292 62.3238 100.407 62.094 100.522 61.8068H100.58ZM97.4778 61.1175C97.6502 61.1175 97.8225 61.1175 98.0522 61.0601V60.658C97.8225 60.658 97.6501 60.7154 97.5927 60.7154C97.4778 60.7154 97.3629 60.7154 97.3055 60.6005C97.3055 60.6005 97.3055 60.4282 97.3055 60.3133V57.3838H98.0522V56.9817H97.3055V55.8329H96.846V56.9817H96.2716V57.3838H96.846V60.3133C96.846 60.6005 96.846 60.7729 96.9609 60.8877C97.0757 61.0601 97.2481 61.1175 97.5353 61.1175H97.4778ZM95.2376 61.0026H95.6972V56.9817H95.2376V61.0026ZM95.2376 56.1201H95.6972V55.4308H95.2376V56.1201ZM93.859 61.0026H94.3186V58.4178C94.3186 57.9008 94.2037 57.4987 94.0313 57.2689C93.8016 56.9817 93.4569 56.8668 92.8825 56.8668C92.3081 56.8668 91.7911 57.0966 91.5039 57.6136V56.9817H91.0444V61.0026H91.5039V58.6475C91.5039 58.2454 91.6188 57.9008 91.8486 57.671C92.0783 57.3838 92.3656 57.2689 92.7676 57.2689C93.1697 57.2689 93.4569 57.3838 93.6293 57.5561C93.7441 57.7285 93.8016 58.0157 93.8016 58.4752V61.0026H93.859ZM89.7807 61.0026H90.2402V56.9817H89.7807V59.3943C89.7807 59.7964 89.6658 60.141 89.4361 60.3708C89.2063 60.6005 88.8616 60.7729 88.4596 60.7729C88.0575 60.7729 87.8277 60.658 87.6554 60.4856C87.5405 60.3133 87.4256 60.0261 87.4256 59.624V57.0392H86.9661V59.7389C86.9661 60.7154 87.4256 61.1749 88.3447 61.1749C89.2637 61.1749 89.4361 60.9452 89.7233 60.4282V61.0601L89.7807 61.0026ZM85.6449 61.0026H86.1045V58.188C86.1045 57.3264 85.6449 56.8668 84.7833 56.8668C83.9217 56.8668 83.7494 57.1541 83.4622 57.671C83.3473 57.1541 82.9452 56.8668 82.2559 56.8668C81.5666 56.8668 81.222 57.0966 80.9347 57.6136V56.9243H80.4752V60.9452H80.9347V58.4752C80.9347 58.1306 81.0496 57.8433 81.2794 57.6136C81.5092 57.3838 81.7964 57.2689 82.141 57.2689C82.7154 57.2689 83.0026 57.6136 83.0026 58.2454V61.0026H83.4622V58.4752C83.4622 58.1306 83.577 57.8433 83.8068 57.6136C84.0366 57.3838 84.3238 57.2689 84.6684 57.2689C85.0131 57.2689 85.2428 57.3264 85.3577 57.4987C85.4726 57.671 85.53 57.9008 85.53 58.188V60.9452L85.6449 61.0026ZM79.2115 61.0026H79.671V58.188C79.671 57.3264 79.2115 56.8668 78.3499 56.8668C77.4883 56.8668 77.316 57.1541 77.0287 57.671C76.9139 57.1541 76.5118 56.8668 75.8225 56.8668C75.1332 56.8668 74.7885 57.0966 74.5013 57.6136V56.9243H74.0418V60.9452H74.5013V58.4752C74.5013 58.1306 74.6162 57.8433 74.846 57.6136C75.0757 57.3838 75.3629 57.2689 75.7076 57.2689C76.282 57.2689 76.5692 57.6136 76.5692 58.2454V61.0026H77.0287V58.4752C77.0287 58.1306 77.1436 57.8433 77.3734 57.6136C77.6032 57.3838 77.8904 57.2689 78.235 57.2689C78.5797 57.2689 78.8094 57.3264 78.9243 57.4987C79.0392 57.671 79.0966 57.9008 79.0966 58.188V60.9452L79.2115 61.0026ZM72.9504 60.4856C73.2376 60.141 73.41 59.624 73.41 58.9922C73.41 58.3603 73.2376 57.8433 72.9504 57.4413C72.6058 57.0392 72.1462 56.8094 71.5144 56.8094C70.8825 56.8094 70.423 57.0392 70.0784 57.4413C69.7911 57.7859 69.6188 58.3029 69.6188 58.9347C69.6188 59.5666 69.7911 60.0836 70.0784 60.4282C70.423 60.8303 70.8825 61.0601 71.5144 61.0601C72.1462 61.0601 72.6632 60.8303 72.9504 60.4282V60.4856ZM72.893 58.9922C72.893 59.5091 72.7781 59.8538 72.6058 60.1984C72.376 60.5431 71.9739 60.7154 71.5144 60.7154C71.0549 60.7154 70.6528 60.5431 70.423 60.1984C70.1932 59.9112 70.1358 59.5091 70.1358 58.9922C70.1358 58.4752 70.2507 58.0731 70.423 57.7859C70.6528 57.4413 71.0549 57.2689 71.5144 57.2689C71.9739 57.2689 72.376 57.4413 72.6058 57.7859C72.8355 58.0731 72.893 58.4752 72.893 58.9922ZM66.4596 60.141C66.2298 59.8538 66.1723 59.4517 66.1723 58.9922C66.1723 58.5326 66.2872 58.1306 66.4596 57.8433C66.6893 57.4987 67.034 57.3264 67.4935 57.3264C67.953 57.3264 68.0679 57.4413 68.2977 57.6136C68.5274 57.7859 68.6423 58.0157 68.6998 58.3029H69.1593C69.1593 57.9008 68.987 57.5561 68.6423 57.2689C68.3551 57.0392 67.953 56.8668 67.4935 56.8668C67.034 56.8668 66.4021 57.0966 66.0575 57.4987C65.7703 57.9008 65.5979 58.3603 65.5979 58.9922C65.5979 59.624 65.7703 60.0836 66.0575 60.4282C66.4021 60.8303 66.8616 61.0601 67.4361 61.0601C68.0105 61.0601 68.2977 60.9452 68.6423 60.658C68.9295 60.3708 69.1019 60.0261 69.1593 59.5666H68.6998C68.6998 59.9112 68.5274 60.141 68.2977 60.3708C68.0679 60.5431 67.8381 60.658 67.4935 60.658C67.1488 60.658 66.6893 60.4856 66.4596 60.0836V60.141ZM61.0601 62.7833H61.4047V55.201H61.0601V62.7833ZM54.2246 57.9582C54.2246 57.7285 54.3395 57.5561 54.5118 57.4413C54.6841 57.3264 54.9139 57.2689 55.1436 57.2689C55.3734 57.2689 55.718 57.3264 55.8904 57.4987C56.1201 57.671 56.235 57.9008 56.235 58.188H56.752C56.752 57.7859 56.5797 57.4413 56.2924 57.2115C56.0052 56.9817 55.6606 56.8668 55.2011 56.8668C54.7415 56.8668 54.4543 56.9817 54.2246 57.1541C53.9374 57.3838 53.765 57.671 53.765 58.0157C53.765 58.3603 53.9948 58.7624 54.4543 58.9347C54.8564 59.0496 55.3159 59.1645 55.718 59.2794C56.1776 59.3943 56.4073 59.624 56.4073 59.9112C56.4073 60.1984 56.2924 60.3708 56.0052 60.4856C55.8329 60.6005 55.5457 60.658 55.2585 60.658C54.9713 60.658 54.6841 60.5431 54.5118 60.3708C54.282 60.1984 54.1671 59.9687 54.1671 59.6815H53.6502C53.6502 60.141 53.8225 60.4856 54.1097 60.7154C54.3969 60.9452 54.799 61.0601 55.2585 61.0601C55.718 61.0601 56.0052 60.9452 56.3499 60.7729C56.6945 60.5431 56.8669 60.2559 56.8669 59.8538C56.8669 59.4517 56.6371 59.1071 56.1776 58.8773C55.7755 58.7624 55.3159 58.6475 54.9139 58.5326C54.4543 58.4178 54.2246 58.188 54.2246 57.8433V57.9582ZM53.3629 57.3264V56.8668C52.7311 56.8668 52.2716 57.1541 52.0418 57.671V56.9817H51.5823V61.0026H52.0418V58.7624C52.0418 57.8433 52.5013 57.3264 53.3629 57.3264ZM47.7911 59.0496H50.893C50.893 57.5561 50.3186 56.8094 49.1123 56.8094C47.906 56.8094 48.0209 57.0392 47.7337 57.4413C47.4465 57.8433 47.3316 58.3029 47.3316 58.9347C47.3316 59.5666 47.4465 60.0261 47.7337 60.4282C48.0784 60.8303 48.5379 61.0601 49.1123 61.0601C49.6867 61.0601 49.9739 60.9452 50.2611 60.7154C50.6058 60.4856 50.7781 60.141 50.8355 59.6815H50.376C50.376 59.9687 50.2037 60.1984 49.9739 60.3708C49.7441 60.5431 49.4569 60.6005 49.1697 60.6005C48.7102 60.6005 48.3656 60.4282 48.1358 60.0836C47.906 59.7964 47.7911 59.3943 47.7911 58.9922V59.0496ZM47.7911 58.705C47.7911 58.3029 47.906 57.9582 48.1358 57.7285C48.3656 57.4413 48.7102 57.3264 49.1123 57.3264C49.5144 57.3264 49.859 57.4413 50.0888 57.7285C50.3186 57.9582 50.376 58.3029 50.4334 58.705H47.8486H47.7911ZM46.6423 60.7729V56.9243H46.1828V57.6136C45.8381 57.0966 45.3786 56.8094 44.7468 56.8094C44.1149 56.8094 43.6554 57.0392 43.3682 57.4413C43.081 57.8433 42.9086 58.3029 42.9086 58.9347C42.9086 59.5666 43.081 60.0261 43.3682 60.4282C43.7128 60.8303 44.1723 61.0601 44.7468 61.0601C45.3212 61.0601 45.8381 60.7729 46.1828 60.2559C46.1828 60.9452 46.1254 61.4047 45.953 61.6345C45.7233 61.9791 45.3212 62.2089 44.6893 62.2089C44.0575 62.2089 43.5979 61.9791 43.5405 61.4621H43.0235C43.0235 61.8642 43.2533 62.1514 43.5979 62.3812C43.8851 62.5535 44.2298 62.6684 44.6893 62.6684C46.0105 62.6684 46.6423 62.0366 46.6423 60.7729ZM46.1828 58.9922C46.1828 59.4517 46.0679 59.8538 45.8956 60.1984C45.6658 60.5431 45.2637 60.7154 44.8042 60.7154C44.3447 60.7154 43.9426 60.5431 43.7128 60.1984C43.4831 59.9112 43.3682 59.5091 43.3682 58.9922C43.3682 58.4752 43.4831 58.0731 43.7128 57.7859C43.9426 57.4413 44.3447 57.2689 44.8042 57.2689C45.2637 57.2689 45.6658 57.4413 45.8956 57.7859C46.1254 58.0731 46.1828 58.4752 46.1828 58.9922ZM42.2768 61.0601C42.3917 61.0601 42.5065 61.0601 42.6214 61.0601V60.7154H42.3917C42.2768 60.7154 42.2193 60.7154 42.1619 60.658C42.1619 60.658 42.1619 60.4856 42.1619 60.3708V58.188C42.1619 57.3838 41.6449 56.9817 40.6684 56.9817C39.6919 56.9817 39.8068 57.0966 39.5196 57.2689C39.175 57.4987 39.0026 57.8433 39.0026 58.2454H39.4622C39.4622 57.671 39.8643 57.3264 40.611 57.3264C41.3577 57.3264 41.1854 57.3838 41.3577 57.4987C41.53 57.6136 41.6449 57.9008 41.6449 58.188C41.6449 58.4752 41.5875 58.5326 41.4152 58.5901C41.3577 58.5901 41.1854 58.6475 40.8982 58.705C40.5535 58.705 40.2663 58.7624 39.9217 58.8199C39.5196 58.8773 39.2898 58.9922 39.0601 59.1071C38.8303 59.2794 38.7154 59.5666 38.7154 59.9687C38.7154 60.3708 38.8303 60.658 39.1175 60.8303C39.3473 61.0026 39.6919 61.1175 40.094 61.1175C40.6684 61.1175 41.1854 60.8877 41.6449 60.4282C41.6449 60.8303 41.8173 61.0601 42.2193 61.0601H42.2768ZM41.7024 59.4517C41.7024 59.8538 41.5875 60.141 41.3003 60.3708C41.0131 60.6005 40.6684 60.658 40.2663 60.658C39.8643 60.658 39.8068 60.6005 39.6345 60.4856C39.4622 60.3708 39.3473 60.141 39.3473 59.9112C39.3473 59.6815 39.4622 59.5091 39.6345 59.3368C39.8068 59.2219 40.0366 59.1071 40.2663 59.0496C40.3238 59.0496 40.611 59.0496 41.0131 58.9922C41.3003 58.9922 41.53 58.9347 41.7598 58.8773V59.4517H41.7024ZM37.6815 61.0026H38.141V58.4178C38.141 57.9008 38.0261 57.4987 37.8538 57.2689C37.624 56.9817 37.2794 56.8668 36.705 56.8668C36.1306 56.8668 35.6136 57.0966 35.3264 57.6136V56.9817H34.8669V61.0026H35.3264V58.6475C35.3264 58.2454 35.4413 57.9008 35.671 57.671C35.9008 57.3838 36.188 57.2689 36.5901 57.2689C36.9922 57.2689 37.2794 57.3838 37.4517 57.5561C37.5666 57.7285 37.624 58.0157 37.624 58.4752V61.0026H37.6815ZM34.1201 61.0601C34.235 61.0601 34.3499 61.0601 34.4648 61.0601V60.7154H34.2925C34.1776 60.7154 34.1201 60.7154 34.0627 60.658C34.0627 60.658 34.0627 60.4856 34.0627 60.3708V58.188C34.0627 57.3838 33.5457 56.9817 32.5692 56.9817C31.5927 56.9817 31.7076 57.0966 31.4204 57.2689C31.0757 57.4987 30.9034 57.8433 30.9034 58.2454H31.3629C31.3629 57.671 31.765 57.3264 32.5118 57.3264C33.2585 57.3264 33.1436 57.3838 33.2585 57.4987C33.4308 57.6136 33.5457 57.9008 33.5457 58.188C33.5457 58.4752 33.4883 58.5326 33.316 58.5901C33.2585 58.5901 33.0862 58.6475 32.799 58.705C32.4543 58.705 32.1671 58.7624 31.8225 58.8199C31.4204 58.8773 31.1906 58.9922 30.9609 59.1071C30.7311 59.2794 30.6162 59.5666 30.6162 59.9687C30.6162 60.3708 30.7311 60.658 31.0183 60.8303C31.2481 61.0026 31.5927 61.1175 31.9948 61.1175C32.5692 61.1175 33.0862 60.8877 33.5457 60.4282C33.5457 60.8303 33.718 61.0601 34.1201 61.0601ZM33.4883 59.4517C33.4883 59.8538 33.3734 60.141 33.0862 60.3708C32.799 60.6005 32.4543 60.658 32.0522 60.658C31.6502 60.658 31.5927 60.6005 31.4204 60.4856C31.2481 60.3708 31.1332 60.141 31.1332 59.9112C31.1332 59.6815 31.2481 59.5091 31.4204 59.3368C31.5927 59.2219 31.8225 59.1071 32.0522 59.0496C32.1671 59.0496 32.3969 59.0496 32.799 58.9922C33.0862 58.9922 33.316 58.9347 33.5457 58.8773V59.4517H33.4883ZM29.4674 61.0026H29.9269V58.188C29.9269 57.3264 29.4674 56.8668 28.6058 56.8668C27.7442 56.8668 27.5718 57.1541 27.2846 57.671C27.1697 57.1541 26.7677 56.8668 26.0784 56.8668C25.3891 56.8668 25.0444 57.0966 24.7572 57.6136V56.9243H24.2977V60.9452H24.7572V58.4752C24.7572 58.1306 24.8721 57.8433 25.1019 57.6136C25.3316 57.3838 25.6188 57.2689 25.9635 57.2689C26.5379 57.2689 26.8251 57.6136 26.8251 58.2454V61.0026H27.2846V58.4752C27.2846 58.1306 27.3995 57.8433 27.6293 57.6136C27.859 57.3838 28.1462 57.2689 28.4909 57.2689C28.8355 57.2689 29.0653 57.3264 29.1802 57.4987C29.2951 57.671 29.3525 57.9008 29.3525 58.188V60.9452L29.4674 61.0026ZM21.6554 61.0601C21.7703 61.0601 21.8851 61.0601 22 61.0601V60.7154H21.7703C21.6554 60.7154 21.5979 60.7154 21.5405 60.658C21.5405 60.658 21.5405 60.4856 21.5405 60.3708V58.188C21.5405 57.3838 21.0235 56.9817 20.047 56.9817C19.0705 56.9817 19.1854 57.0966 18.8982 57.2689C18.5536 57.4987 18.3812 57.8433 18.3812 58.2454H18.8408C18.8408 57.671 19.2428 57.3264 19.9896 57.3264C20.7363 57.3264 20.564 57.3838 20.7363 57.4987C20.9086 57.6136 21.0235 57.9008 21.0235 58.188C21.0235 58.4752 20.9661 58.5326 20.7938 58.5901C20.7363 58.5901 20.564 58.6475 20.2768 58.705C19.9321 58.705 19.6449 58.7624 19.3003 58.8199C18.8982 58.8773 18.6684 58.9922 18.4387 59.1071C18.2089 59.2794 18.094 59.5666 18.094 59.9687C18.094 60.3708 18.2089 60.658 18.4961 60.8303C18.7259 61.0026 19.0705 61.1175 19.4726 61.1175C20.047 61.1175 20.564 60.8877 21.0235 60.4282C21.0235 60.8303 21.1958 61.0601 21.5979 61.0601H21.6554ZM21.0235 59.4517C21.0235 59.8538 20.9086 60.141 20.6214 60.3708C20.3342 60.6005 19.9896 60.658 19.5875 60.658C19.1854 60.658 19.128 60.6005 18.9556 60.4856C18.7833 60.3708 18.6684 60.141 18.6684 59.9112C18.6684 59.6815 18.7833 59.5091 18.9556 59.3368C19.128 59.2219 19.3577 59.1071 19.5875 59.0496C19.6449 59.0496 19.9321 59.0496 20.3342 58.9922C20.6214 58.9922 20.8512 58.9347 21.081 58.8773V59.4517H21.0235ZM17.175 61.1175C17.3473 61.1175 17.5196 61.1175 17.7494 61.0601V60.658C17.5196 60.658 17.3473 60.7154 17.2898 60.7154C17.175 60.7154 17.0601 60.7154 17.0026 60.6005C17.0026 60.6005 17.0026 60.4282 17.0026 60.3133V57.3838H17.7494V56.9817H17.0026V55.8329H16.5431V56.9817H15.9687V57.3838H16.5431V60.3133C16.5431 60.6005 16.5431 60.7729 16.658 60.8877C16.7729 61.0601 16.9452 61.1175 17.2324 61.1175H17.175ZM15.5666 61.0601C15.6815 61.0601 15.7964 61.0601 15.9113 61.0601V60.7154H15.7389C15.624 60.7154 15.5666 60.7154 15.5092 60.658C15.5092 60.658 15.4517 60.4856 15.4517 60.3708V58.188C15.4517 57.3838 14.9348 56.9817 13.9583 56.9817C12.9817 56.9817 13.0966 57.0966 12.8094 57.2689C12.4648 57.4987 12.2925 57.8433 12.2925 58.2454H12.752C12.752 57.671 13.1541 57.3264 13.9008 57.3264C14.6475 57.3264 14.4752 57.3838 14.6475 57.4987C14.8199 57.6136 14.9348 57.9008 14.9348 58.188C14.9348 58.4752 14.8773 58.5326 14.705 58.5901C14.6475 58.5901 14.4752 58.6475 14.188 58.705C13.8434 58.705 13.5562 58.7624 13.2115 58.8199C12.8094 58.8773 12.5797 58.9922 12.3499 59.1071C12.1201 59.2794 12.0052 59.5666 12.0052 59.9687C12.0052 60.3708 12.1201 60.658 12.4073 60.8303C12.6371 61.0026 12.9817 61.1175 13.3838 61.1175C13.9583 61.1175 14.4752 60.8877 14.9348 60.4282C14.9348 60.8303 15.1071 61.0601 15.5092 61.0601H15.5666ZM14.9922 59.4517C14.9922 59.8538 14.8773 60.141 14.5901 60.3708C14.3029 60.6005 13.9583 60.658 13.5562 60.658C13.1541 60.658 13.0966 60.6005 12.9243 60.4856C12.752 60.3708 12.6371 60.141 12.6371 59.9112C12.6371 59.6815 12.752 59.5091 12.9243 59.3368C13.0966 59.2219 13.3264 59.1071 13.5562 59.0496C13.6136 59.0496 13.9008 59.0496 14.3029 58.9922C14.5901 58.9922 14.8199 58.9347 15.0496 58.8773V59.4517H14.9922ZM11.8329 57.3264V56.8668C11.2011 56.8668 10.7415 57.1541 10.5118 57.671V56.9817H10.0522V61.0026H10.5118V58.7624C10.5118 57.8433 10.9713 57.3264 11.8329 57.3264ZM8.90342 61.1175C9.07574 61.1175 9.24807 61.1175 9.47783 61.0601V60.658C9.24807 60.658 9.07574 60.7154 9.0183 60.7154C8.90342 60.7154 8.78854 60.7154 8.7311 60.6005C8.7311 60.6005 8.7311 60.4282 8.7311 60.3133V57.3838H9.47783V56.9817H8.7311V55.8329H8.27157V56.9817H7.69715V57.3838H8.27157V60.3133C8.27157 60.6005 8.27157 60.7729 8.38645 60.8877C8.50133 61.0601 8.67366 61.1175 8.96086 61.1175H8.90342ZM4.76765 57.9582C4.76765 57.7285 4.88253 57.5561 5.05486 57.4413C5.22718 57.3264 5.45694 57.2689 5.68671 57.2689C5.91647 57.2689 6.26112 57.3264 6.43345 57.4987C6.66321 57.671 6.77809 57.9008 6.77809 58.188H7.29506C7.29506 57.7859 7.12274 57.4413 6.83553 57.2115C6.54833 56.9817 6.20368 56.8668 5.74415 56.8668C5.28462 56.8668 5.05486 56.9817 4.76765 57.1541C4.48044 57.3838 4.30812 57.671 4.30812 58.0157C4.30812 58.3603 4.53788 58.7624 4.99741 58.9347C5.3995 59.0496 5.85903 59.1645 6.26112 59.2794C6.72065 59.3943 6.95042 59.624 6.95042 59.9112C6.95042 60.1984 6.83553 60.3708 6.54833 60.4856C6.376 60.6005 6.0888 60.658 5.80159 60.658C5.51439 60.658 5.22718 60.5431 5.05486 60.3708C4.82509 60.1984 4.71021 59.9687 4.71021 59.6815H4.19324C4.19324 60.141 4.36556 60.4856 4.65277 60.7154C4.93997 60.9452 5.34206 61.0601 5.80159 61.0601C6.26112 61.0601 6.60577 60.9452 6.89298 60.7729C7.23762 60.5431 7.40995 60.2559 7.40995 59.8538C7.40995 59.4517 7.18018 59.1071 6.72065 58.8773C6.31856 58.7624 5.85903 58.6475 5.45694 58.5326C4.99741 58.4178 4.76765 58.188 4.76765 57.8433V57.9582Z" fill="black"></path></svg>