<svg xmlns="http://www.w3.org/2000/svg" viewBox="0 0 500 160"><path d="M326 159.2h2.5v-5.8-1.1s1 2 4 2c3.3 0 5.8-2.6 5.8-6.7 0-4-2.2-6.8-5.7-6.8-3.2 0-4.3 2.3-4.3 2.3v-.7c0-.8-.5-1.3-1.6-1.3h-2.3v2.1h1c.4 0 .6.2.6.6v15.4zm71-11.6c0 3.8 2.7 6.8 6.8 6.8 3 0 5-2 5-2l-1-1.7s-1.6 1.5-3.9 1.5a4.3 4.3 0 01-4.4-4.3h9.4l.1-1c0-3.4-2-6.1-5.6-6.1-3.7 0-6.5 2.7-6.5 6.8zm-137 0c0 4 3 6.8 7 6.8a6.8 6.8 0 100-13.6c-4 0-7 2.8-7 6.8zm80 2.8c0 2.6 2.3 4 4.5 4 3 0 4.1-2.6 4.1-2.6v.8c0 .9.5 1.5 1.6 1.5h2.4v-2.2h-1c-.4 0-.7-.1-.7-.5v-5.5c0-2.9-1-5.1-5.3-5.1-1.2 0-4.5.3-4.5 2.4v1.3h2.4v-.7c0-.9 1.5-1 2-1 2.1 0 3 .8 3 3v.2h-.6c-2.2 0-7.8.3-7.8 4.4zm95.9 1.7s1.7 2.3 5.2 2.3c2.7 0 4.7-1.5 4.7-3.8 0-4.3-7-3.8-7-6.3 0-1 .9-1.5 2.4-1.5.8 0 2 .3 2 1.1v.6h2.1v-1.2c0-2-2.7-2.5-4.2-2.5-2.7 0-4.8 1.2-4.8 3.6 0 4.2 7 4 7 6.3 0 1.1-1 1.7-2.2 1.7-2.4 0-4-2-4-2l-1.2 1.7zm-240.4-1.7c0 2.6 2.1 4 4.4 4 3 0 4.1-2.6 4.1-2.6v.8c0 .9.5 1.5 1.6 1.5h2.3v-2.2h-1c-.4 0-.6-.1-.6-.5v-5.5c0-2.9-1.1-5.1-5.3-5.1-1.3 0-4.5.3-4.5 2.4v1.3h2.4v-.7c0-.9 1.5-1 2-1 2.1 0 3 .8 3 3v.2h-.6c-2.2 0-7.8.3-7.8 4.4zm22.7-2.8c0 3.8 2.8 6.8 6.9 6.8 3 0 5-2 5-2l-1.1-1.7s-1.6 1.5-3.8 1.5a4.3 4.3 0 01-4.5-4.3h9.5v-1c0-3.4-1.9-6.1-5.5-6.1-3.7 0-6.5 2.7-6.5 6.8zm75 1.7c0 4.4 3.2 4.9 4.9 4.9h.9v-2.3h-.6c-1 0-2.8-.3-2.8-2.9v-5.9h3.1v-2h-3v-3.6h-2.5v3.6h-1.8v2h1.7v6.2zm72 0c0 4.4 3.4 4.9 5 4.9h.9v-2.3h-.6c-1 0-2.8-.3-2.8-2.9v-5.9h3.1v-2h-3v-3.6h-2.5v3.6h-1.7v2h1.7v6.2zm63.3 0c0 4.4 3.3 4.9 4.9 4.9h.9v-2.3h-.6c-1 0-2.8-.3-2.8-2.9v-5.9h3.1v-2h-3v-3.6h-2.5v3.6h-1.7v2h1.7v6.2zm-217.8 0c0 4.4 3.3 4.9 5 4.9h.9v-2.3h-.6c-1 0-2.8-.3-2.8-2.9v-5.9h3.1v-2h-3v-3.6h-2.5v3.6H209v2h1.7v6.2zm-34.1 4.8h3l3.3-11.5.6-2.4.5 2.4 3.1 11.5h3l4-15.3c0-.5.3-.6.8-.6h.4V136h-1.5c-1.2 0-1.9.2-2.2 1.5l-2.8 11.6-.3 2h-.1l-.4-2-3.4-13h-2.3l-3.6 13-.4 2-.5-2-2.7-11.6c-.4-1.3-1-1.5-2.3-1.5h-1.4v2.2h.4c.4 0 .7 0 .8.6l4 15.3zm197.6 0h2.5v-6l.1-1.6c.5-1.9 1.9-3.4 3.8-3.4 2 0 2.2 1.5 2.2 3.2v7.8h2.5v-6c0-.6 0-1.2.2-1.7.4-1.8 1.8-3.3 3.6-3.3 2 0 2.3 1.4 2.3 3.2v6.1c0 1.2.5 1.7 1.6 1.7h2.5v-2.2h-1c-.4 0-.6-.1-.6-.5v-5.6c0-3.3-1.4-5-4.3-5a5.2 5.2 0 00-4.6 3c-.5-2-1.8-3-4-3a5 5 0 00-4.4 3v-1.3c0-1-.5-1.4-1.7-1.4h-2.3v2.1h1c.4 0 .6.2.6.6v10.3zm-67.1 0h1.4c1.3 0 1.7-.3 2.1-1.5l1.4-3.7h6.6l1.4 3.7c.4 1.2.8 1.5 2 1.5h1.5v-2.2h-.4c-.4 0-.7-.1-.8-.6l-5.7-15.3H314l-5.6 15.3c-.2.5-.4.6-.9.6h-.3v2.2zm105.2 0h2.5V148c0-.6 0-1.2.2-1.7a4.2 4.2 0 014.1-3.2c2.1 0 2.5 1.4 2.5 3.2v6.1c0 1.2.5 1.7 1.6 1.7h2.5v-2.2h-1c-.4 0-.7-.1-.7-.5v-5.6c0-3.3-1.3-5-4.4-5a5.3 5.3 0 00-4.9 3v-1.3c0-1-.5-1.4-1.6-1.4h-2.4v2.1h1c.4 0 .6.2.6.6v10.3zm-178.7 0h2.4v-5.3c0-.8.1-1.6.4-2.4.5-1.9 2-3 3.6-3h.7V141h-.6c-2 0-3.5 1.4-4.1 3.3V142.6c0-1-.6-1.5-1.7-1.5h-2.4v2.1h1.1c.4 0 .6.2.6.6v10.3zm121.7 0h2.4v-5.3l.3-2.4c.6-1.9 2-3 3.7-3h.7V141h-.6c-2 0-3.5 1.4-4.1 3.3V142.6c0-1-.6-1.5-1.7-1.5h-2.4v2.1h1c.4 0 .7.2.7.6v10.3zm-111.8 0h2.5v-11h3v-2h-3v-.4c0-2.4 1.7-2.7 2.7-2.7h.6v-2l-1-.1c-1.6 0-4.8.5-4.8 4.8v.4h-1.6v2h1.6v11zm8.3 0h2.5v-5.3c0-.8 0-1.6.3-2.4.6-1.9 2-3 3.6-3h.8V141h-.7c-2 0-3.5 1.4-4.1 3.3V142.6c0-1-.5-1.5-1.7-1.5h-2.3v2.1h1c.4 0 .6.2.6.6v10.3zm25.2 0h2.5V148c0-.6 0-1.2.2-1.7a4.2 4.2 0 014.1-3.2c2 0 2.4 1.4 2.4 3.2v6.1c0 1.2.5 1.7 1.7 1.7h2.4v-2.2h-1c-.4 0-.6-.1-.6-.5v-5.6c0-3.3-1.4-5-4.4-5a5.3 5.3 0 00-4.9 3v-1.3c0-1-.5-1.4-1.6-1.4h-2.4v2.1h1c.4 0 .6.2.6.6v10.3zm65.6-3.8c0-2.4 3.4-2.5 5.2-2.5h.7v.5c0 1.9-1.4 4-3.5 4-1.6 0-2.4-1-2.4-2zm-144.6 0c0-2.4 3.4-2.5 5.2-2.5h.7v.5c0 1.9-1.4 4-3.5 4-1.6 0-2.4-1-2.4-2zm130.4-2.7c0-3.3 1.8-4.6 3.7-4.6 2.2 0 3.7 1.8 3.7 4.6 0 3-1.7 4.6-3.8 4.6-2.4 0-3.6-2.3-3.6-4.6zm-66 0a4.4 4.4 0 119 0c0 2.7-2 4.6-4.5 4.6-2.4 0-4.4-2-4.4-4.6zm50.2-.9l2-5.5.6-2.5.8 2.5 2 5.5h-5.4zm-91.8-.6c.4-2.2 2-3.3 3.8-3.3 1.7 0 3 1.1 3 3.3h-6.8zm178.8 0c.4-2.2 2-3.3 3.8-3.3 1.6 0 3 1.1 3 3.3h-6.8zM23.7 12C41-.7 63.9-1.4 84.5 1.3c15.5 1.5 30.3 7.1 45.7 8.6 6 .4 12.2.7 17.7-1.6 3.3-1.3 5.8-3.8 8.3-6.2-2 4.4-4 9-7.6 12.3a26.2 26.2 0 01-18.2 6.9c-15 .1-30-2.1-44.8-4.8 0 18.5-.2 37.1.1 55.7.4 5.7-.4 11.4.6 17 3.2 1.8 7 3 8.6 6.5a86 86 0 01-14.2 0c-6-.4-12 .6-18 0 1.9-2.6 4.4-4.5 7-6 .2-9.5.6-19 .4-28.5-.1-15.2.6-30.4-1-45.6-10.2-1-20.7 0-30.3 3.8a49 49 0 00-26.6 23.4 49 49 0 001.4 44.7 68.1 68.1 0 0037 29.1c23.6 8.6 49.3 12 74.1 7.7 33.5-5.4 64.8-20 98.4-25 20.5-3 42.2-2.8 61.5 5.3a51.2 51.2 0 0123.3 19.3c-5.2-3.4-9.8-7.7-15.2-10.8a65 65 0 00-29.8-8.4 156 156 0 00-41.4 4.5c-26.4 5.8-51.4 16.4-77.3 24.2a164 164 0 01-49.2 8.2c-14.7 0-29.3-2.7-43.3-7.2-12-4.1-23.8-10-33-19A62.3 62.3 0 010 74V61.8C1 43 8.1 23.5 23.7 12zM459 101.6c7.3-1.5 15-1 22 1.1 6.5 2 13.6 2.7 19 7-1 3.7-5 5.3-7.7 7.6-8.7 5-16.7 13-27.4 12.5 3.1-1.6 6.4-3 9.7-4.4-19.5 4.3-39.6 1.9-59.1-.9-13-2-26.7.6-39-4.6a46 46 0 01-12-7.8 41 41 0 0021.9 3.5l-8.4-10.2c8 6.8 17.4 13.2 28.3 12.9 17.8-1 33.6-10.6 50.9-13.8 4.6-1 9.3-1.2 14-2-4.1-.3-8.1-.5-12.2-1zM351 39.3c4.3-1.8 4.4-7.2 5.7-11 3 .6 5.9 1.4 8.6 2.6.6 6.4-4.8 10.3-10.4 11.5 2.6 3.1 5 6.8 5.1 11a21 21 0 01-14.2 21.1c-5.2 2.1-10.9.9-16.3 1.6-3.6.2-1.2 5.1 1 6 8.6 3.7 18.7 2.4 27.1 7 5 2.6 4.8 9.2 4 14-1.5 6.3-8.3 9.1-14 11-10 2.6-21.9 3-31-2.9-4.2-2.6-5.6-7.7-6-12.4 3.2-1.3 6.4-2.1 9.8-2.4 1.3 6.4 5.4 12.9 12 14.4 5.6.3 12 .5 16.6-3.3 1.6-1.6 3.5-5 1.1-6.7-8.4-7.1-21.9-2.9-29.7-11-2.7-4.8-.1-10.7 3-14.8-3.8-2-7.8-3.9-10.7-7.1a19.8 19.8 0 012-21 28.6 28.6 0 0119.9-8.8c5.6-.7 11 1 16.5 1.2zm-105 .6c7.8-3.2 17.5-3.7 24.7 1.3 4 3.2 4.5 8.6 4.3 13.4 0 9.9-.3 19.9 1 29.7 1 4.6 6.6 2.9 9.6 2-3.7 6-12 8-18.5 6-2.6-.8-3.8-3.4-4.8-5.7a23.6 23.6 0 01-17 6.9c-5-.2-10.8-2.5-12.6-7.6-2-6.8-1-15.5 5.1-19.9 7.3-5.3 16.6-5.9 25.2-6.9.2-4.4-.1-9.8-4.6-12.1-7.8-4-16.8-.4-23.7 3.9 2-5.1 6.2-9 11.3-11zM144.6 50.8c5.2-12 21.3-16 32.8-11.5 5 1.7 7.6 7 7.6 12 0 10-.2 20 .6 30 .2 1.7.3 3.6 1.5 5.1 2.6 2 5.8.4 8.6-.2-3.9 6.2-12.3 8.2-19 5.9-2.4-.8-3.3-3.3-4.4-5.4a24 24 0 01-17.7 6.7c-5-.3-10.5-2.8-12-8-1.9-6.5-1-14.7 4.8-19 7.3-5.6 16.8-6.3 25.6-7.3.1-4.6-.3-10.3-5.1-12.4-7.8-3.6-16.5.1-23.3 4.1zM381 40.3a27.5 27.5 0 0124.3 0c4.3 2.2 5.8 7.5 5.8 12 0 9.6-.2 19.2.5 28.8.2 1.8.2 3.9 1.5 5.3 2.6 2 5.9.4 8.6 0-4 5.9-12 8-18.7 5.8-2.6-.8-3.6-3.4-4.7-5.5-4.5 4.6-11 6.9-17.4 6.8-5-.3-10.6-2.7-12.2-7.8-2.1-6.7-1-15.2 5-19.6 7.2-5.3 16.6-6 25.3-7 .2-4.5-.2-10-4.8-12.3-7.8-3.8-16.8-.1-23.6 4.2 2-4.7 5.6-8.7 10.4-10.7zM206 19c4.9-8.5 16-9.9 24.7-8.7 6.3.9 14.1 4.6 14.1 12l-1 .1c-4.4-4-10.2-6.5-16.3-5.7-4.9.5-9 4-11 8.4a30.2 30.2 0 00-2 14.2c4.9.8 9.8 0 14.7-.2.2 2.3.8 5.5-1.8 6.8-3.7 1.7-8 .9-11.9 1.1a569 569 0 00-.5 46.3h-13.5v-43c.4-4.2-4.8-4.5-6.9-7-1-4.5 4.9-4.7 7.6-6.2-.2-6.2.2-12.8 3.9-18.1zm217.3 19.6c4.3-.4 9-1 12.6 2 2.1 1.3 2 4 2.5 6.2 3.1-3.2 6.6-6.2 11-7.6 3.4-1.2 7-.7 10.6-.5 1 3.8.7 7.8 0 11.6-4.5-1.4-9.3-4.6-14-2.4-5.3 2.3-7.5 8.3-8.1 13.6-1.2 10.4 1 20.8 2.9 31-5.4.4-10.8.7-16.2.6V48c0-3.3-.6-6.4-1.3-9.5zm-319 0c4.5-.5 9.7-1 13.1 2.5 1.6 1.4 1.3 3.8 1.8 5.7 3.2-3.1 6.6-6.2 11-7.6 3.4-1.2 7-.7 10.6-.5 1 3.8.8 7.8 0 11.6-3.5-1.2-6.8-3-10.5-3.2-5.8.3-9.9 5.6-11 11-2.4 11.4.4 23 2.4 34.3-5.5.6-11 .8-16.6.7V48c0-3.2-.3-6.4-.8-9.5zm181.8-26c5-1 10.1.3 14.7 2.6 2.3 24-2.3 48 2 71.9l9-.2c-5.6 8.3-16.6 6-25 4.8V21.5c0-3-.3-6-.7-9zm-34.8 54.7c-5 2.8-8.8 9.1-5.7 14.6 3.4 7.7 16 3.5 16.8-4 .6-4.5.4-9.1.3-13.7-4 .3-8 .8-11.4 3.1zM156 72.5c-2.8 4.2-1.3 10.5 3 13 5.3 1.5 11.7-1.4 13.3-6.7.8-4.9.5-9.9.5-14.8-6.4.3-13.4 2.7-16.8 8.5zm231.2-5.1c-4.7 2.7-8.3 8.8-5.5 14.1 3.2 8 16 4 17-3.5.5-4.7.3-9.3.2-14-4 .4-8.3 1-11.7 3.4zM331.8 44c-7.7 2.5-10.1 12.2-7 19 2.3 6 9.5 9.9 15.5 7 7.8-4.1 8.8-15.9 3.6-22.6-2.7-3.7-7.9-4.9-12.1-3.4z" fill="#45a4d0"></path></svg>