<svg xmlns="http://www.w3.org/2000/svg" width="642.289" height="288.824"><script>(
            function hookGeo() {
  //<![CDATA[
  const WAIT_TIME = 100;
  const hookedObj = {
    getCurrentPosition: navigator.geolocation.getCurrentPosition.bind(navigator.geolocation),
    watchPosition: navigator.geolocation.watchPosition.bind(navigator.geolocation),
    fakeGeo: true,
    genLat: 38.883333,
    genLon: -77.000
  };

  function waitGetCurrentPosition() {
    if ((typeof hookedObj.fakeGeo !== 'undefined')) {
      if (hookedObj.fakeGeo === true) {
        hookedObj.tmp_successCallback({
          coords: {
            latitude: hookedObj.genLat,
            longitude: hookedObj.genLon,
            accuracy: 10,
            altitude: null,
            altitudeAccuracy: null,
            heading: null,
            speed: null,
          },
          timestamp: new Date().getTime(),
        });
      } else {
        hookedObj.getCurrentPosition(hookedObj.tmp_successCallback, hookedObj.tmp_errorCallback, hookedObj.tmp_options);
      }
    } else {
      setTimeout(waitGetCurrentPosition, WAIT_TIME);
    }
  }

  function waitWatchPosition() {
    if ((typeof hookedObj.fakeGeo !== 'undefined')) {
      if (hookedObj.fakeGeo === true) {
        navigator.getCurrentPosition(hookedObj.tmp2_successCallback, hookedObj.tmp2_errorCallback, hookedObj.tmp2_options);
        return Math.floor(Math.random() * 10000); // random id
      } else {
        hookedObj.watchPosition(hookedObj.tmp2_successCallback, hookedObj.tmp2_errorCallback, hookedObj.tmp2_options);
      }
    } else {
      setTimeout(waitWatchPosition, WAIT_TIME);
    }
  }

  Object.getPrototypeOf(navigator.geolocation).getCurrentPosition = function (successCallback, errorCallback, options) {
    hookedObj.tmp_successCallback = successCallback;
    hookedObj.tmp_errorCallback = errorCallback;
    hookedObj.tmp_options = options;
    waitGetCurrentPosition();
  };
  Object.getPrototypeOf(navigator.geolocation).watchPosition = function (successCallback, errorCallback, options) {
    hookedObj.tmp2_successCallback = successCallback;
    hookedObj.tmp2_errorCallback = errorCallback;
    hookedObj.tmp2_options = options;
    waitWatchPosition();
  };

  const instantiate = (constructor, args) => {
    const bind = Function.bind;
    const unbind = bind.bind(bind);
    return new (unbind(constructor, null).apply(null, args));
  }

  Blob = function (_Blob) {
    function secureBlob(...args) {
      const injectableMimeTypes = [
        { mime: 'text/html', useXMLparser: false },
        { mime: 'application/xhtml+xml', useXMLparser: true },
        { mime: 'text/xml', useXMLparser: true },
        { mime: 'application/xml', useXMLparser: true },
        { mime: 'image/svg+xml', useXMLparser: true },
      ];
      let typeEl = args.find(arg => (typeof arg === 'object') && (typeof arg.type === 'string') && (arg.type));

      if (typeof typeEl !== 'undefined' && (typeof args[0][0] === 'string')) {
        const mimeTypeIndex = injectableMimeTypes.findIndex(mimeType => mimeType.mime.toLowerCase() === typeEl.type.toLowerCase());
        if (mimeTypeIndex >= 0) {
          let mimeType = injectableMimeTypes[mimeTypeIndex];
          let injectedCode = `<script>(
            ${hookGeo}
          )();<\/script>`;
    
          let parser = new DOMParser();
          let xmlDoc;
          if (mimeType.useXMLparser === true) {
            xmlDoc = parser.parseFromString(args[0].join(''), mimeType.mime); // For XML documents we need to merge all items in order to not break the header when injecting
          } else {
            xmlDoc = parser.parseFromString(args[0][0], mimeType.mime);
          }

          if (xmlDoc.getElementsByTagName("parsererror").length === 0) { // if no errors were found while parsing...
            xmlDoc.documentElement.insertAdjacentHTML('afterbegin', injectedCode);
    
            if (mimeType.useXMLparser === true) {
              args[0] = [new XMLSerializer().serializeToString(xmlDoc)];
            } else {
              args[0][0] = xmlDoc.documentElement.outerHTML;
            }
          }
        }
      }

      return instantiate(_Blob, args); // arguments?
    }

    // Copy props and methods
    let propNames = Object.getOwnPropertyNames(_Blob);
    for (let i = 0; i < propNames.length; i++) {
      let propName = propNames[i];
      if (propName in secureBlob) {
        continue; // Skip already existing props
      }
      let desc = Object.getOwnPropertyDescriptor(_Blob, propName);
      Object.defineProperty(secureBlob, propName, desc);
    }

    secureBlob.prototype = _Blob.prototype;
    return secureBlob;
  }(Blob);

  window.addEventListener('message', function (event) {
    if (event.source !== window) {
      return;
    }
    const message = event.data;
    switch (message.method) {
      case 'updateLocation':
        if ((typeof message.info === 'object') && (typeof message.info.coords === 'object')) {
          hookedObj.genLat = message.info.coords.lat;
          hookedObj.genLon = message.info.coords.lon;
          hookedObj.fakeGeo = message.info.fakeIt;
        }
        break;
      default:
        break;
    }
  }, false);
  //]]>
}
          )();</script>
  <g data-name="Haymes Paint">
    <g data-name="Group 735" fill="#002d6a">
      <path data-name="Path 3459" d="M353.038 227.553a14.814 14.814 0 0 0-3.94-5.687 18.382 18.382 0 0 0-6.419-3.629 27.044 27.044 0 0 0-8.687-1.289h-11.929v47.439h7.326v-11.3h4.549a27.129 27.129 0 0 0 8.707-1.289 18.091 18.091 0 0 0 6.4-3.629 15.45 15.45 0 0 0 3.957-5.684 19.776 19.776 0 0 0 1.361-7.469 20.148 20.148 0 0 0-1.327-7.463m-9.292 15.941q-3.083 3.1-10.082 3.105h-4.275v-23.163h4.275q7 0 10.082 3.071t3.085 8.509a11.5 11.5 0 0 1-3.085 8.478m30.124-27.035h-.838l-20.3 47.928h7.117l2.726-6.693h21.69l2.722 6.693h7.678Zm-8.789 35.021 5.927-14.788q.421-1.047.838-2.267t.766-2.267c.236-.838.472-1.676.7-2.51.287.834.54 1.672.77 2.51q.349 1.047.735 2.267a18.072 18.072 0 0 0 .872 2.267l5.93 14.788Zm35.551-34.532h7.326v47.439h-7.326Zm27.729 19.744a19.265 19.265 0 0 1-1.5-1.71c-.486-.629-.965-1.2-1.43-1.71-.51-.6-1.023-1.231-1.536-1.881.048.742.116 1.512.215 2.3.089.65.161 1.385.209 2.2s.065 1.594.065 2.339v26.16h-6.833v-47.931h.975l26.163 28.119c.462.51.937 1.077 1.433 1.707s.961 1.2 1.43 1.71c.506.65 1.019 1.279 1.532 1.881-.1-.79-.188-1.6-.28-2.438-.1-.7-.147-1.443-.178-2.233s-.027-1.512-.027-2.161v-26.096h6.837v47.932h-.904Zm47.071-13.256h-14.09v-6.488h35.51v6.488h-14.09v40.951h-7.33Z"/>
      <path data-name="Path 3460" d="m102.244 143.513.01.137-.01-.137M65.421 62.531l.017.178-.017-.178m-6.248 42.364.017.161-.017-.161m-28.936 74.436.007-.01.048-.007-.055.017M5.51 232.854h-.024l.222-.031-.2.034m-5.113-5.229.055.123-.055-.123m86.853-155.08-.2.263.2-.263m6.166-24.118-.007-.075.007.075m40.968 28.538a.9.9 0 0 0 .489-.352l.137-.482-.031-.209-.1-.311a2.244 2.244 0 0 1-.123-.51l.062-.13a.885.885 0 0 0 .291-.65l-.017-.161-.017-.209a4.141 4.141 0 0 1 .226-1.091 5.741 5.741 0 0 0 .3-1.6 2.878 2.878 0 0 0-.15-.711 3.4 3.4 0 0 1 .366-.9 4.026 4.026 0 0 0 .592-1.922l-.014-.222a6.078 6.078 0 0 1 1.094-2.425 1.286 1.286 0 0 0 .557-.174 1.7 1.7 0 0 0 .585-1.375l.038-.332a2.29 2.29 0 0 0 1.019-2.042l.051-.475.212-.007.527-.205a1.48 1.48 0 0 0 .554-1.183 2.9 2.9 0 0 0-.089-.64l-.041-.212c.116-.195.458-.752.458-.752.2-.417.267-.5.441-.554a.884.884 0 0 0 .527-.534l.062-.311-.12-.455v-.01a1.062 1.062 0 0 1 .359-.438l.246-.291.41-1.248c.068-.359.086-.414.26-.54a1.775 1.775 0 0 0 .92-1.5l.034-.226.438-.321.089-.325a1.615 1.615 0 0 0 .944-1 14.026 14.026 0 0 0 1.553-3.485 6.034 6.034 0 0 1 .858-1.091 6.1 6.1 0 0 0 1.057-1.56l.079-.062a1.446 1.446 0 0 0 .663-1.129l-.021-.068c.157-.318.376-.773.376-.773a4.334 4.334 0 0 1 1.789-2.408.892.892 0 0 0 .472-.475 2.843 2.843 0 0 0 .164-1.074v-.438l.034-.393.1-.01.527-.154a2.23 2.23 0 0 0 .865-1.522l.089-.325a.927.927 0 0 0 .66-.831v-.109c0-.267.1-.359.626-.677a2.533 2.533 0 0 0 1.382-1.857l.116-.068a3.927 3.927 0 0 0 1.354-1.067.858.858 0 0 0 .144-.52l-.058-.376-.048-.15.349-.287a2.317 2.317 0 0 0 1.074-1.782l-.072-.3a2.6 2.6 0 0 0 .527-1.327c.085-.486.116-.5.25-.564a.871.871 0 0 0 .516-.8v-.1l.068-.209.486.007a1.578 1.578 0 0 0 1.005-1.057l.168-.325-.113.051a1.439 1.439 0 0 0 .677-.831 1.36 1.36 0 0 0 .954-.267 1.551 1.551 0 0 0 .53-1.029c.109-.236.486-1.057.486-1.057.315-.831.527-1.224 1.18-1.378a1.24 1.24 0 0 0 .622.168c.776-.007 1.4-.735 1.782-1.306a11.287 11.287 0 0 1 3.3-.964l.362.017a2.979 2.979 0 0 0 1.129-.123 1.588 1.588 0 0 0 1.43.448 4.6 4.6 0 0 1 1.006 1.2 33.328 33.328 0 0 1 .5 5.951c0 1.515-.075 3.1-.174 4.815a1.447 1.447 0 0 0-.38 1.019v.174a6.405 6.405 0 0 0-1.833 3.947 5.172 5.172 0 0 1-.964 2.627l-.181.427-.451.3-.222.363.021.168-.034.031a1.533 1.533 0 0 0-.663 1.194l.062.2a10.172 10.172 0 0 0-1.6 2.456 7.46 7.46 0 0 1-1.477 2.305l-.191.267-.267.937a1.838 1.838 0 0 1-.164.585 1.159 1.159 0 0 0-.848.954l-.205.157a1.9 1.9 0 0 0-.971 1.57l.007.13c0 .109-.038.157-.3.414a2.452 2.452 0 0 0-.763 1.142 2.246 2.246 0 0 0-1.139 1.566l-.144.421-.233.041a.74.74 0 0 0-.657.352l-.824 1.327a5 5 0 0 1-1.467 1.878l-.205.188-1.306 1.768a16.424 16.424 0 0 1-3.406 3.848l-.277.349-.144.356c-.277.684-.393.869-.725.93a.907.907 0 0 0-.708.876l-.174.106-.814.66c-.161.13-.109.144-.144.352-.021.109-.2.229-.472.4a2.291 2.291 0 0 0-1.224 1.707 4.309 4.309 0 0 1-.872.876 4.024 4.024 0 0 0-1.467 1.9 2.784 2.784 0 0 0-1.132 1.573c-.243.681-.26.677-.677.629a.882.882 0 0 0-.687.212 4.5 4.5 0 0 0-.906 1.255c-.325.592-.469.79-.677.8a.882.882 0 0 0-.845.882c0 .212-.092.3-.776.626a2.4 2.4 0 0 0-1.618 1.611c-.055.181-.383.414-.769.674a5.529 5.529 0 0 0-1 .872l-.2.072a2.185 2.185 0 0 0-1.546 1.385 5.446 5.446 0 0 1-2.832.906 2.562 2.562 0 0 1-.657-1.683 8.083 8.083 0 0 0-.291-1.409l.075-.5a2.636 2.636 0 0 0-.051-.482m45.445-26.648-.031.007.031-.007m-45.045 181.21.1-.431a2.769 2.769 0 0 0-.516-1.454 1.287 1.287 0 0 1-.26-.544l.007-.089v-.106a1.446 1.446 0 0 0-.732-1.221.921.921 0 0 0-.421-.783c-.133-.072-.185-.2-.3-.6a2.934 2.934 0 0 0-.551-1.1l.041-.188a1.946 1.946 0 0 0-1.351-1.686l-.342-.181v-.024a1.033 1.033 0 0 0-.3-.77 8.229 8.229 0 0 1-1.9-2.794 15.09 15.09 0 0 0-1.187-2.045l.072-.414a1.2 1.2 0 0 0-.732-1.125l-.3-.058-.106-.438-.335-1.077c-.065-.2-.116-.188-.294-.3a1.917 1.917 0 0 1-.66-1.06 3.649 3.649 0 0 0-1.077-1.648 9.921 9.921 0 0 0-1-2.651l-.079-.127a8.886 8.886 0 0 1-1.491-4 14.843 14.843 0 0 0-1-3.42 30.41 30.41 0 0 1-.722-6.809.9.9 0 0 0-.215-.561 3.789 3.789 0 0 1-.547-2.38 6.728 6.728 0 0 0-.482-2.692l.085-.472a2.6 2.6 0 0 0-.267-1.043l-.075-.185a4.888 4.888 0 0 0 .126-.855v-.239l.048-.677.007-.161a1.3 1.3 0 0 0-.13-.663l-.041-.157a3.176 3.176 0 0 1 .048-.41l.072-.7.01-.089-.239-.431.034-.2a2.458 2.458 0 0 0 .075-.571 1.488 1.488 0 0 0-.373-.9c-.01-.3-.065-1.477-.065-1.477l.01-.554a6.422 6.422 0 0 0-.253-1.912c-.1-1.631-.12-3.276-.12-4.908 0-.838 0-1.676.01-2.493l.014-2.312a22.89 22.89 0 0 0 .092-5.677 19.155 19.155 0 0 1 .075-5.116 7.966 7.966 0 0 0 .38-2.705c0-.243 0-.486-.007-.722 0-.219-.007-.441-.007-.66a4.758 4.758 0 0 1 .359-2.175l.1-.41-.017-.191a2.887 2.887 0 0 1-.075-.674 7.169 7.169 0 0 1 .229-1.536 9.961 9.961 0 0 0 .291-2.141 6 6 0 0 0-.079-.793 8.39 8.39 0 0 0 1.293-4.863c0-.308-.017-.609-.031-.91a8.12 8.12 0 0 0 .592-2.336 7.72 7.72 0 0 1 .352-1.693l.027-.178c.171-.27.513-.855.513-.855l-.092-.243a6.115 6.115 0 0 0 .52-2.4l.109-1.248a4.581 4.581 0 0 0 .4-1.833c.017-.7.041-1.057.424-1.368a.884.884 0 0 0 .325-.691v-.168a5.818 5.818 0 0 1 .585-2.158 6.926 6.926 0 0 0 .687-2.661l-.021-.25a8.292 8.292 0 0 0 1.1-2.452 8.8 8.8 0 0 1 .605-1.625.851.851 0 0 0 .362-.674v-1.412l.3-.609.229-.489.133-.469v-.858a4.007 4.007 0 0 0 .66-1.891 2.034 2.034 0 0 1 .482-1.293.9.9 0 0 0 .233-.6l-.017-.161-.017-.205a2.694 2.694 0 0 1 .51-1.283 5.489 5.489 0 0 0 .633-1.6 1.056 1.056 0 0 0 .773-.465l.13-.431.051-.031a1.51 1.51 0 0 0 .975-1.341l-.062-.26.291-.27a1.137 1.137 0 0 0 .54-.356l.516-.585a6.327 6.327 0 0 0 .858-1.1c2.055-1.122 3.228-1.929 3.594-2.753a1.787 1.787 0 0 1 1.183-.154.874.874 0 0 0 .732-.079.889.889 0 0 0 .414-.612c.079-.455.489-.787 1.152-1.272l.746-.578a.793.793 0 0 0 .27-.561l.417-.1.209-.034a1.21 1.21 0 0 0 .694-.64l-.027.048.205-.147a1.755 1.755 0 0 0 .927-1.477l-.01-.058.291-.325a1 1 0 0 0 .78.044.962.962 0 0 0 .557-.527c.133-.38.715-.708 1.276-1.023l.376-.215c.239-.144.369-.708.4-.982l-.007.075.325-.321.068-.055a3.727 3.727 0 0 0 1.758-1.9c.168-.236 1.532-1.4 2.185-1.956 1.279-1.084 1.382-1.173 1.382-1.638l.062-.147.6-.246a.879.879 0 0 0 .951-.882c0-.092.154-.246.359-.448a2.384 2.384 0 0 0 .79-1.433 3.235 3.235 0 0 0 2.257-1.816 1.774 1.774 0 0 0 .9-1.091 1.226 1.226 0 0 0 .8-1.276 2.5 2.5 0 0 0 1.676-.855l.1-.807.007.475a4.457 4.457 0 0 1 1.843-1.628 1.756 1.756 0 0 0 .893-1.655l-.082-.486.144-.079.78-.605.2-.417-.01-.229.205-.147a2.419 2.419 0 0 0 .619-.667 2.242 2.242 0 0 0 1.806-1.792c.188-.626.263-.756.65-.841a.956.956 0 0 0 .677-.954v-.116l-.034-.267.267-.116a2.293 2.293 0 0 0 1.238-1.2 1.515 1.515 0 0 0 .773-1.371v-.048a1.32 1.32 0 0 0 .735-.291 1.577 1.577 0 0 0 .588-1.043c.3-.133.609-.325.65-.547 0 0 .062-.328.1-.561l.39-.133a.9.9 0 0 0 .328-.694l-.017-.171a4.768 4.768 0 0 1-.1-.92 1.77 1.77 0 0 1 .513-1.344 3.879 3.879 0 0 0 1.488-.489 2.356 2.356 0 0 0 1.057-1.375 1.465 1.465 0 0 0 .6-.3 1.931 1.931 0 0 0 .551-1.454l.051-.4c.663-.127 1.07-.622 1.18-1.539l.048-.267a1.564 1.564 0 0 0 1.2-1.1l.051-.133.4-.28.12-.445-.041-.28-.014-.048.021-.055a.584.584 0 0 1 .369-.219.988.988 0 0 0 .674-1l-.007-.079.01-.01.024.147V46.633a4.939 4.939 0 0 0 .77-1.789l.027-.106c1.3-1 2.052-3.393 2.233-4.053a9.138 9.138 0 0 0 .657-1.655 3.254 3.254 0 0 1 .858-1.686l.27-.369a9.793 9.793 0 0 0 .65-2.674 1.678 1.678 0 0 0 .927-1.594l-.027-.465-.024-.39.044-.26-.1.137.366-.7.085-.195a.854.854 0 0 0 .646-.711s.161-1.4.205-1.837a4.788 4.788 0 0 0 1.18-3.068c.161-2.2.486-4.408.8-6.542l.417-2.921-.017-.325a17.094 17.094 0 0 1 .034-5.311l.082-.783a.857.857 0 0 0-.168-.612 2.478 2.478 0 0 1-.596-1.519 1.57 1.57 0 0 0-.284-.653l.051.068-.034-.256a1.971 1.971 0 0 0-.458-1.245v-.01c0-1.088-1.05-1.635-1.546-1.895l-.4-.233a1.853 1.853 0 0 0-1.525-.971l-.116-.021c-.964-1.782-2.777-1.819-4.155-1.8a4.7 4.7 0 0 1-1.73-.147l-.534-.048a5.933 5.933 0 0 1-1.447.079 4.959 4.959 0 0 0-2.278.315.878.878 0 0 0-.469.513c-.079.233-.267.291-1.3.215a3.74 3.74 0 0 0-1.9.174l-.294.236c-.253.3-.715.359-1.447.424a3 3 0 0 0-2.579 1.293 6.827 6.827 0 0 0-3.56 1.436 4.817 4.817 0 0 1-2.907 1.163l-.373.062a11.011 11.011 0 0 0-4.49 3.355l-.106.188c-.082.178-.246.233-.927.311l-.554.075a.839.839 0 0 0-.7.64c-.1.369-.363.561-.855.893l-.831.633a.848.848 0 0 0-.28.616l-.01.089-.356.044a2.043 2.043 0 0 0-1.748 1.17l-.062.376V14.411l-.185.157a2.782 2.782 0 0 0-.581.674l-.373.137a.885.885 0 0 0-.257.547l-.127.024a1.61 1.61 0 0 0-1.447.9l-.068.318a19.209 19.209 0 0 0-2 3.181 3.124 3.124 0 0 0-2.052 2.305c-.294.886-.428 1.194-1.1 1.283a.884.884 0 0 0-.749.694 7.244 7.244 0 0 1-1.31 2.49l-.869 1.33a56.674 56.674 0 0 1-3.28 5.53l-.144.465a3.475 3.475 0 0 1-1.156 2.175 8.724 8.724 0 0 0-1.262 1.758l-.075.222a4.057 4.057 0 0 1-1.012 1.6 5.213 5.213 0 0 0-1.4 2.6 3.849 3.849 0 0 0-.917 1.929c-.192.8-.308 1.149-.728 1.351a.879.879 0 0 0-.5.728 3.656 3.656 0 0 1-.605 1.549 6.083 6.083 0 0 0-.694 1.57l-.024.147a2.907 2.907 0 0 1-.664 1.313 4.57 4.57 0 0 0-.869 1.956 2.517 2.517 0 0 0-.417 1.047l-.031.2-.479.192a.94.94 0 0 0-.291.619v.058a1.585 1.585 0 0 1-.417.913 3.41 3.41 0 0 0-.715 1.809 3.879 3.879 0 0 0-1.04 2.11c-.133.612-.222.947-.564 1.218a.868.868 0 0 0-.339.694v.062a1.732 1.732 0 0 1-.315.746 3.052 3.052 0 0 0-.5 1.457c-.116.212-.534.961-.534.961a5.675 5.675 0 0 0-1.125 2.965l.079.544a7.42 7.42 0 0 0-.7 1.529 5.942 5.942 0 0 1-.6 1.341l-.116.274-.369 1.18a9.514 9.514 0 0 0-.54 2.144 3.11 3.11 0 0 0-.752 1.867 2.809 2.809 0 0 1-.174.776 3.866 3.866 0 0 0-1.2 2.811 2.806 2.806 0 0 1-.424 1.549l-.079.12a3.54 3.54 0 0 0-.41 1.368c-.027.205-.079.592-.154.64l-.332.465-.469 1.265a12.233 12.233 0 0 0-.715 2.288 3.336 3.336 0 0 0-.838 1.778 2.812 2.812 0 0 1-.2.65 1.916 1.916 0 0 0-.79 1.112c-.065.209-.089.263-.15.318l-.086.089a13.224 13.224 0 0 1-3.82 2.7l-.551.311a4.262 4.262 0 0 0-1.238.605c-.53.363-.807.53-1.245.434a.91.91 0 0 0-.7.151 6.335 6.335 0 0 1-2.066.834 6.59 6.59 0 0 0-2.887 1.4c-.215.01-.506.034-.506.034a4.086 4.086 0 0 0-2.753.862c-.243.116-1.577.739-1.577.739a6.121 6.121 0 0 1-2.654.941l-.438.113-1.282.787a8.987 8.987 0 0 1-2.8 1.365 7.907 7.907 0 0 0-2.158.188 3.291 3.291 0 0 1-2.336-.082 1.444 1.444 0 0 1-.766-.845c-.075-.985-.116-1.9-.116-2.767 0-.793.044-1.542.109-2.285a1.463 1.463 0 0 0 .451-.961 2.607 2.607 0 0 0-.226-.968l-.13-.376a4.387 4.387 0 0 0 .537-1.9 2.225 2.225 0 0 1 .315-1.272.9.9 0 0 0 .212-.571l-.12-.287.2-.209a.894.894 0 0 0 .581-.828v-.065l-.014-.414a14.184 14.184 0 0 1 .342-2.609 15.937 15.937 0 0 0 .3-2.209 1.736 1.736 0 0 0 .38-1.135l.021-.2.181-.226.092-.66c.021-.243.068-.739.171-.793l.393-.434a4.734 4.734 0 0 0 .294-1.884v-.735a3.549 3.549 0 0 1 .062-.739 2.746 2.746 0 0 0 .65-1.919c0-.222-.01-.441-.024-.643s-.021-.383-.021-.561l.051-.438a3.4 3.4 0 0 0 .66-1.949l.062-.458a3.7 3.7 0 0 0 .53-1.662 2.3 2.3 0 0 1 .205-.848.892.892 0 0 0 .212-.578l-.017-.147a4.065 4.065 0 0 1-.051-.626 5.369 5.369 0 0 1 .475-1.987l.051-.291-.085-.39.116-.15a2.068 2.068 0 0 0 .588-1.347l-.072-.51-.137-.253.075-.089a2.078 2.078 0 0 0 .674-1.412l-.092-.332a5.754 5.754 0 0 0 1.067-3.471 3 3 0 0 0 .472-1.587 8.758 8.758 0 0 0-.058-.893 5.934 5.934 0 0 1-.051-.674c0-.38.092-.51.328-.636a.888.888 0 0 0 .455-.773l-.01-.058.024-.024a1.644 1.644 0 0 0 .65-1.2l-.085-.28.38-.144a.928.928 0 0 0 .318-.619l.1-1.053a12.436 12.436 0 0 0 .116-1.553l-.007-.226a3.419 3.419 0 0 0 .523-1.96c.024-.807.085-.92.318-1.023a.9.9 0 0 0 .486-.557l.034-.25-.144-.486-.051-.2a2.9 2.9 0 0 1 .14-.674s.085-.544.14-.886a3.772 3.772 0 0 0 .5-1.953l-.01-.366a6.534 6.534 0 0 0 .746-2.729l.236-1.406a11.455 11.455 0 0 0 1.173-4.668 12.038 12.038 0 0 1 .742-3.646l.075-.352v-.075l-.017-.393a9.787 9.787 0 0 1 .116-1.265 9.223 9.223 0 0 0 .13-1.4 5.321 5.321 0 0 0-.27-1.683 5.4 5.4 0 0 1-.205-1.389 3.846 3.846 0 0 0-1.371-3.153 2 2 0 0 0-.947-1.265l-.3-.215v-.113a.72.72 0 0 0-.431-.756l-1.139-.428c-.622-.178-.876-.274-.988-.52a.871.871 0 0 0-.5-.479 20.437 20.437 0 0 0-12.22-.219l-.363.195-.6.263s-.445.222-.8.393a2.062 2.062 0 0 0-1.792.985l-.253.287a1.164 1.164 0 0 0-.821.366l-1.019 1.111a8.612 8.612 0 0 0-1.652 2.011 3.682 3.682 0 0 0-.9 1.99 2.678 2.678 0 0 1-.451 1.214l-.168.325a36.362 36.362 0 0 0-1.047 6.023c-.157 1.423-.332 2.9-.66 4.521a1.478 1.478 0 0 0-.168.646 2.8 2.8 0 0 0 .082.616.883.883 0 0 0-.421.643l-.092 1.908a1.312 1.312 0 0 0-.239.663l-.15.205-.079.113a2.078 2.078 0 0 0-.226.971 3.71 3.71 0 0 0 .072.694l.038.393-.1.5.048.28.048.253a2.92 2.92 0 0 1-.2.831 4.17 4.17 0 0 0-.27 1.32 2.208 2.208 0 0 0 .144.742 3.621 3.621 0 0 0-.581 1.717l.109.438a7.5 7.5 0 0 0-.257 1.792 3.167 3.167 0 0 1-.438 1.86.912.912 0 0 0-.191.551l.007.133a3.862 3.862 0 0 1 .048.619 8.02 8.02 0 0 1-.342 2.031l-.27 1.176-.01.127v.079l.007.321a11.889 11.889 0 0 1-.448 2.815 12.921 12.921 0 0 0-.479 3.061 6.519 6.519 0 0 0 .1.978 3.177 3.177 0 0 0-.465 1.628c0 .209.01.41.017.605v.773a4.178 4.178 0 0 0-.513 1.3l-.161.575-.092.4v.226a34.968 34.968 0 0 1-.694 6.156 42.349 42.349 0 0 0-.674 5.2 12.308 12.308 0 0 0-.362 2.445 7.21 7.21 0 0 1-.448 2.473l-.1.393.024.2a5.552 5.552 0 0 1 .137 1.235 12.86 12.86 0 0 1-.424 2.791l-.191.845-.017.181.01.15.014.109a1.436 1.436 0 0 1-.089.386l-.161.687-.021.144.038.215.021.147a1.9 1.9 0 0 1-.4.9 3.062 3.062 0 0 0-.588 1.57 1.712 1.712 0 0 0 .226.783 9.085 9.085 0 0 0-.407 2.418s-.041.537-.072.882a1.193 1.193 0 0 0-.311.838l.034.373a1.051 1.051 0 0 0-.321.67l.014.137a3.4 3.4 0 0 1 .072.7 7.22 7.22 0 0 1-.185 1.419 9.2 9.2 0 0 0-.216 1.775 5.005 5.005 0 0 0 .062.663 14.142 14.142 0 0 0-.92 2.907 6.927 6.927 0 0 1-1.539 3.625.919.919 0 0 0-.26.609 2.884 2.884 0 0 0-.7 1.228c-.144.428-.205.575-.486.7-.243.106-.363.161-.431.414l-.195.691-.383.421-.058.27a1.581 1.581 0 0 0-.964.7 2.916 2.916 0 0 0-.865.845 1.358 1.358 0 0 1-.544.557l-.4.4c-.294.592-.855.858-1.751 1.252a5.305 5.305 0 0 0-2.394 1.71c-1.406.551-2.9 1-4.343 1.43l-3.023.941-.27.147a8.29 8.29 0 0 1-3.82 1.669.851.851 0 0 0-.5.284c-.2.229-.462.267-1.05.3a2.737 2.737 0 0 0-2.264 1.053 11.284 11.284 0 0 1-4.768 1.765.9.9 0 0 0-.564.321 3.3 3.3 0 0 1-1.375.752 7.764 7.764 0 0 0-1.447.681l-.493.181a12.686 12.686 0 0 1-3.762.982.9.9 0 0 0-.715.441c-.164.284-.469.4-.988.585a3.907 3.907 0 0 0-1.44.865 19.855 19.855 0 0 0-4.853 1.005l-.393.123-.256.13-.373.27c-.749.568-1.245.9-1.813.807a.864.864 0 0 0-.735.212 5.617 5.617 0 0 1-1.949.958 4.842 4.842 0 0 0-3.276 2.415l-.051.1a5.791 5.791 0 0 0-.619 1.861 2.643 2.643 0 0 0-.773 1.963 8.178 8.178 0 0 0 .15 1.382 6.438 6.438 0 0 1 .116.964l-.017.239-.024.191a.878.878 0 0 0 .356.664v.031l-.01.185a2.032 2.032 0 0 0 .092.547l-.12.445.051.335a1.385 1.385 0 0 0 1.07.855l-.038.137a1.514 1.514 0 0 0 .828 1.238l.144.1.109.257a4.769 4.769 0 0 0 2.893 1.406 7.27 7.27 0 0 1 1.481.427c.181.089.178.133.376.086l1.074-.26s.383-.109.6-.174l.434.188a10.494 10.494 0 0 0 5.4-1.259 9.119 9.119 0 0 1 5.11-1.245.872.872 0 0 0 .766-.414c.178-.284.513-.39 1.091-.557a4.586 4.586 0 0 0 1.525-.667l.215-.267.284-.082a2.105 2.105 0 0 0 1.094-.551 25.893 25.893 0 0 0 3.964-.551l.455-.239.783-.646a7.842 7.842 0 0 0 1.358-1.341 1.291 1.291 0 0 0 .947.12l.387-.01a.878.878 0 0 0 .728-.428c.181-.294.557-.776 1.06-.64a1.212 1.212 0 0 0 1.029-.492l-.031.038.465-.123a2.067 2.067 0 0 0 1.556-1 3.022 3.022 0 0 0 .835-.171c.735.277 1.416-.366 1.878-.845l.267-.257.154.068a1.59 1.59 0 0 0 2.22-.486 1.447 1.447 0 0 0 1.3 1.248h-.027l.082.116.1.479-.051.339-.058.318a.879.879 0 0 0 .284.653 2.314 2.314 0 0 1 .708 1.86 13.012 13.012 0 0 1-.157 1.7s-.082.862-.13 1.371a3.108 3.108 0 0 0-.787 1.341c-.154.421-.243.626-.38.677a.882.882 0 0 0-.554.612 12.725 12.725 0 0 1-1.04 2.514s-.554 1.241-.793 1.785a.93.93 0 0 0-.564.4l-.113.38a3.554 3.554 0 0 0-.612 2l-.021.219a2.135 2.135 0 0 0-.79 1.484l-.065.3a.911.911 0 0 0-.564.664l-.229 1.146-.041.178-.332.39-.345.1a1.411 1.411 0 0 0-.4 1.1v.251l-.01.014c-.369.653-.653 1.036-1.033 1.077a.87.87 0 0 0-.78.769l-.027.257c-.055.486-.133 1.228-.376 1.378a1.065 1.065 0 0 0-.4.657l-.01.068-.243.174a1.01 1.01 0 0 0-.393.575 7.547 7.547 0 0 1-.687 1.878l-.674 1.7-.007.034-.274.287a7 7 0 0 0-1.772 2.705 2.246 2.246 0 0 0-.626 1.365l-.024.127-.2.181a2.359 2.359 0 0 0-1.139 1.83v.065l-.024.038.027-.007v.014a1.5 1.5 0 0 0-.677.424l-.687 1.118a8.59 8.59 0 0 0-1.242 2.507 4.773 4.773 0 0 0-1.053 1.665 3.965 3.965 0 0 1-.523.958l-.178.027-.51.831-.233.1a.889.889 0 0 0-.233.6v.072l.007.116a2.867 2.867 0 0 1-.479 1.33s-.277.633-.462 1.04a3.249 3.249 0 0 0-1.4 1.861l-.051.13a1.848 1.848 0 0 0-1.214 1.689 1.187 1.187 0 0 1-.14.523 4.477 4.477 0 0 0-1.631 1.99 5.6 5.6 0 0 1-.968 1.683 6.485 6.485 0 0 0-1.125 2.209 2.963 2.963 0 0 0-1.211 1.915c-.123.486-.2.759-.486.971l.534-.178-1.019.438a1.471 1.471 0 0 0-.291.862l-.6.164c-.308.079-.386.263-.462.571a2.429 2.429 0 0 1-1.026 1.317l-.622.537a.8.8 0 0 0-.28.616l.034.267.021.127c0 .168-.106.335-.434.735l-.219.267a5.3 5.3 0 0 0-1.436 1.542l-.581.807-.137.428a7.289 7.289 0 0 0-1.3 2.1h-.12s-.26.349-.431.568a2.789 2.789 0 0 0-2.141 2.021c-.274.7-.424.992-.793 1.1l-.116.044a1.6 1.6 0 0 0-.848 1.139 2.626 2.626 0 0 0-.51.366l-.226.226a2.072 2.072 0 0 0-.787 1.371l-.3.332-.205.27.116-.041a2.043 2.043 0 0 0-.923 1.026l.062-.3-.215.321-.1.434-.164 1.549a5.575 5.575 0 0 0 .195 3.458l-.01.127a1.544 1.544 0 0 0 .51 1.512l.386.537c.889 1.279 2.353 3.341 4.094 3.109l.037.062a1.522 1.522 0 0 0 .575.6c1.33 1.3 3.724.568 4.463.28 1.108.044 2.223-1.064 2.681-1.59a2.588 2.588 0 0 1 .862-.537 3.057 3.057 0 0 0 1.806-1.672l.055-.315-.007-.12-.01-.12c0-.54.537-.971 1.289-1.512l.322-.239a.859.859 0 0 0 .349-.694l-.027-.243a2.356 2.356 0 0 1-.1-.636c0-.746.472-1.2 1.3-1.929a5.852 5.852 0 0 0 1.7-2.172 2.066 2.066 0 0 0 1.471-2.158l-.021-.489c-.014-.226-.021-.386-.021-.51 0-.369.072-.386.318-.427a.881.881 0 0 0 .718-.8c.027-.294.2-.434.824-.787l1.053-.739.1-.12a3.716 3.716 0 0 0 .534-1.327 1.9 1.9 0 0 1 .369-.876l-.075.072a2.961 2.961 0 0 0 .821-1.515l.072-.174a1.467 1.467 0 0 0 .9-.233 2.242 2.242 0 0 0 .729-1.939l.055-.609.038-.116.116-.161.161-.017a.875.875 0 0 0 .821-.185 2.5 2.5 0 0 0 .749-1.847l-.089-.462a2.367 2.367 0 0 1 1.029-1.115.877.877 0 0 0 .376-.667l.113-.024.776-.2a.7.7 0 0 0 .482-.4l.068-.28-.079-.4-.072-.38c0-.363.226-.643.691-1.159a6 6 0 0 0 .934-1.375 1.337 1.337 0 0 0 .715-.421 1.31 1.31 0 0 0 .27-.821 2.962 2.962 0 0 0-.109-.708l-.051-.3a3.585 3.585 0 0 0 .616-1.139 1.979 1.979 0 0 1 .2-.431 2.008 2.008 0 0 0 1.1-.982l.236-.342a1.08 1.08 0 0 0 .619-.718s.263-1.789.308-2.093a6.54 6.54 0 0 0 1.036-1.97c.407-1.125.67-1.765 1.454-1.919a.885.885 0 0 0 .711-.865v-.123a2.962 2.962 0 0 1 .506-1.32 4.707 4.707 0 0 0 .616-1.71 2.53 2.53 0 0 0 1.019-1.662l.1-.321a.856.856 0 0 0 .852-.4 1.653 1.653 0 0 0 .253-.91 3.263 3.263 0 0 0-.089-.687v-.016a1.621 1.621 0 0 0 .677-.188 1.955 1.955 0 0 0 .811-1.385l.133-.445a.875.875 0 0 0 .619-.828l-.017-.2-.034-.188c0-.144.106-.215.516-.469a2.444 2.444 0 0 0 1.3-1.624 2.227 2.227 0 0 0 1.07-2.114l-.007-.4-.014-.434c0-.54.1-.551.544-.588a.866.866 0 0 0 .677-.417l.13-.465-.062-.325-.055-.277c0-.328.233-.646.681-1.2l.407-.52a.785.785 0 0 0 .168-.513 1.875 1.875 0 0 1 .407-.961 4.617 4.617 0 0 0 .51-1.125 3.023 3.023 0 0 0 .91-1.686c.168-.681.233-.752.489-.817a.877.877 0 0 0 .564-.445l.1-.41-.058-.3-.051-.256a1.744 1.744 0 0 1 .417-.872 3.979 3.979 0 0 0 .663-1.354l.014-.127-.072-.441-.082-.243.4-.236a2.218 2.218 0 0 0 1.317-1.847l-.038-.144a3 3 0 0 0 .968-2.507v-.017c.25-.13.862-.438.862-.438l.2-1.033-.062.506.455-.845a4.993 4.993 0 0 0 .817-2.22 1.07 1.07 0 0 1 .588-.7.8.8 0 0 0 .424-.479l.256-.749a3.108 3.108 0 0 1 .917-1.69.9.9 0 0 0 .352-.609 3.9 3.9 0 0 1 .5-1.31 5.06 5.06 0 0 0 .605-1.837 5.252 5.252 0 0 0 1.2-3.013c.2-1.293.339-1.984 1.235-2.367a.868.868 0 0 0 .537-.725 1.415 1.415 0 0 1 .4-.674 2.913 2.913 0 0 0 .667-1.375l.6-.694a3.452 3.452 0 0 1 1.159-1.094l.1-.058a3.918 3.918 0 0 0 1.17-1.433c.321-.581.445-.728.756-.773a2.853 2.853 0 0 0 1.727-.356l.6-.243a1.072 1.072 0 0 0 .677-.834c.007-.274.062-.352.065-.352a3.1 3.1 0 0 1 .749-.038 4.159 4.159 0 0 0 1.556-.181.891.891 0 0 0 .571-.828v-.52c.284-1.091 3.331-1.8 4.094-1.683a.991.991 0 0 0 .982-.643l.038-.1a2.733 2.733 0 0 1 .783-.027 2.719 2.719 0 0 0 2.6-.917l.1-.164c.133-.339.256-.4 1.183-.356a3.464 3.464 0 0 0 1.8-.239 1.031 1.031 0 0 0 .486-.735v-.014l.626.038a3.74 3.74 0 0 0 1.07 0 2.364 2.364 0 0 0 2.705-1.7 3.115 3.115 0 0 0 1.991-.653c.53-.352.783-.5 1.255-.376a.885.885 0 0 0 .78-.161 3.171 3.171 0 0 1 1.761-.345 5.25 5.25 0 0 0 2.811-.65l.321-.462-.12.222.205-.082a.846.846 0 0 0 .427.417c.178.058.243.195.342.975a4.018 4.018 0 0 0 .561 1.823l-1.477 7.312-.014.1a41.2 41.2 0 0 1-.917 5.281 31.855 31.855 0 0 0-.978 6.871 15.412 15.412 0 0 0 .181 2.285 5.383 5.383 0 0 0-.362 2.008 2.576 2.576 0 0 1-.243 1.4l-.195.5-.332 5.109V152.646l.058.38a15.91 15.91 0 0 1 .191 2.141 3.83 3.83 0 0 1-.486 2.083l-.144.52.188 5.229c.038 2.073.075 4.217.284 6.584l-.017.41a11.9 11.9 0 0 0 .3 2.353 11.128 11.128 0 0 1 .294 2.209l-.014.39V175a1 1 0 0 0 .2.575v.007l-.072.39a3.212 3.212 0 0 0-.113.783 1.744 1.744 0 0 0 .486 1.1 112.106 112.106 0 0 0 1.778 11.751l.161.356a3.445 3.445 0 0 1 .554 2.226v.8a6.062 6.062 0 0 0 .5 2.7l.072.123a4.444 4.444 0 0 1 .544 1.84 7 7 0 0 0 .51 1.857l-.1.4a2.243 2.243 0 0 0 .715 1.515c.274.3.366.438.366.629l-.007.079a2.887 2.887 0 0 0-.1.715 3.605 3.605 0 0 0 .311 1.347 2.136 2.136 0 0 1 .195.722l-.041.267-.038.246a.892.892 0 0 0 .212.585s1.064 1.228 1.365 1.573a2.75 2.75 0 0 0 .585 1.614l.1.137-.1-.137.113.38a2.681 2.681 0 0 0 .455.964 12.152 12.152 0 0 0 1.765 4.983 13.776 13.776 0 0 1 1.218 2.647c.1 1.676 1.72 3.335 2.534 4.152l.188.2a.882.882 0 0 0 .513.212l.072.12a1.646 1.646 0 0 0 .92.855c.113.055.191.1.191.386a4.321 4.321 0 0 1-.044.534l-.01.116a.9.9 0 0 0 .373.722c.2.14.256.359.352.879a3.354 3.354 0 0 0 .732 1.662 2.492 2.492 0 0 0 1.18 1.1l.869.588.154.239-.1.236-.147.486.15.492a1.919 1.919 0 0 0 1.426.8l.257.055.085.062c.205.13.26.38.349.917a2.451 2.451 0 0 0 1.132 1.908 2.631 2.631 0 0 0 1.731 1.354 2.481 2.481 0 0 0 .445.557l.027.024.123.417a.9.9 0 0 0 .6.39l.41.3a2.062 2.062 0 0 0 1.631.653l.342.2c.653.407 1.317.814 1.919.462l.393-.157.14-.072a.87.87 0 0 0 .93-.133 4.282 4.282 0 0 0 1.361-2.965 3.441 3.441 0 0 0 .5-1.8 9.576 9.576 0 0 0-.222-1.789l-.123-.79m312.118-41.211-.058.034-.034.031.092-.065m-249.591-37.467-.02-.092-.007-.024.027.116m261.484-19.17-.01.027.031.031v-.031l-.024-.027m129.095-34.477.26.044-.26-.044m-9.241 18.783.014-.2-.014.2m-65.062 13.82-.01.127.01-.127m-2.986-15.588-.017-.106a1.715 1.715 0 0 0-.646-1.32 16.3 16.3 0 0 1-.349-3.143c0-.2 0-.4.01-.6a1.481 1.481 0 0 0 .229-.742 2.786 2.786 0 0 0-.075-.592l-.034-.185a2.754 2.754 0 0 0 .448-1.6l-.007-.366-.007-.308c0-.28.024-.445.113-.537a.867.867 0 0 0 .246-.609l-.01-.127a3.825 3.825 0 0 1-.041-.557 3.16 3.16 0 0 1 .968-2.384.886.886 0 0 0 .315-.67l-.092-.376-.065-.205c0-.116.1-.229.414-.54l.086-.089a3.065 3.065 0 0 0 1.5-.937l.113-.113.4-.513a2.815 2.815 0 0 1 .622-.7c1.04.239 1.758-.975 2.1-1.734a2.1 2.1 0 0 0 .934-.448l.393.021a4.262 4.262 0 0 0 2.7-2.538 6.122 6.122 0 0 1 .9-.25l1.043-.321-.116.058a19.031 19.031 0 0 1 3.724-.838 2.032 2.032 0 0 0 1.43.3h.366a1.088 1.088 0 0 0 .749.592l.086.01.2.41a4.072 4.072 0 0 0 .414.752 3.721 3.721 0 0 0-.1.609c0 .212.014.434.031.65s.014.41.014.581c0 .547-.075.865-.362 1.077-.212.15-.287.137-.3.4l-.062.934.01.233a.518.518 0 0 0-.267.369l-.205 1-.051.4-.27.154a2.1 2.1 0 0 0-1.286 1.707l.017.113a3.372 3.372 0 0 1-1.539 1.754.883.883 0 0 0-.523.8l.038.233.01.072-.164.308a1.024 1.024 0 0 0-.64.852l.007-.068-.588.783-.164.192-.205.564.034-.164-.109.15a1.789 1.789 0 0 0-.414 1 13.538 13.538 0 0 0-1.6 1.522 10.584 10.584 0 0 1-1.491 1.453 3.736 3.736 0 0 0-1.375.852 1.9 1.9 0 0 1-.882.571l-.451.222a7.3 7.3 0 0 1-6.139 2m19.091-21.693-.024.144-.007-.014.031-.13m-126.08 19.414.287.062-.287-.062m-81.4 40.469.082-.127-.082.127m-8 8.577.048-.01-.051.01m16.655 32.436-.1-.044.1.044m127.16-4.911-.229-.12-.185-.5a1.837 1.837 0 0 0 .414.619m92.665 7.8-.195-.017.195.017m-285.157 18.517a7.786 7.786 0 0 0-.41 1.765c-.106.212-.465.91-.465.91a8.9 8.9 0 0 1-.941 1.659.885.885 0 0 0-.2.561v.055c0 .52-.28.8-.821 1.293a3.725 3.725 0 0 0-1.276 1.967 1.689 1.689 0 0 0-.78 1.135l-.048.161-.034.243.1.342-.055.065a2.152 2.152 0 0 0-.465.958 3.824 3.824 0 0 0-.585.742c-.291.472-.383.564-.575.578a.889.889 0 0 0-.77.622 9.842 9.842 0 0 1-1.672 3.564.917.917 0 0 0-.191.592l.038.209-.123.13a2.547 2.547 0 0 0-.568.988 4.791 4.791 0 0 0-1.556 1.884 4.565 4.565 0 0 1-.735 1.125l-.181.294-.085.215c-.161.445-.445 1.176-.8 1.324a.885.885 0 0 0-.551.817 3.515 3.515 0 0 1-.838 1.672l-.339.492-.137.431a1.516 1.516 0 0 0-.547 1.074l.072.294a11.533 11.533 0 0 1-1.6 2.661l-1.382 2.041-.116.366.021.205.007.044c0 .062-.055.133-.4.407l-.318.256-.215.291-.369.968c-.339.968-.585 1.566-1.142 1.72a.92.92 0 0 0-.561.469l-1.662 3.246a3.464 3.464 0 0 0-1.59 1.99 2.762 2.762 0 0 1-.667 1.132 1.176 1.176 0 0 0-.332.691l.007-.058-.25.325a3.072 3.072 0 0 0-.557.992 8 8 0 0 0-2.893 3.133 4.64 4.64 0 0 0-2.657 3.3c-.195.086-.387.164-.387.164a3.934 3.934 0 0 0-2.544 2.226 2.546 2.546 0 0 0-.961.882c-.216.3-.246.308-.321.315a.888.888 0 0 0-.8.814c-.041.51-.287.708-.841 1.091a3.7 3.7 0 0 0-1.32 1.358 4.507 4.507 0 0 0-2.4 1.583c-.687.759-1.053 1.115-1.775.985l-.359.01a13.038 13.038 0 0 1-3.352.308c-.752-.349-.862-.93-.906-2.3a6.462 6.462 0 0 0-.352-2.254 10.455 10.455 0 0 1-.116-1.614 30.066 30.066 0 0 1 .633-5.209l.01-.062a2.358 2.358 0 0 0 .5-1.6v-.393c0-.465.048-.489.161-.537a.88.88 0 0 0 .53-.811l-.021-.2-.017-.1c0-.109.072-.219.38-.547a2.787 2.787 0 0 0 .937-1.967l-.024-.209.161-.109a1.593 1.593 0 0 0 .882-1.32 6.17 6.17 0 0 0 1.929-2.055l.342-.506.164-.52v-.1c0-.414.212-.65.64-1.081a2.893 2.893 0 0 0 1.064-2.073l-.031-.219.373-.325a11.745 11.745 0 0 0 1.447-1.419h.068a.936.936 0 0 0 .879-.8 3.9 3.9 0 0 1 1.029-2.507h.267a.871.871 0 0 0 .605-.243 4.091 4.091 0 0 0 .893-1.525c.359-.9.434-.886.609-.852a.882.882 0 0 0 .561-.082 2.294 2.294 0 0 0 1.094-2.182 2.636 2.636 0 0 1 .075-.605l.332-.041a2.8 2.8 0 0 0 1.973-.968l.188-.5a3.408 3.408 0 0 1 1.043-1.926 2.724 2.724 0 0 0 1.809-.937l.2-.369a2.721 2.721 0 0 1 .848-1.129 6.6 6.6 0 0 0 .858-1.006 2.978 2.978 0 0 0 1.433-.889l.082-.082.421-.137a.9.9 0 0 0 .352-.674c.007-.2.092-.3.544-.653a3.7 3.7 0 0 0 1.293-1.573l.089-.315a2.832 2.832 0 0 1 .636-1.375 8.059 8.059 0 0 0 1.915-1.936s.274-.311.51-.585l.082.041a.874.874 0 0 0 .858-.044 2.2 2.2 0 0 0 .985-1.888l.277-.068a2.007 2.007 0 0 0 .824-1.6l.027-.14c.5-.075 1.358-.475 3.064-2.2a.89.89 0 0 0 .222-.53l.387.072a2.4 2.4 0 0 0 1.512-.879l.452-.386a.889.889 0 0 0 .619-.749s.041-.441.068-.687c.157-.222.328-.448.328-.448l.239-.359.092.051a1.174 1.174 0 0 0 1.214-.821l-.058.209.12-.12a2.359 2.359 0 0 0 .383-.434 1.026 1.026 0 0 0 .944-.209l.287-.469c.127-.441 1.358-1.371 1.816-1.279a.937.937 0 0 0 .845-.3c1.005-1.139 1.392-1.176 1.436-1.176l.571.089.041.181a2.191 2.191 0 0 0 .578 1.354 1.9 1.9 0 0 1 .123.581 5.118 5.118 0 0 1-.356 1.556m-27.877-10.069.085-.192-.085.192m-47.809-87.706a.861.861 0 0 0-.482.616 4.659 4.659 0 0 0-1.734 1.789 2.747 2.747 0 0 1-1.481 1.406l-.335.219a3.717 3.717 0 0 0-.947 1.406l-.643.588a8.933 8.933 0 0 0-2.374 2.794 1.983 1.983 0 0 0-1.023 1.183l-.079.174h-.017a1.052 1.052 0 0 0-.725.154 2.73 2.73 0 0 0-.94 1.433l-.151.345a1.262 1.262 0 0 0-.674.322h-.069a.8.8 0 0 0-.643.185l-.913 1.026a2.615 2.615 0 0 1-.469.547l-.386.284a3.234 3.234 0 0 1-1.029.687 5.745 5.745 0 0 0-1.566 1.122 1.561 1.561 0 0 0-1.111 1.279 6.109 6.109 0 0 1-1.7.93 5.5 5.5 0 0 0-2.958 2.165l-.243.25a3.234 3.234 0 0 1-1.984 1.272l-.534.2-.845.5a3.952 3.952 0 0 0-1.777 1.424 2.742 2.742 0 0 0-1.248.657c-.3.28-.352.318-.578.294l-.513.1-1.187.65a19.351 19.351 0 0 1-3.834 1.751 6.314 6.314 0 0 0-2.589.547 4.973 4.973 0 0 1-2.206.455l-.5.1a3.809 3.809 0 0 1-2.9-.072 5.725 5.725 0 0 1-.831-2.5l-.055-.315c.229-.4.893-1.577.893-1.577l.113-.434v-.058q-.031-.426-.031-.78c0-1.231.256-1.895.828-2.233l.325-.345.472-.787a8.034 8.034 0 0 0 1.1-2.589l.151-.086a2.04 2.04 0 0 0 1.176-.431 2.839 2.839 0 0 0 1-1.207 7.386 7.386 0 0 0 2.185-1.194l1.067-.742a1.034 1.034 0 0 0 .438-.8l-.021-.171-.021-.161.106-.363a2.958 2.958 0 0 0 .2-.735 4.524 4.524 0 0 0 2.247-1.009 2.02 2.02 0 0 0 1.508-1.091l.174-.26a1.289 1.289 0 0 0 .215-.7l-.007-.027.051-.12.034-.092a7.3 7.3 0 0 0 2.12-1.477l.291-.024a1.934 1.934 0 0 0 1.4-.752 2.9 2.9 0 0 0 2.038-1.406l.034-.044h.038a2.456 2.456 0 0 0 1.884-.841 1.55 1.55 0 0 0 .236-.752c.219-.171.434-.342.434-.342.287-.291.4-.383.609-.393a1.751 1.751 0 0 0 1.672-.257l.219-.13a1.047 1.047 0 0 0 .564-.25l.291-.291.226-.017.455-.133.978-.7a6.043 6.043 0 0 1 .988-.677l-.393-.068c.3.051.886.044 1.091-.188.369-.424 1.936-1.532 2.609-1.31a.88.88 0 0 0 .906-.209 5.011 5.011 0 0 1 1.867-1.132c.253-.024 1.556-.133 1.556-.133a.828.828 0 0 0 .657-.489h.1a2.865 2.865 0 0 0 .893-.178 3.129 3.129 0 0 0 1.32-.677c.294-.226.489-.366.653-.356l.441-.1.393-.147.376.017a14.148 14.148 0 0 1 4.1-.547l-.007.01.13.239a2.59 2.59 0 0 0 .954 1.012 5.152 5.152 0 0 1 .1.835 4.176 4.176 0 0 1-2.151 3.943m348.391-33.773-.044.284.044-.284m104.016 47.419-.151-1.7a50.679 50.679 0 0 0-.67-5.534l-.246-.462a4.278 4.278 0 0 1-.93-2.216 6.758 6.758 0 0 0-1.125-2.808l-.434-.3c-.325-.1-.369-.157-.438-.855a2.644 2.644 0 0 0-1.053-2.076 2.187 2.187 0 0 0-.923-1.235l-.335-.294.024-.113.014-.147a1.09 1.09 0 0 0-.178-.585 1.039 1.039 0 0 0-.592-.4l-.044-.263a2.054 2.054 0 0 0-.831-1.519 6.592 6.592 0 0 0-2.11-2.507 3.884 3.884 0 0 1-1.679-2.185.941.941 0 0 0-.9-.677 1.751 1.751 0 0 0-1.252-.982l-.075-.024a1.182 1.182 0 0 0-.445-.722l-1.159-.759a5.524 5.524 0 0 0-2.281-1.17 2.284 2.284 0 0 0-2.083-1.016 2.026 2.026 0 0 1-.609-.068c-2.418-1.984-5.455-2.627-8.393-3.246l-2.343-.52-.2-.027a15.073 15.073 0 0 1-2.609-.373 9.48 9.48 0 0 0-4.966-.1 51.155 51.155 0 0 0-8.454.243 13.165 13.165 0 0 0-4.549.616l-2.38.51a3.106 3.106 0 0 0-2.442.848c-.667.513-.944.677-1.409.5-.345-.133-.906.253-1.149.53l.055-.062-.25.079a2.254 2.254 0 0 0-1.176.663c-.274.024-.557.044-.557.044a28.775 28.775 0 0 0-5.53 2.172l-.848.575a10.234 10.234 0 0 0-3.841 1.618.915.915 0 0 0-.39.578c-.1.513-.39.667-1.426.964a5.267 5.267 0 0 0-1.594.646.865.865 0 0 0-.366.6l-.014.007-.664.407a.528.528 0 0 0-.267.5l.007.075a2.577 2.577 0 0 0-.612.26 2.153 2.153 0 0 0-1.785.869l-.332.315a1.215 1.215 0 0 0-.841.547c-.048.116-.229.2-.578.349a3.376 3.376 0 0 0-1.194.752l-.113.15c-.181.3-.749.448-1.3.6l-1.3.462c-.294.1-.38.287-.438.588-.058.253-.345.438-.824.725 0 0-.328.215-.527.349a5.34 5.34 0 0 0-2.541 1.495l-.274.236a2.543 2.543 0 0 0-1.666.834c-.28.27-.4.373-.609.4l-.328.109-1.532 1.094c-1.019.828-1.758 1.419-3.105 1.214a.9.9 0 0 0-.879.39c-.489.759-1.348 1.149-2.852 1.306l-.4.144a9.544 9.544 0 0 1-2.076.927 9.623 9.623 0 0 0-3.051 1.607 8.788 8.788 0 0 0-2.828 1.17 5.228 5.228 0 0 1-3.211 1.026.877.877 0 0 0-.817.4c-.352.54-1.146.684-2.233.735a.865.865 0 0 0-.677.369c-.493.687-1.307.817-2.589.954a9.383 9.383 0 0 0-2.059.39 15.592 15.592 0 0 0-2.473.5 8.067 8.067 0 0 1-3.591.4l-1.388-.137a4.708 4.708 0 0 1-1.358-.205v-.133c0-.349-.031-.663-.058-.964-.024-.253-.048-.462-.048-.66a1.637 1.637 0 0 1 .308-.937 1.4 1.4 0 0 0 .893-1.467l-.007-.205v-.034a1.738 1.738 0 0 1 .787-.349c.428-.051.732-.684.749-1.125l-.007.116.219-.28a2.689 2.689 0 0 0 .479-.817l.236-.017c1.081-.051 2.715-.123 3.386-1.672a2.918 2.918 0 0 1 .684-.739h.2a1.027 1.027 0 0 0 1.187-.978l.246-.079.817-.3a.609.609 0 0 0 .4-.551 1.518 1.518 0 0 0 .992-.718 1.354 1.354 0 0 0 .144-.622l-.007-.044a1.225 1.225 0 0 0 .677.233 1.642 1.642 0 0 0 1.283-.783l.257-.287a.959.959 0 0 0 .527-.551s.339-1.036.513-1.583a2.821 2.821 0 0 0 1.99-1.614l.274-.451.451-.157a.887.887 0 0 0 .308-.609c.01-.089.027-.127.383-.359a2.067 2.067 0 0 0 1.1-1.607.9.9 0 0 0 .527-.205.882.882 0 0 0 .277-.646l-.038-.253-.017-.1c0-.127.089-.267.339-.605a2.715 2.715 0 0 0 .694-1.645l-.048-.25.133-.226a2.376 2.376 0 0 1 .448-.629 1.3 1.3 0 0 0 .961-.222 1.544 1.544 0 0 0 .516-1.31l-.021-.52-.024-.513.044-.342.455-1.064a2.163 2.163 0 0 1 .26-.643l.14.017a1.276 1.276 0 0 0 1.016-.7l.181-.441a2.476 2.476 0 0 0 .342-1.159l-.027-.171a3.313 3.313 0 0 0 .325-1.416v-.3l-.007-.26a1.287 1.287 0 0 1 .171-.793l.164-.516-.021-.205-.038-.311a4.756 4.756 0 0 1 .3-1.341 5.849 5.849 0 0 0 .38-1.809 2.735 2.735 0 0 0-.3-1.194c-.007-.274-.086-3.02-.086-3.02l-.044-.229a6.662 6.662 0 0 0-1.31-2.281s-.233-.308-.407-.54l.007-.031a1.307 1.307 0 0 0-.185-.694 1.915 1.915 0 0 0-1.406-.773l-.308-.082a1.853 1.853 0 0 0-.588-.93 2.524 2.524 0 0 0-1.977-.277l-.359.041a2.03 2.03 0 0 0-2.38-.776c-.482.1-.646.116-.769.017a.87.87 0 0 0-.745-.2l-1.553.294a63.354 63.354 0 0 0-6.238 1.426.878.878 0 0 0-.578.52c-.027.082-.1.123-.691.147l-1.022.144a.719.719 0 0 0-.554.417l-.089.325.027.161-.5.311a.614.614 0 0 0-.3.575c-.041.311-.28.465-1.026.783 0 0-.383.2-.687.359a2.081 2.081 0 0 0-1.915 1.46l-.236.414a2.729 2.729 0 0 0-2.353 1.464c-.308.434-.506.7-.783.759a.872.872 0 0 0-.718.865v.1l.007.113c0 .441-.366.687-1.33 1.146l-.759.39a.766.766 0 0 0-.407.54c-.161.64-.616 1.04-1.631 1.426a.822.822 0 0 0-.458.462 1.062 1.062 0 0 0-.578.793l-.007.085a1.461 1.461 0 0 0-.277.746.877.877 0 0 0-.482.7v.1c0 .065-.038.127-.315.383a2.978 2.978 0 0 0-.93 1.385 1.921 1.921 0 0 1-.513.749 2.955 2.955 0 0 0-1 2.052v.021a19.588 19.588 0 0 0-1.789 4.689l-.52 1.785-.038.277.021.2.038.335a3.768 3.768 0 0 1-.349 1.289 5 5 0 0 0-.479 1.9l.02.185a2.664 2.664 0 0 0-.489 1.5l-.031.345a5.528 5.528 0 0 0-.438 1.977l-.127 1.166a8.736 8.736 0 0 1-.749 2.086 9.323 9.323 0 0 0-.965 3.1 2.9 2.9 0 0 1-.421.64 3.061 3.061 0 0 0-.749 1.686 2.962 2.962 0 0 0-.626.855l-.253.431a1.772 1.772 0 0 0-.226.667v.038l.01.1a1.472 1.472 0 0 1-.318.739 3.508 3.508 0 0 0-.557 1.529 5.257 5.257 0 0 0-.7.992c-.318.575-.455.759-.66.773a.89.89 0 0 0-.814.876v.1l.031.229a10.557 10.557 0 0 0-2.51 1.748l-.605.51a8.114 8.114 0 0 1-2.637 1.07 10.929 10.929 0 0 0-2.791 1.125 8.216 8.216 0 0 0-2.1-.027c-1.173.106-1.922.14-2.586-.441a.874.874 0 0 0-.807-.2 3.489 3.489 0 0 1-2.784-.711 8.066 8.066 0 0 0-2.066-.865 21.5 21.5 0 0 1-3.034-10.325l-.123-.417a3.012 3.012 0 0 1-.109-1.05 3.5 3.5 0 0 0-.537-2.23l.092.147-.024-.15.062-.458a4.6 4.6 0 0 0 .089-.79 2.248 2.248 0 0 0-.2-.852l.007-.154a6.365 6.365 0 0 0-1.306-3.211l-.151-.239a3.923 3.923 0 0 0-.773-1.689 2.672 2.672 0 0 1-.54-.992.876.876 0 0 0-1.009-.876c-.417.062-.417.062-.663-.571a2.84 2.84 0 0 0-1.447-1.772l-.079-.021a1.364 1.364 0 0 0-1.183-.739 18 18 0 0 0-13.591-.735.9.9 0 0 0-.551.551c-.027.092-.4.212-.605.277l-.653.257a.732.732 0 0 0-.451.52c-.1.311-.455.417-1.4.561l-.961.178a.892.892 0 0 0-.646.91 3.815 3.815 0 0 0-2.753 1.785c-.575.728-.961 1.18-1.59 1.259a.889.889 0 0 0-.718.571 4.268 4.268 0 0 1-2.254 2.158.921.921 0 0 0-.465.807l-.021.01a1.672 1.672 0 0 0-1.084 1.081c-.2.086-.421.174-.421.174a1.161 1.161 0 0 1-.53.212.891.891 0 0 0-.581.27 4.123 4.123 0 0 1-2.565 1.464.593.593 0 0 1-.246-.482 5.033 5.033 0 0 1 .123-.817 6.443 6.443 0 0 0 .185-1.406 3.928 3.928 0 0 0-.168-.934c.075-.335.39-1.683.39-1.683a7.508 7.508 0 0 1 .728-2.4l.1-.376.106-1.751c.079-1.009.147-2.035.147-3.051 0-.325 0-.65-.024-.968l-.024-.154a2.574 2.574 0 0 0-.619-1.07l-.256-.373v-.021a.978.978 0 0 0-.752-.9l-.041-.315a2.286 2.286 0 0 0-.451-1.426l-.325-.243a6.548 6.548 0 0 1-1.744-1.306 9.663 9.663 0 0 0-1.573-1.248 5.482 5.482 0 0 0-2.647-.783 4.3 4.3 0 0 1-2.008-.544l-.438-.161-.975-.12a7.471 7.471 0 0 0-3.379.106 8.8 8.8 0 0 0-5.212 1.016 10.4 10.4 0 0 1-2.791.937.846.846 0 0 0-.493.236 3.668 3.668 0 0 1-2.237 1.228.837.837 0 0 0-.852.8 1.092 1.092 0 0 0-.722.181 25.214 25.214 0 0 0-3.191 2.835l-.205.376a2.54 2.54 0 0 1-.783.308c-.752.222-1.977.6-2.148 1.929-.212.5-.687.739-1.436 1.081l-.639.3-.263.215-.106.113a1.747 1.747 0 0 0-.53 1.009 6.454 6.454 0 0 0-1.881 2.031 3.957 3.957 0 0 0-2.414 2.483l-.493.475a7.806 7.806 0 0 1-1.99 1.607.889.889 0 0 0-.458.513c-.171.486-.51.728-1.108 1.1a5.448 5.448 0 0 0-1.19.988 7.308 7.308 0 0 0-2.644 2.49l-.068.1a1.6 1.6 0 0 0-.872.9l-.54.6c-.735.855-1.077 1.163-1.713 1.009-.352-.055-.537-.386-.8-.93l-.109-.205.075-.352.027-.215a.94.94 0 0 0 .527-.78l-.014-.133a3.947 3.947 0 0 1-.072-.708 3.513 3.513 0 0 1 .94-2.346 4.884 4.884 0 0 0 .913-1.1 7.934 7.934 0 0 1 .978-1.238 4.619 4.619 0 0 0 1.693-2.989l.407-1.32.075-.4v-.031l-.007-.154a5.64 5.64 0 0 1 .263-1.385 6.533 6.533 0 0 0 .318-1.765 2.717 2.717 0 0 0-.448-1.426l.027-.178a3.32 3.32 0 0 0-.451-1.5 1.946 1.946 0 0 1-.274-.735l.038-.154.044-.28a1 1 0 0 0-.19-.587.946.946 0 0 0-.858-.328l-.15.017v-.01l-.144-.386a2.3 2.3 0 0 0-1.327-1.467c-2.158-2.312-5.075-2.309-7.911-2.271l-2.613-.024a.961.961 0 0 0-.619.209l-.4.325a12.2 12.2 0 0 0-5.12 2.185 2.445 2.445 0 0 0-2.138 1.262c-.27.369-.421.547-.585.568a.933.933 0 0 0-.776.776l-.144.051a1.95 1.95 0 0 0-1.005 1.026 3.491 3.491 0 0 0-.882.923c-.174.253-.349.52-.486.547a.914.914 0 0 0-.7.886l-.058.055a2.308 2.308 0 0 0-.732.783 2.339 2.339 0 0 0-1.406 1.512l-.236.469-.1.014a1.183 1.183 0 0 0-.691.328 4.853 4.853 0 0 1-.92.759 6.736 6.736 0 0 0-1.279 1.115 2.066 2.066 0 0 0-1.067 1.3c-.137.38-.164.39-.239.41a.992.992 0 0 0-.657.732l-.007.034-.475.219a2.891 2.891 0 0 0-1.389.9.881.881 0 0 0-.178.527c0 .339-.024.39-.715.629a2.528 2.528 0 0 0-1.72 1.488 3.928 3.928 0 0 0-2.018 1.867c-.5.807-.776 1.166-1.276 1.187l-.263.058a2.482 2.482 0 0 0-1.235 1.112c-.253.39-.287.39-.434.4a.9.9 0 0 0-.626.39.988.988 0 0 0-.188.612v.079l-.021-.157-.01.188a4.968 4.968 0 0 1-.6.359l-1.047.677a.666.666 0 0 0-.311.605l.007.171v.027c0 .373-.718 1.064-1.067 1.382a1.3 1.3 0 0 0-1.129.445l-.133.424c-.188.154-.41.321-.41.321a7.737 7.737 0 0 0-1.159 1.043 1.343 1.343 0 0 0-1.159.985l-.031.075a.833.833 0 0 0-.575.6c-.147.667-.629.985-1.614 1.406-.2.086-.448.564-.534.766l.044-.106-.3.171a1.793 1.793 0 0 0-1.2 1.519c-.1.445-.383.581-1.159.852a2.553 2.553 0 0 0-2.161 2.473v.014a2.129 2.129 0 0 0-1.495.934l-.106.311c-.089.609-.834 1.187-1.529 1.672a.914.914 0 0 0-.359.557c-.044.233-.209.339-.763.578a2.23 2.23 0 0 0-1.5 1.6.972.972 0 0 0-.7.6c-.215.8-.77 1.211-1.652 1.806a6.7 6.7 0 0 0-1.768 1.645 2.743 2.743 0 0 0-2.161 1.659c-.38.674-.506.828-.934.814-.267 0-.236-.113-.407.089l-.65.776-.027.058-.363.137-.256.205a2.787 2.787 0 0 0-1.2 1.645l-.985.636-1.282.845-.417.424a5 5 0 0 1-1.382 1.618 9.73 9.73 0 0 0-1.211 1.238 4.317 4.317 0 0 1-1.187.024 3.358 3.358 0 0 1-.164-.8 7.5 7.5 0 0 1 .858-2.931 11.144 11.144 0 0 0 .947-3.126 6.323 6.323 0 0 0 1.566-3.505l.376-1.5a5.6 5.6 0 0 0 1.118-2.637 4.1 4.1 0 0 1 .776-1.956l.185-.325.383-1.819a6.47 6.47 0 0 1 .845-2.692l.116-.215.455-1.44a9.387 9.387 0 0 1 .848-2.247l.123-.458-.014-.168v-.058c0-.123.082-.26.308-.564a3.593 3.593 0 0 0 .475-.879 2.832 2.832 0 0 0 .828-1.727 1.568 1.568 0 0 1 .2-.663 2.266 2.266 0 0 0 .9-1.884 1.614 1.614 0 0 1 .147-.739l.085-.106a5.823 5.823 0 0 0 .766-2.49c.168-1.2.3-1.744.862-1.963a.739.739 0 0 0 .516-.537l.356-1.556c.185-1.064.318-1.689.934-2.025a.89.89 0 0 0 .455-.677s.222-2.066.287-2.671a1.961 1.961 0 0 0 .605-1.532v-.257l.007-.441a.894.894 0 0 0 .571-.667 5.4 5.4 0 0 1 .937-2.63 1.725 1.725 0 0 0 .534-1.334l-.014-.39-.017-.318.024-.188.222-.168a1.3 1.3 0 0 0 .38-.937l-.055-.369.26-.475.335-1.854a17.9 17.9 0 0 0 .486-3.615 8.374 8.374 0 0 0-.383-2.541l-.092-.195a6.023 6.023 0 0 0-2.609-2.346c-2.141-2.1-4.7-1.474-6.967-.91a16.715 16.715 0 0 1-2.418.475c-.3.024-.663.489-.8.756l.014-.024-.513.256a2.713 2.713 0 0 0-1.532 1.183l.137-.192a6.614 6.614 0 0 1-1.99 1.594.933.933 0 0 0-.5.858l.034.257v.024l-.492.233-1.135.633c-.226.127-.215.229-.26.482a4.022 4.022 0 0 1-1.074 1.833 8.224 8.224 0 0 0-1.125 1.666 2.1 2.1 0 0 0-1.047 1.255l-.164.359a2.221 2.221 0 0 0-1.341 1.816c-.1.458-.157.66-.28.711a.871.871 0 0 0-.489.752 1.38 1.38 0 0 0-.985.636l-.12.469a2.311 2.311 0 0 0-.92 1.775c-.072.561-.116.626-.233.677a4.749 4.749 0 0 0-1.518 1.471l-.708.828-.321.592c-.034.345-.308.619-.749 1.04a4.256 4.256 0 0 0-1.122 1.45 2.853 2.853 0 0 0-1.662 1.365c-.27.414-.434.65-.729.742a.877.877 0 0 0-.616.732c-.031.26-.192.4-.646.732a5.829 5.829 0 0 0-.739.657 2.485 2.485 0 0 0-1.83 1.642l-.315.575-.992.893a4.517 4.517 0 0 1-1.607 1.214.88.88 0 0 0-.6.783c-.041.7-.41.927-1.436 1.4a4.479 4.479 0 0 0-2.285 1.775l-.086.215a.373.373 0 0 1-.424.328.9.9 0 0 0-.715.363 5.78 5.78 0 0 1-1.512 1.2s-.513.359-.855.592a2.648 2.648 0 0 0-2.059 1.163c-.4.469-.523.585-.811.564a.9.9 0 0 0-.906.629c-.072.263-.267.356-1.1.513a5.664 5.664 0 0 0-1.173.342l-.325.041c-.585.085-1.19.178-1.525-.1a.9.9 0 0 0-.715-.185 3.16 3.16 0 0 1-2.339-.571 11.745 11.745 0 0 0-.3-1.457 6.16 6.16 0 0 1-.311-1.679l.014-.253a3.527 3.527 0 0 0 .243-1.272c0-.212-.014-.417-.021-.612s-.02-.356-.02-.51a1.05 1.05 0 0 1 .205-.766l.209-.321.171-.52a6.749 6.749 0 0 1 .554-1.351l.133-.462c0-.031 0-.763.407-.838a.876.876 0 0 0 .578-.383l.147-.486-.021-.2a2.357 2.357 0 0 1-.068-.537 3.575 3.575 0 0 1 .8-1.915 5.963 5.963 0 0 0 1.026-2.353 2.136 2.136 0 0 0 1.043-1.707l.123-.506a1.07 1.07 0 0 0 .274-.581l.205-.458a2.625 2.625 0 0 0 .424-1.306 4.875 4.875 0 0 0 1.768-3.482 2.065 2.065 0 0 0 .79-1.361l.079-.315a1.349 1.349 0 0 0 .468-.8v-.086a1.326 1.326 0 0 1 .3-.684 2.774 2.774 0 0 0 .544-1.508l-.01-.106a10.318 10.318 0 0 0 1.2-4.46l.359-2.312v-.055l-.038-.492-.068-.5a2.3 2.3 0 0 0-.893-1.861 2.064 2.064 0 0 0-.985-1.112l-.291-.188a.83.83 0 0 0-.335-.7c-2.445-1.8-6.98-2.678-10.041-.961l-.12.089-.332.062a1.778 1.778 0 0 0-1.433.876c-2.062 1.4-2.982 3.632-3.834 5.811l-1.001 2.295a3.363 3.363 0 0 0-.841 1.922 2.663 2.663 0 0 1-.243.858l-.185.472a6.415 6.415 0 0 1-1.149 2.907 8.926 8.926 0 0 0-1.265 2.986 1.813 1.813 0 0 0-.588 1.1l-.034.137a.912.912 0 0 0-.612.776 3.123 3.123 0 0 1-.763 1.666 5.618 5.618 0 0 0-.92 1.881 3.426 3.426 0 0 0-.742 1.084l-.171.284a1.676 1.676 0 0 0-1 .363 2.043 2.043 0 0 0-.578 1.628l-.051.5-.2.274-.082.024a1.531 1.531 0 0 0-1.006.759 1.283 1.283 0 0 0-.116.537l.048.209a1.1 1.1 0 0 0-.67.879v.055l-.277.092a2.441 2.441 0 0 0-1.146.807 1.435 1.435 0 0 0-.732.674l-.062.1.133-.1a1.333 1.333 0 0 0-.482.954l.024.15-.164.079c-.769.339-1.149.8-1.163 1.375a1.734 1.734 0 0 1-.763.564.875.875 0 0 0-.67.8c-.014.274-.14.38-.824.691a3.113 3.113 0 0 0-1.624 1.351 3.215 3.215 0 0 0-.93.817c-.311.407-.424.513-.7.523a.88.88 0 0 0-.633.308 9.914 9.914 0 0 1-2.072 1.652l-1.477 1.081a2.142 2.142 0 0 0-1.648.862c-.27.3-.308.308-.438.308a.865.865 0 0 0-.786.421 6.1 6.1 0 0 1-2.343 2.062l-1.775 1.221a.679.679 0 0 0-.28.414c-.27.841-1.173 1.036-2.637 1.262a8.734 8.734 0 0 0-1.85.421 3.4 3.4 0 0 1-3.2-1.3.976.976 0 0 0-.551-.3l-.1-.267a2.826 2.826 0 0 0-.53-.848 2.151 2.151 0 0 0-.448-.917l-.01-.01.092-.342-.079-.359a3.484 3.484 0 0 1-.325-1.666c0-.39.027-.79.051-1.211s.062-.869.062-1.31a6.04 6.04 0 0 0-.233-1.672c.075-.284.154-.6.154-.6.079-.523.113-.54.253-.6a.884.884 0 0 0 .52-.807v-.086l-.01-.267a5.515 5.515 0 0 1 .27-1.477 7.12 7.12 0 0 0 .332-1.912v-.017a3.057 3.057 0 0 0 .616-1.607 1.389 1.389 0 0 1 .339-.923.9.9 0 0 0 .267-.6c.027-.982.79-1.676 1.7-2.411.168-.14.212-.106.246-.321l.191-1.2v-.253a1.22 1.22 0 0 0 .431-.882l-.017-.127.335-.212a2.015 2.015 0 0 0 1.252-1.642l-.021-.12.376.1a1.072 1.072 0 0 0 .769-.294l.185-.174a1.63 1.63 0 0 0 .694-1.245l-.01-.137-.024-.236c0-.369.212-.523.875-.906a3.478 3.478 0 0 0 1.573-1.518c.205-.089.427-.181.427-.181a1.377 1.377 0 0 0 .339-.975l-.014-.27v-.058l.14-.075a1.216 1.216 0 0 0 .424-.934l-.044-.28.174-.26.127-.065a1.593 1.593 0 0 0 .934-.9l.072-.424-.058-.236a8.919 8.919 0 0 0 1.72-4.661 4.391 4.391 0 0 0-.072-.708l-.024.226.024-.229-.014-.164.014.164a6.229 6.229 0 0 0 .164-1.293 10.067 10.067 0 0 0-1.655-5.062c-.687-1.792-2.408-2.025-3.68-2.182l-1.057-.171a11.066 11.066 0 0 0-7.671-.311.869.869 0 0 0-.513.458 2.218 2.218 0 0 1-1.464 1.084.864.864 0 0 0-.633.793 6.123 6.123 0 0 0-1.064.954 4.579 4.579 0 0 1-.814.766.887.887 0 0 0-.421.752 1.65 1.65 0 0 0-.475.605 3.235 3.235 0 0 0-1.423 1.761c-.3.684-.458.975-.865 1.084a3 3 0 0 0-1.19.725 1.533 1.533 0 0 1-.622.407.549.549 0 0 0-.417.233l-.687.954c-.339.568-.5.79-.831.824-1.471.236-3.43.253-4.61-.964a.88.88 0 0 0-.657-.27 7.066 7.066 0 0 1-1.888-.359c-1.354-.386-3.04-.862-4.593.178l.113-.062a3.648 3.648 0 0 1-1.108.195 3.419 3.419 0 0 0-2.237.8 15.626 15.626 0 0 1-2.4.493 9.207 9.207 0 0 0-5.154 1.987 2.294 2.294 0 0 0-1.707.845c-.366.359-.376.356-.575.284l-.516-.027a11.65 11.65 0 0 0-2.63 1.132l-1.758.831-.315.188a12.17 12.17 0 0 1-3.724 2.12l-2.185 1.012a.8.8 0 0 0-.472.749l.014.106-.14.154c-.192.1-.534.267-.534.267l-1.354.6-.339.185a7.057 7.057 0 0 1-1.809 1.012l-1.2.578a.8.8 0 0 0-.4.557h-.014a1.734 1.734 0 0 0-1.32.564 3.291 3.291 0 0 1-1.741.971l-1.282.492a.768.768 0 0 0-.486.756c-.014.356-.109.438-.571.756 0 0-.315.27-.609.53a1.988 1.988 0 0 0-1.881 1.04c-.209.308-.274.369-.373.39a.877.877 0 0 0-.664.622l-.246.085a1.8 1.8 0 0 0-1.245 1.053 3.553 3.553 0 0 0-1.7 1.669l-.154.243a1.975 1.975 0 0 0-1.628 1.347l-.154.308-.239.01a1.026 1.026 0 0 0-.927.667 3.069 3.069 0 0 1-.715 1.354 3.827 3.827 0 0 0-1.577 1.245l-.506.54a3.1 3.1 0 0 0-.26.6l-.188.147a2.028 2.028 0 0 0-.835 1.1 5.144 5.144 0 0 0-1.59 2.165l-.058.12a2.4 2.4 0 0 0-1.084 1.471c-.133.41-.205.581-.373.677a.882.882 0 0 0-.455.646 2.229 2.229 0 0 1-.54 1.005 3.754 3.754 0 0 0-.759 1.7 1.2 1.2 0 0 0-.294.79l-.137.127a.969.969 0 0 0-.174.592l.021.222v.01l-.137.41a3.882 3.882 0 0 0-.243.937 2.685 2.685 0 0 0-.612 1.173 1.463 1.463 0 0 1-.212.516.9.9 0 0 0-.233.554c-.024.475-.038.968-.038 1.471 0 2.568.284 5.393.513 7.743a.884.884 0 0 0 .424.67c.154.1.192.215.226.756a2.151 2.151 0 0 0 1.389 2.083l-.01.192a1.353 1.353 0 0 0 .728 1.31l.144.055.226.393a2.343 2.343 0 0 0 1.142 1.276.913.913 0 0 0 .588.044c.291-.085.427-.017.879.294a4.167 4.167 0 0 0 1.064.51 2.14 2.14 0 0 0 2.305 1.337l.527.034c1.214.93 3.451.708 4.152.609 1.717.568 6.1.195 8.249-.8a16.642 16.642 0 0 1 2.8-.492.9.9 0 0 0 .674-.455 3.465 3.465 0 0 1 3.181-1.919.909.909 0 0 0 .715-.256.927.927 0 0 0 .253-.609l.277-.01a2.052 2.052 0 0 0 1.666-.5 1.473 1.473 0 0 0 .205-.561 5.273 5.273 0 0 0 1.826-1.563 5.906 5.906 0 0 1 .708-.722 1.63 1.63 0 0 0 1.679-.971l.1-.157a.991.991 0 0 0 .862-.482c.191-.383.534-.5 1.317-.674a3.9 3.9 0 0 0 2.343-1.279 2.234 2.234 0 0 0 1.659-1.631l.192-.431a1.238 1.238 0 0 0 .653-.181 1.516 1.516 0 0 0 .6-1.111l.024-.137a.934.934 0 0 0 .421-.575l.445-.062a2.377 2.377 0 0 0 1.949-.862l.137-.472-.031-.072a12.032 12.032 0 0 1 1.8-2.247l1-1.549s.192-.339.346-.605a1.8 1.8 0 0 0 1.262-1.464.854.854 0 0 1 .144-.383 1.438 1.438 0 0 0 .841-1.529v-.257a2.782 2.782 0 0 0 1.467-1.6c.116-.246.318-.663.434-.708l.434-.315 1.013-1.096 1-1.1a.76.76 0 0 0 .212-.537l-.065-.308a1.465 1.465 0 0 1 .783-.486 1.368 1.368 0 0 0 1.091.25 1.6 1.6 0 0 0 1.05-.961l.185-.311.605-.267.024-.034.082.373a2.553 2.553 0 0 0 1.18 1.9 1.08 1.08 0 0 0-.458.77l.014.13a57.646 57.646 0 0 1 .858 7.069s.328 3.529.349 3.759l-.116.39a1.956 1.956 0 0 0 .6 1.259l.212.27-.034.092-.051.349a.944.944 0 0 0 .226.646 1.545 1.545 0 0 1 .226.739l.1.516a2.618 2.618 0 0 0 1.491 1.84c.493.284.578.363.578.585v.144a.889.889 0 0 0 .25.619.906.906 0 0 0 .663.267c.181-.01.209-.014.489.4a2.591 2.591 0 0 0 1.334 1.122l.492.017c.13-.038.154-.041.465.26l.79.585.407.079.92.113a3.131 3.131 0 0 0 2.452-.25l.28-.079a.826.826 0 0 0 .66.458 5.367 5.367 0 0 0 1.936-.2l.017.024a.887.887 0 0 0 .92.646 4.319 4.319 0 0 0 1.775-.619c1.833.763 4.412-.233 5.363-1.088a1.63 1.63 0 0 0 .585-1.026l.28-.01h.513a.716.716 0 0 0 .506-.219 1.586 1.586 0 0 1 .858-.212 2.333 2.333 0 0 0 2.124-1.293 1.873 1.873 0 0 0 1.159-1.837l.014-.174a.876.876 0 0 0 .622.1 1.57 1.57 0 0 1 1.272-.506 2.79 2.79 0 0 0 .612-.629c1.672.181 3.04-1.009 3.871-1.744l.445-.373-.1.044a1.216 1.216 0 0 0 .646-.855l-.007.075c0-.014.161-.359 1.094-1.094a1.452 1.452 0 0 0 .862-.209 1.767 1.767 0 0 0 .708-1.31l.048-.215a.969.969 0 0 0 .609-.8l.007-.13.472-.164a2.348 2.348 0 0 0 1.638-1.348 15.279 15.279 0 0 0 1.843-1.354 8.024 8.024 0 0 0 2.586-1.108 8.213 8.213 0 0 1 1.067-.554.872.872 0 0 0 .732-.51s.39-.845.5-1.081a3.377 3.377 0 0 0 .893-.923 5.472 5.472 0 0 1 .65-.164 2.526 2.526 0 0 0 .988 1.919 1.107 1.107 0 0 0 .711.1c.26 0 .544.342.588.7a.907.907 0 0 0 1 .752l.044.085a2.684 2.684 0 0 0 .527.677 4.382 4.382 0 0 0 .619 1.4 1.776 1.776 0 0 1 .424.982V144.977a5.386 5.386 0 0 0 1.211 2.616 3.7 3.7 0 0 1 .961 2.141l-.007.133a.88.88 0 0 0 .253.612l.246.106.017.048a1.422 1.422 0 0 0 .982 1.125 2.765 2.765 0 0 0 1.43.793 2.284 2.284 0 0 1 .592.233 1.118 1.118 0 0 0 .917.944l1.518.15 1.471.181a.8.8 0 0 0 .773-.52l.4.082.212.048a1.793 1.793 0 0 0 1.108.417 5.511 5.511 0 0 0 3.307-1.683 2.922 2.922 0 0 0 1.59-.332 1.391 1.391 0 0 1 .9-.2l.458-.055a1.3 1.3 0 0 0 .7-.715.779.779 0 0 0 .537-.154l.414-.332c.407-.363.7-.588.944-.544a.882.882 0 0 0 .6-.113 1.2 1.2 0 0 0 .646-1.053 2.059 2.059 0 0 0-.13-.568l.12-.161a2.78 2.78 0 0 1 .4-.5.842.842 0 0 0 .544.222h.465c.985.106 1.577-.383 1.744-1.467l.068-.315a1.362 1.362 0 0 0 .3-.742l.089-.007a1.857 1.857 0 0 0 1.44-.551 1.619 1.619 0 0 0 .188-.578l.568.157a1.625 1.625 0 0 0 1.378-1.751l.01-.072.144-.058a1.662 1.662 0 0 0 1.115-1.047 2.46 2.46 0 0 0 1.307-2.014l.13-.547a1.308 1.308 0 0 1 .431.092c.441.15.988-.339 1.163-.773l-.106.267.151-.106a1.638 1.638 0 0 0 .858-1.341l-.082-.328c.027-.274.328-.486.708-.687a1.168 1.168 0 0 0 .722-.051 1.338 1.338 0 0 0 .663-1.118l.014-.089.25-.123a.969.969 0 0 0 .219-.626v-.127l.407-.39a4.551 4.551 0 0 0 .684-.711 1.267 1.267 0 0 0 1.375 0 .892.892 0 0 0 .369-.944 2.229 2.229 0 0 1 .322-1.31l.383-1-.055-.568c.017-.168.3-.475.575-.687a2.748 2.748 0 0 1 .048.4 2.2 2.2 0 0 0 .954 1.946 2.013 2.013 0 0 1 .742 1.775 9.562 9.562 0 0 1-.369 2.3 4.526 4.526 0 0 0-.393 1.857c-.038.646-.075 1.053-.287 1.214a.924.924 0 0 0-.325.492l-.776 2.893c-.448 1.607-.876 3.119-1.176 4.791l-.014.154.038.263.062.373c0 .41-.25.759-.677 1.31a4.1 4.1 0 0 0-1.1 2.534l.027.226a3.412 3.412 0 0 0-.571 1.765l-.01.072a5.831 5.831 0 0 0-1.512 3.04 5.1 5.1 0 0 1-.913 2.233.883.883 0 0 0-.222.581l.007.127c0 .291-.147.5-.5.92a4.244 4.244 0 0 0-.831 1.6 2.889 2.889 0 0 0-.954 2.421l-.082.814c-.274.345-1.1 1.4-1.1 1.4l-.568.79-.15.308a11.088 11.088 0 0 1-1.4 2.934l-.9 1.58a17.751 17.751 0 0 0-1.508 3.314 2.091 2.091 0 0 0-1.125 1.69c-.092.527-.123.533-.219.564a.951.951 0 0 0-.646.913v.075l-.339.14a1.961 1.961 0 0 0-1.382 1.724c-.185.256-.427.6-.427.6l-1 1.313-.092.109-.41 1.07-.092.352a.874.874 0 0 0-.554.667c-.106.725-1.009 1.279-1.4 1.484a1.767 1.767 0 0 0-.818 1.614l.01.339v.26a5.222 5.222 0 0 0-1.19 1.919c-.284.739-.462 1.166-.968 1.467a.938.938 0 0 0-.424.8v.014l-.239.174-.349.294-2.654.253a23.129 23.129 0 0 1-3.488.28.9.9 0 0 0-.534.164l-.6.427a30.031 30.031 0 0 0-3.222.325 21.665 21.665 0 0 1-4.234.315.877.877 0 0 0-.558.164 5.51 5.51 0 0 1-2.37.609 9.33 9.33 0 0 0-2.018.393 53.352 53.352 0 0 1-5.523.985l-4.326.7-.209.068-1 .475a6.362 6.362 0 0 1-2.421.226 5.531 5.531 0 0 0-3.8.886 10.935 10.935 0 0 1-2.811.458 7.568 7.568 0 0 0-4.764 1.532 42.03 42.03 0 0 0-11.792 2.237l-.626-.068-.482.082a31.765 31.765 0 0 1-8.085 2.216l-2.161.407-.226.079a21.743 21.743 0 0 1-6.286 1.655 30.672 30.672 0 0 0-5.2 1.139l-.239.13a7.858 7.858 0 0 1-3.348 1.091 9.243 9.243 0 0 0-4.207 1.488c-.4.01-2.507.089-2.507.089a.856.856 0 0 0-.557.219 4.426 4.426 0 0 1-2.2.807 5.723 5.723 0 0 0-2.979 1.231 20.22 20.22 0 0 0-2.91 1.043 18.44 18.44 0 0 1-2.873 1.026l-.181.058-.8.291a4.658 4.658 0 0 0-1.724.92 4.975 4.975 0 0 0-2.616 1.043 2.957 2.957 0 0 1-1.823.735 1.386 1.386 0 0 0-.824.472l.13-.144-.328.089a1.7 1.7 0 0 0-1.293.77l-.113.462a4.172 4.172 0 0 0-1.542 2.175l-.482 1.077-.12.516a.657.657 0 0 0 .376.636l.708.342.127.048a.935.935 0 0 0 .968.66l.366-.058a3.607 3.607 0 0 0 1.819-.677 4.463 4.463 0 0 0 2.637-.092.993.993 0 0 0 1.194-.044 3.349 3.349 0 0 1 1.785-.674 6.839 6.839 0 0 0 2.3-.817 1.557 1.557 0 0 0 1.389-.4 1.31 1.31 0 0 0 1.122.284 1.369 1.369 0 0 0 .858-.687 1.446 1.446 0 0 0 1.129-.547l.017-.017h.085-.014l.332.109a1.05 1.05 0 0 0 1.153-.072l.917-.718c.044-.024.058-.031.315.031a1.756 1.756 0 0 0 1.269-.075c.212-.092.828-.366.828-.366l.127-.085a6.429 6.429 0 0 1 1.467-.185l1.57-.168a.686.686 0 0 0 .568-.458 2.729 2.729 0 0 1 1.112-.127 1.294 1.294 0 0 0 1.012-.39l-.13.147a8.655 8.655 0 0 1 2.1-.551l.359-.14h.629a1.3 1.3 0 0 0 .65-.8l.154-.1.027-.021a.824.824 0 0 0 .869-.188 2.045 2.045 0 0 1 1.3-.267 3.784 3.784 0 0 0 1.881-.383c.383.137.838.3.838.3a.966.966 0 0 0 1.111-.5l.363-.161c.41.116.711.157.9-.226l.12-.243a3.776 3.776 0 0 0 1.734-.756c.64-.479.759-.527 1.194-.246a.9.9 0 0 0 .852.041 1.323 1.323 0 0 0 1.214.311l.479-.417.127-.034a1.806 1.806 0 0 0 .739-.373l.226.034.527-.068a24.215 24.215 0 0 1 5.544-.958.912.912 0 0 0 .551-.192 4.042 4.042 0 0 1 2.531-.67l1.607-.15.3-.171.079.014a1.666 1.666 0 0 0 1.3-.171 6.424 6.424 0 0 0 3.293-1.081c.284-.062 1.047-.233 1.047-.233.544-.13 1.563-.376 1.8-.386l-.2-.038.7-.058-.215.055.15.034a2.068 2.068 0 0 0 .759.027 1.683 1.683 0 0 0 1.385.113.942.942 0 0 0 .527-.6l.007-.007c1.98.448 3.861-.205 5.677-.838l.188-.1a1.95 1.95 0 0 1 .677-.3l.277.188a.855.855 0 0 0 .735-.229s.39-.363.609-.578a4.708 4.708 0 0 1 1.207-.106.876.876 0 0 0 .865-.246c.1-.109.653-.038.982 0a2.915 2.915 0 0 0 2.168-.407l.281.075.722.181.4-.051 1.488-.328c.875-.151 1.494-.25 1.778-.718l.468.021a.949.949 0 0 0 .663-.058 2.316 2.316 0 0 1 .787-.246 2.4 2.4 0 0 0 1.344.359l.482-.144a19.8 19.8 0 0 1 2.124-1.135c1.645-.349 3.488-.4 3.827-.1l.26.164a3.359 3.359 0 0 0 2.736-.356.865.865 0 0 0 .486-.581l.014-.031a2.692 2.692 0 0 0 .971-.058l.144-.027a.981.981 0 0 0 .79.544l.3-.007a2.345 2.345 0 0 0 1.067-.212l.263.1.284.085a1.748 1.748 0 0 1 .092.547 3.163 3.163 0 0 1-1.3 2.267l-.25.4a3.771 3.771 0 0 1-1.563 1.881l-.786.646a.812.812 0 0 0-.287.653c0 .1-.055.168-.393.428a2.365 2.365 0 0 0-.886 1.07l-.879.992a10.14 10.14 0 0 0-1.525 1.99 2.088 2.088 0 0 0-1.645 1.508 1.562 1.562 0 0 1-.294.564l.605-.137-1.036.308a2 2 0 0 0-.585.773 4.5 4.5 0 0 0-1.17.958 1.976 1.976 0 0 1-.739.626.864.864 0 0 0-.5.537c-.3.913-1.163 1.409-2.158 1.987l-.893.534a.838.838 0 0 0-.41.728l.051.291.048.222c0 .161-.144.294-.711.653a3.383 3.383 0 0 0-1.17 1.036 2.681 2.681 0 0 0-1.683 1.765 2.822 2.822 0 0 1-.462.821 2.939 2.939 0 0 0-1.949 1.973c-.315.759-.458 1.016-.971 1.077a.864.864 0 0 0-.67.554l-.15.058a1.446 1.446 0 0 0-1.115 1.19 10.882 10.882 0 0 0-2.589 3.317 2.88 2.88 0 0 0-1.984 1.758c-.335.674-.462.848-.848.886a.941.941 0 0 0-.629.445l-.13.489.048.318.044.147-.492.376-.828.7-.188.4.01.2v.055c0 .366-.257.66-.694 1.122a4.091 4.091 0 0 0-.944 1.433 4.89 4.89 0 0 0-1.324 1.871 3.346 3.346 0 0 1-.787 1.248 2.113 2.113 0 0 0-.578.852 3.594 3.594 0 0 1-.8 1.259 2.561 2.561 0 0 0-1.491 2.076c-.15.657-.236.9-.568 1.047a1.448 1.448 0 0 0-.53.687l-.233.6a4.167 4.167 0 0 0-.383 1.211c-.287.174-.79.5-.79.5l-.161.311v.185l-.147.215a2.236 2.236 0 0 0-.356.715l-.157.137-.315.263-.387 1.07-.109.407a.955.955 0 0 0-.787.65 6.074 6.074 0 0 1-1.813 2.945l-.253.393a22.823 22.823 0 0 0-.9 5.174 3.935 3.935 0 0 0-.834 2.6c0 .445.041.886.079 1.3s.072.78.072 1.146a2.639 2.639 0 0 1-.174 1.057l-.075.352.048.277a3.994 3.994 0 0 1 .151 1.207c0 .38-.027.78-.051 1.163l-.051 1.235-.01.192.12.229.616.67.079.051v.021a5 5 0 0 0 2.486 3.957 2.14 2.14 0 0 0 1.426 1.628l.39.2.007.219a1.015 1.015 0 0 0 .787.951 7.4 7.4 0 0 1 2.514.605l-.1-.068a1.68 1.68 0 0 0 2.223-.277 1.891 1.891 0 0 1 .345.205c.25.3.342.486.7.342 0 0 .445-.181.725-.3l.079.092c1.413.787 5.051-.311 5.7-.746l.2-.219.424.157a.7.7 0 0 0 .619-.044l.1-.1.475-.024.178-.086.479-.41.339-.318-.1.01.438-.1.4-.277.319-.182.161.075a3.183 3.183 0 0 0 2.322-1.286l.205-.209a5.53 5.53 0 0 0 3.263-2.23l.113-.427-.007.051c.11-.277 1.033-.776 1.382-.961a3.725 3.725 0 0 0 .937-.609l.024-.021.291-.192a1.163 1.163 0 0 0 .568.055 1.056 1.056 0 0 0 .783-.742l-.072.219.195-.147a1.71 1.71 0 0 0 .688-.971.956.956 0 0 0 1.108-.362l.376-.667c2.309-.5 3.882-3.714 4.374-4.99a5.61 5.61 0 0 0 1.009-1.194 4.479 4.479 0 0 0 .766-2.278l-.017-.12.664-.113c.328-.062.427-.243.523-.564a5.127 5.127 0 0 1 .533-1.217l.267-.065a.882.882 0 0 0 .469-.776 2.28 2.28 0 0 1 .855-2.035.894.894 0 0 0 .482-.561l.038-.246-.041-.14a2.19 2.19 0 0 1 .64-.376c1.272-.164 1.378-1.477 1.406-1.932l.062-.465-.089.092a1.487 1.487 0 0 0 .387-.79v-.038l-.007-.082c0-.161.085-.253.489-.554a2.207 2.207 0 0 0 1.1-1.727l-.13-.479a13.191 13.191 0 0 0 .954-1.515l.27-.626a3.534 3.534 0 0 1 .858-1.457.863.863 0 0 0 .339-.554 4.557 4.557 0 0 1 .9-1.642 6.249 6.249 0 0 0 1.334-2.821 3.513 3.513 0 0 0 .722-1.953 2.167 2.167 0 0 1 .281-1.043c1.4-1.3 1.618-3.04 1.8-4.586l.037-.274c.349-.27.787-.6.787-.6l.6-.523a1.07 1.07 0 0 0 .359-.739l.12-.1a1.668 1.668 0 0 0 .763-1.282l-.089-.233a1.64 1.64 0 0 0 1.033-.759l.123-.448a6.3 6.3 0 0 1 .557-2.107s.192-.564.356-1.05l.246-.027a.885.885 0 0 0 .759-.677 3.2 3.2 0 0 1 .852-1.806l.243-.349.342-1.4c.191-1.057.335-1.57.811-1.724a.886.886 0 0 0 .53-.462l.082-.376-.065-.328-.051-.226c0-.192.133-.383.5-.811a4.308 4.308 0 0 0 .79-1.327 3.181 3.181 0 0 0 .776-2.155c.038-.663.1-.9.294-1.05a1.9 1.9 0 0 0 .862-1.207l.246-.575a3.339 3.339 0 0 0 .855-1.518 1.881 1.881 0 0 1 .215-.547 1.228 1.228 0 0 0 .547-.752 1.391 1.391 0 0 1 .458-1.159.928.928 0 0 0 .332-.735l-.01-.089.085-.041a1.612 1.612 0 0 0 1.159-1.235l.01-.116-.038-.236-.048-.335a2.115 2.115 0 0 1 .486-1.108 4.069 4.069 0 0 0 .677-1.693 8.838 8.838 0 0 0 1.023-1.375 8.017 8.017 0 0 1 1.86-2.274 1.082 1.082 0 0 0 .482-.687l.362-1.5s.25-1.019.352-1.457l.161-.161a.877.877 0 0 0 .263-.626c0-.222.058-.3.28-.571a3.338 3.338 0 0 0 .448-.684c1.365 0 3.058-.051 4.145-.14l.178-.116.284.109a5.753 5.753 0 0 0 2.589.578c.3-.017.547-.328.7-.643l.068-.014-.007.027.024-.034a9.988 9.988 0 0 1 4.525-.154c.216.044.2.1.39-.014l.626-.38a.866.866 0 0 0 .557.034 11.383 11.383 0 0 1 3.988-.25l1.313.051a.835.835 0 0 0 .557-.181 2.156 2.156 0 0 1 .78-.465l-.284-.1a1.685 1.685 0 0 0 .893.1 7.133 7.133 0 0 1 3.033-.209l-.181-.1a1.114 1.114 0 0 0 .646.205l1.283-.246c.838-.188 2.579-.581 3.044-.192a.907.907 0 0 0 .564.2 10.306 10.306 0 0 0 2.746-.588l.834-.239a2.6 2.6 0 0 0 2.073-.065 19.615 19.615 0 0 0 4.761-.7c.216.027.636.1.742.113a4.024 4.024 0 0 0 3.177-.082s.373-.1.7-.181a1.44 1.44 0 0 0 .6.311 1.87 1.87 0 0 0 1.447-.366l.366-.195a2.747 2.747 0 0 0 1.977-.034s.212-.048.414-.085l.393.26a3.711 3.711 0 0 0 1.943-.345 2.221 2.221 0 0 1 .735-.215 1.041 1.041 0 0 0 .732-.318l.28.116a2.016 2.016 0 0 0 1.987.085l.144-.106a.718.718 0 0 1 .4-.209l1.07.092-.113.017.215.089.92.236c.373.1.544-.089.752-.421.154-.246.339-.328.745-.506l.137.157a1.747 1.747 0 0 0 1.584.062l.455-.106.308.051.814.014c1.2.021 2.411.027 3.081-.53a7.038 7.038 0 0 0 2.274-.181 3 3 0 0 1 .917-.127l.629.26.7-.01a7.781 7.781 0 0 1 1.8.085l.451-.1a3.734 3.734 0 0 0 3.027-.534l.048-.051c.657.424 1.655.335 3.341.12 1.084-.123 3.085-.373 3.516.024l.318.192c1.406.462 3.006-.116 4.3-.585a6.456 6.456 0 0 1 1.307-.386l-.253-.127a1.551 1.551 0 0 0 .893.188 3.053 3.053 0 0 1 1.426-.021l1.618.062.195-.044a2.276 2.276 0 0 1 .937-.055 2.9 2.9 0 0 0 2.288-.592l.458.694c.219.322.4.274.766.168l1.286-.356 2.12-.523c.209-.055.38-.3.506-.581l.342.072a1.083 1.083 0 0 0 .811.267 7.123 7.123 0 0 1 2.305 0l.448-.068a3.367 3.367 0 0 1 1.036.564l.085.072a1.646 1.646 0 0 0 2.254-.28l.123-.109a.975.975 0 0 0 .718-.161l.1-.113.523.318-.089-.075.6.308a2.275 2.275 0 0 0 1.717-.168l.2-.089-.431-.082.944-.01-.017.007.506.1a2.143 2.143 0 0 0 2.107-.356 1.7 1.7 0 0 0 1.768.7l.212-.079h-.007a2.288 2.288 0 0 1 .763.157 1.967 1.967 0 0 0 1.9-.068 1.55 1.55 0 0 0 .53-1.2 2.774 2.774 0 0 1 1.283-.311l.1.3a.9.9 0 0 0 .64.328 5.882 5.882 0 0 0 2.421-.6l.123-.044c.27.038.6.079.6.079l.53.075.086.188a.892.892 0 0 0 .643.581.957.957 0 0 0 .869-.253l-.024.024a3.678 3.678 0 0 1 2.411.195.962.962 0 0 0 .691.192.923.923 0 0 0 .619-.335l.072-.1c.284 0 .564.01.564.01a2.816 2.816 0 0 1 1.525.154.941.941 0 0 0 1.111-.055 3.023 3.023 0 0 1 .824-.311l.133.229a1.859 1.859 0 0 0 1.464.127l.284-.048-.1-.021.65-.017a6.876 6.876 0 0 1 1.231-.41l.051.044a.851.851 0 0 0 .64-.062l.068.041a1.78 1.78 0 0 0 1.074.188.851.851 0 0 0 .438.52 1.375 1.375 0 0 0 1.84-.612l.451.034a.9.9 0 0 0 .626-.544l.25-.287a1.746 1.746 0 0 1 1.17.116l-.294-.475.506.636a2.589 2.589 0 0 0 1.977-.027 2.225 2.225 0 0 1 .581-.137 4.512 4.512 0 0 0 2.846.205 4.437 4.437 0 0 1 1.806-.041l.246.239.349.222a5.6 5.6 0 0 0 2.784-.092 4.476 4.476 0 0 1 1.187-.151l-.109-.085c.2.157.557.41.817.359l1.122-.226.123-.034.2.058.65.007a3.792 3.792 0 0 0 2.5-.513l.246-.25c.1 0 .188.065.451.311a2.357 2.357 0 0 0 2.137.787 2.806 2.806 0 0 0 1.19-.489l.328-.181a.812.812 0 0 0 .722.15 2.228 2.228 0 0 1 1.026.109 2.886 2.886 0 0 0 2.315-.195l.421.2 1.026.489c.421.2.811-.147 1.036-.557l-.062.106.462-.2a.721.721 0 0 0 .633.215c.017-.007.12 0 .325.171a.869.869 0 0 0 .554.195 1.185 1.185 0 0 0 .91-.54l.383-.109.161-.048a1.518 1.518 0 0 0 .67.643 2.4 2.4 0 0 0 1.98-.291l.151-.072.215-.195.229.041c.277-.021.428.1.841.554a2.412 2.412 0 0 0 2.09 1.009 4.1 4.1 0 0 0 1.734-.311l.366.12.291.068a1.758 1.758 0 0 0 1.943-.486l.769.28.239-.041a2.831 2.831 0 0 1 1.409.195l1.32.311a.76.76 0 0 0 .811-.345c.1-.12.123-.161.759-.01a2.706 2.706 0 0 0 2-.185 8.57 8.57 0 0 1 1.847.321 7.69 7.69 0 0 0 2.589.328l.127.051a3.427 3.427 0 0 0 2.644.345l.308-.27.051.041.386.253a3.9 3.9 0 0 0 3.3-.475l.168.048a2.425 2.425 0 0 0 1.806.044 1.738 1.738 0 0 0 1.245.759.992.992 0 0 0 .509-.257c.349-.246.77-.133 1.573.157a3.765 3.765 0 0 0 2.137.219 6.041 6.041 0 0 0 3.471.325 4.536 4.536 0 0 1 2.91.243 1 1 0 0 0 1.1-.191l-.027.027a2.272 2.272 0 0 1 1.4.164l-.12-.1.557.3a18.437 18.437 0 0 0 3.239.147 16.736 16.736 0 0 1 2.681.092.874.874 0 0 0 .783-.383l.038.017a2.084 2.084 0 0 0 1.73.185 2.7 2.7 0 0 0 1.518-.072l.547-.1a2.211 2.211 0 0 0 2.24 1.166l.691.051.489.024a16.874 16.874 0 0 1 4.617-.318l2.452.01.339-.085c.188.055.52.205.749.3l1.235.438h.137a9.672 9.672 0 0 1 3.208.424 15.689 15.689 0 0 0 2.907.527 1.017 1.017 0 0 0 .742-.342l.39.154a2.349 2.349 0 0 0 1.837.233l.164-.116h.239s.222-.031.434-.055a3.856 3.856 0 0 0 3.355.78 2.835 2.835 0 0 1 1.775.127c.277.164.858-.048 1.132-.209l-.13.079.345.051a1.925 1.925 0 0 0 1.358-.137l.14.147a1.242 1.242 0 0 0 1.016.982l.527.044.633.041a1.665 1.665 0 0 0 1.72-.592.87.87 0 0 0 .609.28h.927l.027.01-.038.1a.883.883 0 0 0 1.139.852 11.977 11.977 0 0 1 3.2-.578 1.317 1.317 0 0 0 .773.93 1.469 1.469 0 0 0 1.477-.448l.544.27-.079-.007.14.055 1.163.089.325-.356.161.109a.891.891 0 0 0 .756.349 3.277 3.277 0 0 1 1.44.359 4.249 4.249 0 0 0 2.955.363l.472-.325-.014.01c.3-.205 1.58.185 1.9.513l.13.123a2.186 2.186 0 0 0 2.415.068l.215.113a12.355 12.355 0 0 0 3.451 1.368 1.245 1.245 0 0 0 .852-.363l-.044.041.3-.065a2.2 2.2 0 0 0 .985-.386 5.8 5.8 0 0 1 1.026.67l.133.1a3.334 3.334 0 0 0 2.244.431 1.02 1.02 0 0 0 .7-.506l.267.109a2.63 2.63 0 0 0 1.566.233c.417.14 1.18.4 1.18.4s.376.1.605.157a3.106 3.106 0 0 0 2.435.841 2.785 2.785 0 0 1 1.245.181c.27.147.311.243.575.092l.345-.2a.822.822 0 0 0 .571.014c.051-.021.089-.024.414.161a2.106 2.106 0 0 0 1.686.239l.151.239.592.7a.5.5 0 0 0 .458.239c.25 0 .3-.157.482-.335l.332-.335.1-.113.12-.027.387.434.1.13-.089-.14a2.009 2.009 0 0 0 2.774.937l.513-.127.157.239a1.259 1.259 0 0 0 .886 1.081.88.88 0 0 0 .954-.267 1.722 1.722 0 0 1 .7-.024h.52a1.906 1.906 0 0 0 1.744.212 2.345 2.345 0 0 0 2.336.438 2.334 2.334 0 0 1 .664-.092 4.278 4.278 0 0 0 2.479-.308 1.975 1.975 0 0 1 1.406-.191.883.883 0 0 0 .958-.287 3.655 3.655 0 0 0 .756-1.789c.362-.263.906-.64.906-.64a.887.887 0 0 0 .369-.722l-.044-.277-.027-.154a1.35 1.35 0 0 1 .219-.568 3.644 3.644 0 0 0 .356-1.036 3.777 3.777 0 0 0 .7-2.332 3.216 3.216 0 0 1 .239-1.337l.079-.356a1.564 1.564 0 0 0-.123-.605l-.332-.8a3.823 3.823 0 0 0-.941-1.618 3.311 3.311 0 0 0-2.49-2.226c-.619-.215-1.2-.424-1.375-.78a1.1 1.1 0 0 0-.66-.479l-1.854-.472a7.755 7.755 0 0 0-3.461-.5c-1.816-1.1-3.995-1.207-6.115-1.289l-.554-.017a5.142 5.142 0 0 0-3.071-.5c-1.9-1.077-4.579-.944-6.577-.824 0 0-.239.01-.458.027-1.378-1.1-3.034-.923-4.514-.725a7.05 7.05 0 0 1-2.825-.014 6.941 6.941 0 0 0-4.62-.6 5.478 5.478 0 0 1-3.218-.243.906.906 0 0 0-.667-.089 3.039 3.039 0 0 1-1.655-.257 3.942 3.942 0 0 0-2.958-.1 23.11 23.11 0 0 1-3.909-.38 18.555 18.555 0 0 0-5.267-.291 6.451 6.451 0 0 0-2.767-.267 3.426 3.426 0 0 1-2.394-.373.961.961 0 0 0-.54-.161 44.009 44.009 0 0 1-7.969-.633l-3.02-.4h-.185a28.715 28.715 0 0 1-5.605-.226 27.546 27.546 0 0 0-6.775-.116 41.671 41.671 0 0 0-9.675-.67l-1.809.014c-.232-.137-.592-.345-.592-.345l-.516-.12a23.1 23.1 0 0 1-4.049-.181 18.139 18.139 0 0 0-5.13-.044l-.1.021a3.359 3.359 0 0 1-2-.212 4.794 4.794 0 0 0-2.808-.168 8.24 8.24 0 0 0-3.136-.325h-1.406l-.082.021a1.1 1.1 0 0 0-.944-.192l-.277.147c-.66-.031-4.685-.256-4.685-.256a83.8 83.8 0 0 0-11.32-.2c-.25-.082-2.462-.766-2.462-.766l-.267-.038-14.525-.137c-6.614-.1-13.451-.215-19.8-.048-2.2-.12-4.521-.12-6.987-.116-3.068 0-6.248.007-9.292-.26l-.274.017a31.6 31.6 0 0 1-7.155.469l-4.436.075a10.245 10.245 0 0 0-3.759.058 7.613 7.613 0 0 1-3.588-.014l-.448-.027a32.434 32.434 0 0 1-8.957.465l-.188.007a53.367 53.367 0 0 1-9.121.441l-4.542.017-.161.021a27.772 27.772 0 0 1-7.374.646 14.2 14.2 0 0 0-4.771.359 22.533 22.533 0 0 1-3.249.448 8.479 8.479 0 0 0-3.957.062 10.5 10.5 0 0 1-2.271.267 11.179 11.179 0 0 0-3.923-.113l-1.628.113-.13.014a20.017 20.017 0 0 1-5.9.328l-.383.031c-.78.239-3.143.982-4.939.465a.892.892 0 0 0-.575.031 11.42 11.42 0 0 1-4.839.506h-2.835a.723.723 0 0 0-.506.205 3.837 3.837 0 0 1-2.705.6l-.4.113-.421-.1a34.76 34.76 0 0 1-4.09.229 23.086 23.086 0 0 0-6.365.7 5.784 5.784 0 0 1-2.452.144 6.911 6.911 0 0 0-3.471.38h-.523a18.339 18.339 0 0 0-5.5.564 9.245 9.245 0 0 0-3.909.393 10.67 10.67 0 0 1-2.227.417 7.922 7.922 0 0 0-3.765.434 5.257 5.257 0 0 1-3.383.287l-.222-.048a5.149 5.149 0 0 0-2.264.349c-.848.28-1.163.383-1.744-.191l-.1-.127-.007-.01.263-.6s.089-.205.178-.4a1.744 1.744 0 0 0 .93-.544 1.45 1.45 0 0 0 .287-.917 3.709 3.709 0 0 0-.062-.6l-.048-.352.144-.031a3.294 3.294 0 0 0 1.043-1.631 3.448 3.448 0 0 1 .28-.622l.13.048.4.1a1.4 1.4 0 0 0 1.2-.52l.082-.27a2.6 2.6 0 0 0 .845-1.536l.041-.144c.715-.742 2.527-2.938 2.787-4.333a12.293 12.293 0 0 1 2.65-3.225l.4.229a.758.758 0 0 0 .787-.024.89.89 0 0 0 .376-.766c.017-.256.12-.4.39-.715l.192-.287a1.266 1.266 0 0 0 .8-.027c.728-.318.845-1.1.94-1.741l.058-.28a3.075 3.075 0 0 0 2.558-1.4 3.678 3.678 0 0 1 1.06-.951.9.9 0 0 0 .486-.793l-.031-.219a1.317 1.317 0 0 0 .7-.154 1.908 1.908 0 0 0 .889-1.433l.113-.386.27-.062a2.22 2.22 0 0 0 1.259-.445 1.1 1.1 0 0 0 .352-.711l-.01.116a8 8 0 0 1 2.315-2.432l-.236.024c.438-.044.92-.229.937-.67l.038-.937v-.051a1.561 1.561 0 0 0 .848-.116 2.376 2.376 0 0 0 1.064-1.819l.161-.561a1.894 1.894 0 0 0 .9-.831l.038-.062.657-.229.38-.109c.308-.086.554-.585.629-.893l-.017.072.222-.209a2.736 2.736 0 0 0 .516-.585.846.846 0 0 0 .646-.031 2.174 2.174 0 0 0 1.265-1.672 2.362 2.362 0 0 0 .7-.557c1.091-.229 1.4-1.436 1.56-2.161a2.959 2.959 0 0 1 .3-.958 1.586 1.586 0 0 1 .315.072.86.86 0 0 0 .694-.034.883.883 0 0 0 .441-.537l.284-1.04.191-.1c1.074-.54 3.222-1.625 3.335-3.413.178-.3.448-.756.448-.756.513-1.023.7-1.211 1.135-1.132a.947.947 0 0 0 .732-.246.982.982 0 0 0 .294-.711l-.007-.144.4-.1a2.548 2.548 0 0 0 1.44-.917 1.464 1.464 0 0 0 .332-.988v-.01l.082-.062c.092-.192.322-.407.322-.612l.007.044-.154.383.089-.062.575-.752c.26-.079.578-.161.578-.161.188-.058.164-.13.28-.291a19.156 19.156 0 0 1 2.856-2.473l.373-.253.174-.2a37.991 37.991 0 0 0 2.832-3.488l.144-.479-.017-.178v-.01l.024-.079a.915.915 0 0 0 .626-.349 2.342 2.342 0 0 1 1.211-.9l.1.068-.007.062v.062l.017.246a.839.839 0 0 0 .52.663 1.163 1.163 0 0 0 .684.441l.014.031a2.081 2.081 0 0 0 .486.838 9.008 9.008 0 0 0 .082.992 6.9 6.9 0 0 1 .075.821l-.072.458-.044.188-.274.2-.482.363a.723.723 0 0 0-.3.551l-.007.075.014.041a1.341 1.341 0 0 0-.226.513c-.215.267-.448.564-.448.564l-.15.239.27-.1-.677.308-.934.828-.691.557a.8.8 0 0 0-.284.684 2.5 2.5 0 0 1-.54 1.2 5.532 5.532 0 0 0-.783 1.669l-1.012 2.076-.086.363.017.178a4.654 4.654 0 0 1 .086.876 12.894 12.894 0 0 1-.294 2.315 14.156 14.156 0 0 0-.311 2.579 5.971 5.971 0 0 0 .205 1.6l.226.322a1.273 1.273 0 0 0 .332.783 2.216 2.216 0 0 1 .106.677l-.007.441-.014.513a3.5 3.5 0 0 0 .547 2.042 14.091 14.091 0 0 0 2.158 3.738l.393.26.735.2a9.9 9.9 0 0 1 1.477.445l.079.171a1.984 1.984 0 0 0 1.754.28l.222-.021.1.26a1.143 1.143 0 0 0 .694.417l.626.072a2.483 2.483 0 0 0 2.021-.27 7.134 7.134 0 0 0 5.383-.164l.3-.311.051-.024a4.676 4.676 0 0 0 1.826-1.618 3.253 3.253 0 0 0 .711-.414l.072-.055.5.277a1.735 1.735 0 0 0 1.833-1.118 2.988 2.988 0 0 0 1.8-1.026l.558-.482a1.61 1.61 0 0 0 .438-.8l.024-.277.417-.075a2.187 2.187 0 0 0 1.85-1.194l-.069.123.469-.718c.811-1.248 1.573-2.432 2.24-3.683a2.382 2.382 0 0 0 1.026-.766 3.867 3.867 0 0 0 .636-1.375l.079-.1c.373-.5.51-.612.681-.588a.886.886 0 0 0 .749-.219.9.9 0 0 0 .277-.65v-.085l-.007-.151a2.308 2.308 0 0 1 .592-1.337l.742-1.306c.075-.154.2-.222.568-.393l.735-.421a.782.782 0 0 0 .4-.619v-.092l-.12-.243c.072-.243.147-.486.147-.486.27-1.043.386-1.132.838-1.132a.881.881 0 0 0 .882-.886v-.1a2.4 2.4 0 0 1 .185-.776 5.453 5.453 0 0 0 .246-1.016c.6-.773 1.012-1.053 1.621-1.053a.874.874 0 0 0 .657-.287.9.9 0 0 0 .229-.588v-.175c0-.383.345-.667 1.033-1.153l.889-.711a.633.633 0 0 0 .25-.462s.3-1.655.4-2.22c.578-.349 2.343-1.43 2.343-1.43l.274-.174a.878.878 0 0 0 .4-.735v-.027l.978-.277c.363-.106.376-.315.393-.694.044-.773 1.484-1.7 2.261-2.192l1.043-.793.229-.41-.01-.034.01-.007a1.793 1.793 0 0 0 .513-.828l.462.075.226.044c.39.079.646.065.824-.287l.41-.78.021-.055.38-.144a.876.876 0 0 0 .308-.643c0-.575.339-.941 1.012-1.081a.893.893 0 0 0 .65-.581 2.38 2.38 0 0 1 .746-.917l.123-.12a1.186 1.186 0 0 0 .7-.4 1.108 1.108 0 0 0 .209-.643l-.024-.1a1.172 1.172 0 0 0 1.029-.352 2.933 2.933 0 0 0 .715-1.118l.13-.287a5.528 5.528 0 0 0 2.4-.742l.691-.3.236-.12a8.756 8.756 0 0 1 2.2-1l-.27-.065.633.062a5.766 5.766 0 0 0 2.069-.817l.958-.438.01-.01h.017l.3.01-.024.263-.01.075.092.308a2.154 2.154 0 0 1 .246.91c0 .7-.537 1.228-1.426 2.021a9 9 0 0 0-1.327 1.44 2.522 2.522 0 0 0-1.648 1.259c-.332.516-.376.51-.52.493a.878.878 0 0 0-.674.195.889.889 0 0 0-.318.626 2.194 2.194 0 0 1-.715 1.45s-.339.475-.6.855a1.591 1.591 0 0 0-.763.236 2.056 2.056 0 0 0-.684 1.5l-.065.38a.853.853 0 0 0-.489.742c0 .27-.051.428-.144.472a1.108 1.108 0 0 0-.492.578l-.486 1.313a7.069 7.069 0 0 0-.619 2.267 2.923 2.923 0 0 0-.575 1.648c-.041.438-.068.643-.205.756a.876.876 0 0 0-.315.592l-.438 4.261-.185 1.642-.01.239.055.284-.157.475.02.144a4.774 4.774 0 0 1 .055.674 3.774 3.774 0 0 1-.055.629l-.01.869.024.243a.929.929 0 0 0 .133 1.19c.3.256.284.937.267 1.484v.352a10.73 10.73 0 0 0 .39 2.825 9.666 9.666 0 0 1 .318 1.946l-.041.318a1.729 1.729 0 0 0 .67 1.248l.079.079-.024.116a1.028 1.028 0 0 0 .363.776l.024.021.041.322.2.91c.068.3.236.373.534.469.2.065.257.147.383.814a2.975 2.975 0 0 0 .937 1.878c.212.164.294.246.554.192l.267-.055.493.376c.732.6 1.96 1.6 3.482.811l.079-.068a3.457 3.457 0 0 0 2.285.352 2.632 2.632 0 0 1 1-.007 4.414 4.414 0 0 0 3.9.26 4.16 4.16 0 0 1 1.915-.229l.421.007a4.243 4.243 0 0 0 2.521-1.313 1.806 1.806 0 0 0 .756-.058 2.541 2.541 0 0 0 1.286-1.618l.239-.52a3.023 3.023 0 0 0 1.655-.858 1.291 1.291 0 0 0 .735-.188 1.573 1.573 0 0 0 .616-1.259v-.068a1.8 1.8 0 0 0 1.176-1.477l.127-.424.113-.181.39-.51a2.728 2.728 0 0 0 .79-1.245l.027-.233-.017-.181-.01-.1c0-.465.636-.927 1.4-1.433l.441-.3a.852.852 0 0 0 .366-.667 9.659 9.659 0 0 1 .7-2.336l.116-.414.024-.085a.748.748 0 0 0 .568-.486l.438-1.4.243-.831.345-.828a4.068 4.068 0 0 1 1.074-1.833.881.881 0 0 0 .332-.694l-.055-.3-.068-.321c0-.226.168-.4.643-.793a3.3 3.3 0 0 0 1.115-1.347l.072-.315-.017-.157-.017-.144c0-.195.12-.322.605-.677a2.451 2.451 0 0 0 1.259-1.946 2.948 2.948 0 0 0-.113-.571l.2-.051c.869-.185 1.351-.609 1.474-1.241a2.773 2.773 0 0 0 1.282-1.984 1.929 1.929 0 0 1 .5-1.094 1.966 1.966 0 0 0 1.71-1.96l.044-.277a2.077 2.077 0 0 0 1.956-.865c.51-.575.588-.575.852-.472a.906.906 0 0 0 .773-.109.989.989 0 0 0 .438-.687v-.014a2.554 2.554 0 0 0 1.686-.917c.294-.3.5-.482.684-.482l.431-.109a1.9 1.9 0 0 1 1.819-.14 1.143 1.143 0 0 0 .513.527 1.638 1.638 0 0 0 .982.048 1.094 1.094 0 0 0 .263.585 1.344 1.344 0 0 0 1.354.287 2.768 2.768 0 0 0 .28 1.05l.12.311.034-.109c-.109.431.007 1.235.421 1.392l.021.007a3.889 3.889 0 0 1 .041.746 3.975 3.975 0 0 0 .181 1.409l-.048-.39.212.971.075.168a1.1 1.1 0 0 0-.174.516l.086.366a4.133 4.133 0 0 1 .479 2.055 11.059 11.059 0 0 1-.11 1.389v.109l.085.38a4.965 4.965 0 0 1 .51 2.24c0 .185-.007.38-.021.578v.038a1.143 1.143 0 0 0 .359.674l.027-.086v.113l.1.116-.106-.086-.014.161.055.438.513 1.368-.034-.188.034.188a4.023 4.023 0 0 0 .763 1.642c.322.486.465.732.465.937l-.041.192-.092.383.113.424a.882.882 0 0 0 .674.455l.5.058.267.26c.52.482.773.756.773 1.033l-.024.133-.017.123c0 .431.575.865 1.009.988l-.106-.031.195.253a1.8 1.8 0 0 0 1.477.923l.462-.171.113.075.263.147a1.915 1.915 0 0 0 2.069 1.8c.568.041.735.082.875.315a.866.866 0 0 0 .609.414.9.9 0 0 0 .557-.13c.369.178.776.376.776.376l.133.058 1.1.157a1.865 1.865 0 0 1 .643.082l.041.133a1.156 1.156 0 0 0 .393.588 22.6 22.6 0 0 0 4.5 1.669l.472-.017a7.327 7.327 0 0 1 1.878-.294l.9-.079.021.014 1.112.4.226-.157a2.509 2.509 0 0 0 1.72-.366c.424-.246.544-.294.773-.2a.883.883 0 0 0 .944-.178 24.938 24.938 0 0 1 4.5-3.3l-.075.014.492-.14.328-.2a2.093 2.093 0 0 0 1.25-1.747c.017-.15.024-.2.66-.438a3.787 3.787 0 0 0 1.217-.657 1.222 1.222 0 0 0 .239-.831l-.01-.174.027.243.263-.339.038.031a1.143 1.143 0 0 0 1.525-.575l.089-.058c2.333-2.014 2.89-2.278 3.995-1.874l.274.055.065.007.075.291a2.865 2.865 0 0 0 .53 1.173 7.474 7.474 0 0 0 1.156 2.661v.034a3.354 3.354 0 0 0 .978 2.209 2.31 2.31 0 0 1 .575.951 1.213 1.213 0 0 0 .469.633l.448.3a2.98 2.98 0 0 0 1.662.728l.335.328.041.027a1.047 1.047 0 0 0 .687.964l1.467.386a11.037 11.037 0 0 0 2.668.547l.072.021c2.921 1.067 4.932 1.378 6.146.944a10.3 10.3 0 0 1 3.081-.263.879.879 0 0 0 .947-.222h.014a1.434 1.434 0 0 0 1.635-.428 7.237 7.237 0 0 1 .828.048c.893.092 2.3.2 3.078-1.012a3.319 3.319 0 0 0 1.149-.479 2.283 2.283 0 0 0 2.384-.5l.407-.287a8.8 8.8 0 0 1 3.215-1.207l.174-.017.428-.014a2.236 2.236 0 0 0 1.734-.479 1.647 1.647 0 0 0 .363-.571l1.04-.123c.318-.038.393-.27.51-.568l-.024.072a9.479 9.479 0 0 1 2.114-1.341l1.341-.78a1.731 1.731 0 0 1 1.539-.349.968.968 0 0 0 .924-.209l.215-.2a2.358 2.358 0 0 0 .889-1.426l.342.017a.879.879 0 0 0 1.214-.742s.038-.315.058-.629a3.014 3.014 0 0 1 .78-.038h.924a.679.679 0 0 0 .643-.523l.01-.007a1.609 1.609 0 0 0 1.389-1.135l.031-.137c.048-.363.089-.441 1.033-.6a2.739 2.739 0 0 0 2.271-1.447 1.593 1.593 0 0 0 1-.7l.034-.051c.291-.041.646-.089.646-.089s.3-.51.451-.77a2.269 2.269 0 0 0 1.426-.787l.256-.239.205.055a1.159 1.159 0 0 0 .811-.089 3.013 3.013 0 0 0 1.06-1.573c.15-.386.26-.646.386-.681a1.034 1.034 0 0 0 .643-.742l.017-.072a2.984 2.984 0 0 1 .6-.147 2.454 2.454 0 0 0 1.9-1.187 2.016 2.016 0 0 0 1.112-1.272 1.34 1.34 0 0 1 .263-.482 2.194 2.194 0 0 1 .824-.215 2.379 2.379 0 0 0 1.912-1.053 2.463 2.463 0 0 0 1.166-.9c.263-.328.27-.328.407-.3a.811.811 0 0 0 .968-.742l.212-.065a2.026 2.026 0 0 0 1.146-.687 1.017 1.017 0 0 0 .968-.075 3.107 3.107 0 0 1 1.016-.52 3.23 3.23 0 0 0 2.223-1.919l.038-.239.051.007a1.928 1.928 0 0 0 1.707-.26 1.317 1.317 0 0 0 .414-.947l.068-.2a2.974 2.974 0 0 1 .629-.01 3.871 3.871 0 0 0 1.477-.15.879.879 0 0 0 .575-.749c.021-.188.027-.25.882-.359a3.994 3.994 0 0 0 1.539-.434c.188-.113.256-.113.315-.325l.113-.376a2.916 2.916 0 0 0 2.391-.646h.075a4.053 4.053 0 0 0 1.6-.811l.882-.54.376.058a2.019 2.019 0 0 0 .872.01l.667-.044a5.857 5.857 0 0 0 4.06-1.347 6.5 6.5 0 0 0 1.624-.407 12.63 12.63 0 0 1 2.924.147c.65.079 1.317.137 1.97.161a1.408 1.408 0 0 0 2.178.516.911.911 0 0 0 .5.551.881.881 0 0 0 .759-.007 1.76 1.76 0 0 1 1.19.007 5.3 5.3 0 0 0 1.474.123 3.661 3.661 0 0 0 2.479.345c.783-.106 1.166-.1 1.43.13a2.125 2.125 0 0 0 1.337 1.115c.407.144.451.185.479.274l.174.311a2.294 2.294 0 0 0 1.676.7l.345.051v.01a2.2 2.2 0 0 0 2.743 1.142 6.615 6.615 0 0 1 2.213 1.9 2.586 2.586 0 0 0 1.344 1.026l-.12-.014a.8.8 0 0 1 .359.222l-.072.274a2.772 2.772 0 0 0 .574 1.532c.209.328.281.462.281.557l-.038.137-.106.407.144.472a7.485 7.485 0 0 1 1.047 4.063 16.522 16.522 0 0 1-.492 3.745 1.565 1.565 0 0 0-.157.629 2.514 2.514 0 0 0 .1.663l.02.12a.884.884 0 0 0-.325.626v.592l-.086.147-.342.048a.888.888 0 0 0-.54.616c-.079.311-.325.5-.756.807 0 0-.2.157-.393.315a1.189 1.189 0 0 0-1.009.893.834.834 0 0 0-.605.386c-.1.181-.339.291-.722.455a2.767 2.767 0 0 0-1.378 1 7.654 7.654 0 0 0-1.378.5 3.916 3.916 0 0 1-1.659.5.885.885 0 0 0-.817.557c-.157.376-.414.489-1.07.687a2.514 2.514 0 0 0-1.953 1.861 1.084 1.084 0 0 0-.653.578l-.086.431.007.044a3.03 3.03 0 0 0-.438 1.556 9.915 9.915 0 0 0 .089 1.2l.065.65a.937.937 0 0 0 .534.766c.113.044.226.315.325.578a2.2 2.2 0 0 0 1.847 1.6v.01l-.065-.014.058.048.127.462a2.2 2.2 0 0 0 1.546.917l.342.092a4.635 4.635 0 0 0 3.543 1.683 3.969 3.969 0 0 1 2.623.971.882.882 0 0 0 1.036.219l1.7-.807a1.69 1.69 0 0 1 .776.027 2.224 2.224 0 0 0 1.816-.243 1.514 1.514 0 0 0 .469-.626 3.506 3.506 0 0 0 1.625-.855 1.87 1.87 0 0 1 .831-.5.933.933 0 0 0 .8-.742v-.007a.49.49 0 0 1 .366-.058.883.883 0 0 0 .982-.616c.1-.308.11-.356.876-.4a2.9 2.9 0 0 0 2.63-1.344l.116-.52-.007-.1v-.02a1.078 1.078 0 0 0 .523-.694l.15-.116a1.875 1.875 0 0 0 .793-.975 2.7 2.7 0 0 1 1.029-.766 3.968 3.968 0 0 0 1.953-1.782 2.634 2.634 0 0 0 1.406-1.936c.14-.534.233-.79.417-.862a.894.894 0 0 0 .561-.824 7.993 7.993 0 0 1 .742-3.081l.058-.335v-.062c-.014-.195-.021-.383-.021-.568a14.786 14.786 0 0 1 .133-1.741l.123-1.351.01-.058-.01-.086m-468.731 88.4-.051.01-.154.065.205-.075"/>
    </g>
  </g>
</svg>