<svg width="24" height="24" viewBox="0 0 24 24" fill="none" xmlns="http://www.w3.org/2000/svg">
<path d="M21 22H3C2.59 22 2.25 21.66 2.25 21.25C2.25 20.84 2.59 20.5 3 20.5H21C21.41 20.5 21.75 20.84 21.75 21.25C21.75 21.66 21.41 22 21 22Z" fill="#141414"/>
<path d="M19.0186 3.48162C17.0786 1.54162 15.1786 1.49162 13.1886 3.48162L11.9786 4.69162C11.8786 4.79162 11.8386 4.95162 11.8786 5.09162C12.6386 7.74162 14.7586 9.86162 17.4086 10.6216C17.4486 10.6316 17.4886 10.6416 17.5286 10.6416C17.6386 10.6416 17.7386 10.6016 17.8186 10.5216L19.0186 9.31162C20.0086 8.33162 20.4886 7.38162 20.4886 6.42162C20.4986 5.43162 20.0186 4.47162 19.0186 3.48162Z" fill="#141414"/>
<path d="M15.6084 11.5308C15.3184 11.3908 15.0384 11.2508 14.7684 11.0908C14.5484 10.9608 14.3384 10.8208 14.1284 10.6708C13.9584 10.5608 13.7584 10.4008 13.5684 10.2408C13.5484 10.2308 13.4784 10.1708 13.3984 10.0908C13.0684 9.81078 12.6984 9.45078 12.3684 9.05078C12.3384 9.03078 12.2884 8.96078 12.2184 8.87078C12.1184 8.75078 11.9484 8.55078 11.7984 8.32078C11.6784 8.17078 11.5384 7.95078 11.4084 7.73078C11.2484 7.46078 11.1084 7.19078 10.9684 6.91078C10.9472 6.86539 10.9267 6.82022 10.9068 6.77532C10.7592 6.442 10.3246 6.34455 10.0668 6.60231L4.33837 12.3308C4.20837 12.4608 4.08837 12.7108 4.05837 12.8808L3.51837 16.7108C3.41837 17.3908 3.60837 18.0308 4.02837 18.4608C4.38837 18.8108 4.88837 19.0008 5.42837 19.0008C5.54837 19.0008 5.66837 18.9908 5.78837 18.9708L9.62837 18.4308C9.80837 18.4008 10.0584 18.2808 10.1784 18.1508L15.8997 12.4295C16.1592 12.1699 16.0613 11.7245 15.7237 11.5804C15.6857 11.5642 15.6473 11.5476 15.6084 11.5308Z" fill="#141414"/>
</svg>
