<svg width="24" height="24" viewBox="0 0 24 24" fill="none" xmlns="http://www.w3.org/2000/svg">
<path d="M21.7585 15.92L15.3585 4.4C14.4985 2.85 13.3085 2 11.9985 2C10.6885 2 9.49851 2.85 8.63851 4.4L2.23851 15.92C1.42851 17.39 1.33851 18.8 1.98851 19.91C2.63851 21.02 3.91851 21.63 5.59851 21.63H18.3985C20.0785 21.63 21.3585 21.02 22.0085 19.91C22.6585 18.8 22.5685 17.38 21.7585 15.92ZM11.2485 9C11.2485 8.59 11.5885 8.25 11.9985 8.25C12.4085 8.25 12.7485 8.59 12.7485 9V14C12.7485 14.41 12.4085 14.75 11.9985 14.75C11.5885 14.75 11.2485 14.41 11.2485 14V9ZM12.7085 17.71C12.6585 17.75 12.6085 17.79 12.5585 17.83C12.4985 17.87 12.4385 17.9 12.3785 17.92C12.3185 17.95 12.2585 17.97 12.1885 17.98C12.1285 17.99 12.0585 18 11.9985 18C11.9385 18 11.8685 17.99 11.7985 17.98C11.7385 17.97 11.6785 17.95 11.6185 17.92C11.5585 17.9 11.4985 17.87 11.4385 17.83C11.3885 17.79 11.3385 17.75 11.2885 17.71C11.1085 17.52 10.9985 17.26 10.9985 17C10.9985 16.74 11.1085 16.48 11.2885 16.29C11.3385 16.25 11.3885 16.21 11.4385 16.17C11.4985 16.13 11.5585 16.1 11.6185 16.08C11.6785 16.05 11.7385 16.03 11.7985 16.02C11.9285 15.99 12.0685 15.99 12.1885 16.02C12.2585 16.03 12.3185 16.05 12.3785 16.08C12.4385 16.1 12.4985 16.13 12.5585 16.17C12.6085 16.21 12.6585 16.25 12.7085 16.29C12.8885 16.48 12.9985 16.74 12.9985 17C12.9985 17.26 12.8885 17.52 12.7085 17.71Z" fill="#141414"/>
</svg>
