<svg width="108" height="32" viewBox="0 0 108 32" fill="none" xmlns="http://www.w3.org/2000/svg">
<rect width="108" height="32" rx="2" fill="#0B1B34"/>
<path d="M93.7808 10.9172C93.4586 10.9172 93.1544 11.0246 92.9217 11.2572C92.6533 11.5078 92.528 11.812 92.528 12.17C92.528 12.5279 92.6533 12.8143 92.8859 13.0648C93.1365 13.3154 93.4228 13.4228 93.7808 13.4228C94.1208 13.4228 94.4072 13.2975 94.6577 13.0648C94.9083 12.8143 95.0336 12.5279 95.0336 12.17C95.0336 11.8299 94.9083 11.5257 94.6577 11.2751C94.4251 11.0425 94.1208 10.9172 93.7808 10.9172ZM94.5145 12.9217C94.3177 13.1185 94.0671 13.2259 93.7808 13.2259C93.4944 13.2259 93.2439 13.1185 93.047 12.9217C92.8501 12.7248 92.7427 12.4742 92.7427 12.1879C92.7427 11.9015 92.8501 11.6689 93.047 11.4541C93.2439 11.2393 93.4944 11.132 93.7808 11.132C94.0671 11.132 94.3177 11.2393 94.5145 11.4541C94.7114 11.6689 94.8188 11.9015 94.8188 12.1879C94.8188 12.4742 94.7114 12.7069 94.5145 12.9217Z" fill="white"/>
<path d="M94.3535 12.7964C94.3535 12.7785 94.3535 12.7606 94.3535 12.7606V12.6353C94.3535 12.4921 94.3177 12.3847 94.2282 12.3311C94.1745 12.2953 94.1208 12.2774 94.0313 12.2595C94.1208 12.2416 94.2103 12.2237 94.2819 12.17C94.3535 12.1163 94.3714 12.0268 94.3714 11.9194C94.3714 11.7583 94.3177 11.651 94.1924 11.5794C94.1208 11.5436 94.0313 11.5078 93.9239 11.5078C93.906 11.5078 93.8166 11.5078 93.6376 11.5078C93.4586 11.5078 93.3334 11.5078 93.2439 11.5078V12.8859H93.6018V12.3847H93.7629C93.8166 12.3847 93.8524 12.4026 93.8881 12.4026C93.9418 12.4205 93.9776 12.4563 93.9955 12.51C94.0134 12.5458 94.0134 12.5995 94.0134 12.689C94.0134 12.7785 94.0313 12.8322 94.0313 12.8859H94.3714L94.3535 12.8501C94.3535 12.8322 94.3535 12.8143 94.3535 12.7964ZM93.9418 12.0805C93.8882 12.1163 93.8345 12.1342 93.745 12.1342H93.6018V11.7226H93.6913C93.7808 11.7226 93.8524 11.7404 93.9061 11.7583C93.9776 11.7941 94.0134 11.8478 94.0134 11.9194C94.0134 11.991 93.9776 12.0447 93.9418 12.0805Z" fill="white"/>
<path d="M47.1946 10.8814C47.1946 10.8814 45.8703 18.7203 45.6376 19.7047C45.4049 20.7069 44.868 21.4586 43.5436 21.4586C42.2192 21.4586 41.9866 20.5279 42.255 19.0962C42.5235 17.6644 43.7405 10.8993 43.7405 10.8993H38.1924C38.1924 10.8993 36.7248 18.0402 36.4743 19.9194C36.2058 21.8165 35.8837 24.5011 42.5235 24.5011C45.2081 24.5011 48.1969 23.6062 49.0917 23.6062C49.9866 23.6062 50.6488 23.6062 50.6488 23.6062L52.9038 10.8635H47.1946V10.8814Z" fill="white"/>
<path d="M69.8882 10.8814C69.8882 10.8814 68.5638 18.7203 68.3311 19.7047C68.0984 20.7069 67.5615 21.4586 66.2371 21.4586C64.9128 21.4586 64.6801 20.5279 64.9486 19.0962C65.217 17.6644 66.434 10.8993 66.434 10.8993H60.8859C60.8859 10.8993 59.4184 18.0402 59.1678 19.9194C58.8993 21.8165 58.5772 24.5011 65.217 24.5011C67.9016 24.5011 70.8904 23.6062 71.7852 23.6062C72.6801 23.6062 73.3423 23.6062 73.3423 23.6062L75.5973 10.8635H69.8882V10.8814Z" fill="white"/>
<path d="M55.0336 5.44067L51.7584 24.1431H57.3423L60.5996 5.44067H55.0336Z" fill="white"/>
<path d="M86.6398 10.9172L83.9732 14.3355L82.6309 10.9172H76.3311L78.962 17.3243L73.5929 24.1968H78.6577L81.5392 20.5458L83.0962 24.1968H89.4318L86.5682 17.2707L91.4542 10.9172H86.6398Z" fill="white"/>
<path d="M29.387 5.54806C22.0134 5.54806 19.0783 5.54806 19.0783 5.54806L15.6779 24.1968C15.6779 24.1968 24.6801 24.1968 25.7539 24.1968C26.8098 24.1968 34.5772 23.8031 35.5794 18.3266C36.5817 12.8501 36.5817 12.8501 36.7427 11.5794C36.9038 10.1834 36.7606 5.54806 29.387 5.54806ZM30.2998 13.1006C30.1387 14.3713 30.1387 14.3176 29.7092 16.6264C29.2796 18.9351 28.1342 20.5637 25.7002 20.5637C24.877 20.5637 22.6756 20.5637 22.6756 20.5637L24.519 9.27065C24.519 9.27065 25.5928 9.27065 27.6152 9.27065C30.3714 9.27065 30.4966 11.5615 30.2998 13.1006Z" fill="white"/>
</svg>
