<svg width="287" height="85" viewBox="0 0 287 85" fill="none" xmlns="http://www.w3.org/2000/svg">
<path d="M277.876 17.5886V12.616H271.484V42.2284H277.876V27.3049C277.876 20.6672 282.793 18.7173 287 19.0134V12.0796C283.268 12.0796 279.653 13.5602 277.876 17.5886ZM243.174 24.9359C244.062 20.4661 247.319 17.6725 252.113 17.6725C255.963 17.6725 259.69 19.8627 260.578 24.9359H243.174ZM243.235 30.1432H266.802C266.946 29.2617 267.026 28.371 267.042 27.4781C267.042 18.9519 261.003 11.8338 252.175 11.8338C242.878 11.8338 236.53 18.6446 236.53 27.411C236.542 36.3171 242.878 43.0218 252.65 43.0218C258.455 43.0218 262.897 40.5913 265.618 36.5629L260.366 33.462C258.946 35.5349 256.281 37.1328 252.728 37.1328C247.99 37.1328 244.258 34.7638 243.23 30.1432H243.235ZM229.552 12.616L221.322 35.1214L213.03 12.616H206.041L217.59 42.2284H224.993L236.542 12.616H229.552ZM190.408 36.7808C189.179 36.8002 187.959 36.5705 186.821 36.1055C185.683 35.6405 184.652 34.95 183.788 34.0754C182.925 33.2009 182.247 32.1605 181.796 31.0171C181.346 29.8736 181.132 28.6507 181.166 27.4222C181.131 26.1935 181.345 24.9702 181.795 23.8264C182.245 22.6826 182.923 21.6419 183.786 20.7672C184.65 19.8925 185.682 19.202 186.82 18.7373C187.958 18.2726 189.179 18.0434 190.408 18.0636C195.615 18.0636 199.643 22.0305 199.643 27.4222C199.679 28.6505 199.465 29.8732 199.015 31.0167C198.566 32.1601 197.889 33.2005 197.025 34.0751C196.162 34.9498 195.131 35.6404 193.994 36.1054C192.856 36.5705 191.636 36.8002 190.408 36.7808ZM190.408 42.9994C192.463 43.024 194.503 42.6384 196.408 41.8651C198.313 41.0918 200.044 39.9464 201.501 38.4959C202.958 37.0454 204.11 35.3189 204.892 33.4175C205.673 31.5161 206.068 29.4779 206.052 27.4222C206.065 24.3252 205.159 21.294 203.448 18.7125C201.737 16.131 199.299 14.1154 196.441 12.921C193.584 11.7267 190.436 11.4073 187.397 12.0033C184.358 12.5994 181.564 14.084 179.369 16.2692C177.175 18.4544 175.678 21.2418 175.069 24.2784C174.46 27.3149 174.766 30.4638 175.948 33.3264C177.13 36.1889 179.135 38.6362 181.709 40.3582C184.283 42.0802 187.311 42.9994 190.408 42.9994ZM154.281 42.9994C161.918 42.9994 168.668 39.0884 172.104 33.0486L166.181 29.6962C164.053 33.7805 159.477 36.4009 154.281 36.4009C145.341 36.4009 139.413 30.065 139.413 21.5388C139.413 13.0127 145.335 6.67117 154.281 6.67117C159.488 6.67117 163.991 9.28041 166.181 13.3759L172.087 9.88942C168.612 3.84961 161.857 0 154.281 0C141.665 0 132.602 9.49832 132.602 21.4997C132.602 33.5011 141.665 43.0218 154.281 43.0218V42.9994ZM131.714 42.2508L115.84 26.8188L131.121 12.6048H125.791L111.695 25.7013V0.77104H107.784V42.2284H111.695V27.9362L126.501 42.2116L131.714 42.2508ZM94.2792 17.5551V12.6383H90.3681V42.2508H94.2792V25.7628C94.2792 18.4211 98.8998 15.9292 103.638 15.9292V12.1411C99.8441 12.1411 96.3744 13.387 94.2792 17.5328V17.5551ZM69.4718 39.1498C67.9299 39.1649 66.4006 38.8713 64.974 38.2861C63.5474 37.701 62.2523 36.8362 61.1651 35.7427C60.0779 34.6493 59.2205 33.3493 58.6436 31.9193C58.0666 30.4894 57.7817 28.9584 57.8056 27.4166C57.8056 24.3226 59.0347 21.3552 61.2226 19.1674C63.4104 16.9796 66.3777 15.7504 69.4718 15.7504C72.5659 15.7504 75.5332 16.9796 77.721 19.1674C79.9089 21.3552 81.138 24.3226 81.138 27.4166C81.1611 28.9582 80.8757 30.4888 80.2985 31.9184C79.7212 33.348 78.8639 34.6477 77.7768 35.741C76.6898 36.8343 75.395 37.6991 73.9687 38.2845C72.5424 38.87 71.0135 39.1642 69.4718 39.1498ZM69.4718 42.938C72.5379 42.9258 75.5316 42.0055 78.0751 40.2933C80.6186 38.581 82.5977 36.1536 83.7626 33.3174C84.9276 30.4812 85.2261 27.3634 84.6205 24.3577C84.0149 21.352 82.5323 18.5931 80.3599 16.4293C78.1876 14.2656 75.4229 12.7939 72.4148 12.2002C69.4067 11.6065 66.2902 11.9173 63.4586 13.0935C60.627 14.2696 58.2074 16.2583 56.5052 18.8085C54.803 21.3587 53.8946 24.3561 53.8946 27.4222C53.8788 29.4693 54.2715 31.4991 55.0495 33.3927C55.8275 35.2863 56.9753 37.0057 58.4257 38.4504C59.8762 39.8951 61.6002 41.0361 63.4968 41.8067C65.3935 42.5772 67.4247 42.9618 69.4718 42.938ZM12.0238 42.2284H16.9964L27.8357 6.2186L38.6749 42.2284H43.6476L55.6713 0.77104H51.2909L41.0439 36.602L30.2661 0.77104H25.4052L14.6274 36.602L4.3804 0.77104H0L12.0238 42.2284Z" fill="#001E45"/>
<path d="M250.649 82.2667H246.627V70.5335H250.649C253.868 70.5335 256.08 73.0813 256.08 76.3889C256.08 79.6966 253.845 82.2443 250.649 82.2443V82.2667ZM250.649 68.5668H244.548V84.2111H250.649C254.963 84.2111 258.069 80.7246 258.069 76.3889C258.069 72.0532 254.963 68.5668 250.649 68.5668ZM229.284 68.5668V80.2329L221.255 68.5891H219.579V84.2334H221.657V72.5449L229.703 84.2334H231.379V68.5891L229.284 68.5668ZM198.062 78.7803L200.856 71.0699L203.65 78.7803H198.062ZM205.661 84.2334H207.896L202.063 68.5891H199.716L193.883 84.2334H196.118L197.392 80.7246H204.432L205.661 84.2334ZM176.25 82.2667V68.5891H174.171V84.2334H182.999V82.2667H176.25ZM156.583 84.5016C159.778 84.5016 161.991 82.7584 161.991 80.0318C161.991 77.0147 159.421 76.2101 156.694 75.3162C154.504 74.6234 153.409 74.087 153.409 72.6343C153.409 71.1816 154.571 70.31 156.247 70.31C157.019 70.2838 157.779 70.5035 158.418 70.9373C159.056 71.3712 159.541 71.9967 159.801 72.7237L161.544 71.718C161.104 70.6838 160.364 69.8053 159.42 69.1958C158.476 68.5862 157.371 68.2737 156.247 68.2986C153.633 68.2986 151.331 69.9077 151.331 72.7237C151.331 75.6291 153.744 76.4113 156.247 77.1935C158.549 77.9087 159.935 78.445 159.935 80.0542C159.935 81.4621 158.817 82.4678 156.627 82.4678C154.437 82.4678 153.007 81.3504 152.448 79.6295L150.66 80.6576C151.487 83.0042 153.61 84.5016 156.583 84.5016ZM136.513 68.5668V80.2329L128.468 68.5668H126.791V84.2111H128.87V72.5449L136.915 84.2334H138.592V68.5891L136.513 68.5668ZM107.191 82.2443V77.2829H113.784V75.3385H107.191V70.5335H114.343V68.5668H105.113V84.2111H114.455V82.2443H107.191ZM85.5128 82.2443V77.2829H92.1058V75.3385H85.5128V70.5335H92.6645V68.5668H83.4343V84.2111H92.7762V82.2443H85.5128ZM64.5718 84.4792C67.9912 84.4792 70.4272 82.3337 70.4272 78.9367V68.5444H68.3711V78.892C68.3711 81.0599 67.0749 82.4902 64.5718 82.4902C62.0687 82.4902 60.7725 81.0599 60.7725 78.892V68.5891H58.694V78.9814C58.694 82.3784 61.1524 84.5239 64.5718 84.5239V84.4792ZM38.4458 82.4902C37.0681 82.4851 35.734 82.0069 34.6667 81.1357C33.5994 80.2646 32.8637 79.0532 32.5827 77.7045C32.3017 76.3557 32.4925 74.9514 33.1231 73.7265C33.7537 72.5016 34.7859 71.5305 36.047 70.9756C37.308 70.4207 38.7214 70.3158 40.0505 70.6785C41.3796 71.0411 42.5439 71.8492 43.3485 72.9676C44.153 74.0859 44.549 75.4467 44.4702 76.8222C44.3914 78.1976 43.8426 79.5043 42.9156 80.5235L39.6974 77.3052L38.267 78.5791L41.3959 81.7303C40.4947 82.2343 39.4783 82.4962 38.4458 82.4902ZM46.5585 76.4113C46.5611 74.6036 45.9607 72.8468 44.8524 71.4188C43.7441 69.9908 42.1911 68.9732 40.4394 68.5271C38.6876 68.081 36.8372 68.232 35.1808 68.956C33.5245 69.68 32.157 70.9357 31.2947 72.5244C30.4324 74.1131 30.1246 75.9441 30.42 77.7274C30.7154 79.5107 31.5972 81.1446 32.9258 82.3704C34.2543 83.5962 35.9537 84.3439 37.755 84.4951C39.5563 84.6463 41.3566 84.1925 42.8709 83.2054L44.6365 84.9933L46.0668 83.697L44.346 81.9762C45.7816 80.4704 46.582 78.4694 46.5809 76.3889" fill="#001E45"/>
<path d="M285.178 54.6992H1.05029V56.3754H285.178V54.6992Z" fill="#F58021"/>
</svg>
